<svg width="480" height="70" viewBox="0 0 480 70" fill="none" xmlns="http://www.w3.org/2000/svg">
<path d="M24 0H480L453 70H0L24 0Z" fill="#FF5501"/>
<path d="M149.08 46.6C147.013 46.6 145.167 46.1267 143.54 45.18C141.927 44.22 140.66 42.9467 139.74 41.36C138.82 39.76 138.36 38.0067 138.36 36.1C138.36 34.6867 138.62 33.3533 139.14 32.1C139.673 30.8333 140.42 29.7133 141.38 28.74C142.353 27.7667 143.493 27 144.8 26.44C146.107 25.88 147.54 25.6 149.1 25.6C151.167 25.6 153.007 26.08 154.62 27.04C156.247 27.9867 157.52 29.26 158.44 30.86C159.36 32.4467 159.82 34.1933 159.82 36.1C159.82 37.5 159.553 38.8333 159.02 40.1C158.5 41.3667 157.76 42.4867 156.8 43.46C155.84 44.4333 154.707 45.2 153.4 45.76C152.093 46.32 150.653 46.6 149.08 46.6ZM149.08 42.7C150.307 42.7 151.393 42.4333 152.34 41.9C153.3 41.3533 154.053 40.5867 154.6 39.6C155.147 38.6133 155.42 37.4467 155.42 36.1C155.42 34.7533 155.147 33.5867 154.6 32.6C154.053 31.6 153.3 30.8333 152.34 30.3C151.393 29.7667 150.307 29.5 149.08 29.5C147.853 29.5 146.76 29.7667 145.8 30.3C144.853 30.8333 144.107 31.6 143.56 32.6C143.027 33.5867 142.76 34.7533 142.76 36.1C142.76 37.4467 143.033 38.6133 143.58 39.6C144.127 40.5867 144.873 41.3533 145.82 41.9C146.78 42.4333 147.867 42.7 149.08 42.7ZM168.66 46V29.84H162.16V26.2H179.58V29.84H173.06V46H168.66ZM183.615 46V26.2H202.315V46H197.915V29.84H188.015V46H183.615ZM208.419 54.4V26.2H212.379V28.98C213.166 27.98 214.173 27.1667 215.399 26.54C216.626 25.9133 218.139 25.6 219.939 25.6C221.873 25.6 223.586 26.06 225.079 26.98C226.586 27.8867 227.759 29.1333 228.599 30.72C229.439 32.2933 229.859 34.0867 229.859 36.1C229.859 37.5533 229.619 38.92 229.139 40.2C228.659 41.4667 227.973 42.58 227.079 43.54C226.199 44.5 225.146 45.2533 223.919 45.8C222.706 46.3333 221.359 46.6 219.879 46.6C218.333 46.6 216.973 46.32 215.799 45.76C214.626 45.2 213.626 44.4467 212.799 43.5V54.4H208.419ZM219.139 42.7C220.366 42.7 221.453 42.4333 222.399 41.9C223.359 41.3533 224.106 40.5867 224.639 39.6C225.186 38.6133 225.459 37.4467 225.459 36.1C225.459 34.7533 225.186 33.5867 224.639 32.6C224.093 31.6 223.339 30.8333 222.379 30.3C221.433 29.7667 220.353 29.5 219.139 29.5C217.913 29.5 216.819 29.7667 215.859 30.3C214.913 30.8333 214.166 31.6 213.619 32.6C213.073 33.5867 212.799 34.7533 212.799 36.1C212.799 37.4467 213.073 38.6133 213.619 39.6C214.166 40.5867 214.913 41.3533 215.859 41.9C216.819 42.4333 217.913 42.7 219.139 42.7ZM239.779 46.6C238.405 46.6 237.199 46.3467 236.159 45.84C235.119 45.32 234.305 44.5933 233.719 43.66C233.145 42.7133 232.859 41.6 232.859 40.32C232.859 39.24 233.132 38.2667 233.679 37.4C234.225 36.52 235.072 35.7933 236.219 35.22C237.379 34.6467 238.865 34.2667 240.679 34.08C242.492 33.88 244.672 33.9067 247.219 34.16L247.299 37.2C245.485 36.9467 243.925 36.84 242.619 36.88C241.312 36.92 240.239 37.0867 239.399 37.38C238.572 37.66 237.959 38.04 237.559 38.52C237.172 38.9867 236.979 39.5267 236.979 40.14C236.979 41.1 237.319 41.84 237.999 42.36C238.692 42.88 239.639 43.14 240.839 43.14C241.865 43.14 242.785 42.9533 243.599 42.58C244.412 42.2067 245.052 41.68 245.519 41C245.999 40.32 246.239 39.52 246.239 38.6V33.34C246.239 32.46 246.052 31.7 245.679 31.06C245.305 30.4067 244.739 29.9 243.979 29.54C243.219 29.18 242.272 29 241.139 29C240.099 29 239.072 29.16 238.059 29.48C237.045 29.7867 236.079 30.2733 235.159 30.94L233.919 27.7C235.159 26.86 236.452 26.2667 237.799 25.92C239.145 25.5733 240.439 25.4 241.679 25.4C243.519 25.4 245.092 25.6933 246.399 26.28C247.719 26.8533 248.732 27.7267 249.439 28.9C250.145 30.06 250.499 31.5267 250.499 33.3V46H246.539V43.66C245.872 44.6067 244.945 45.3333 243.759 45.84C242.572 46.3467 241.245 46.6 239.779 46.6ZM256.349 46V26.2H265.789C268.029 26.2 269.822 26.6267 271.169 27.48C272.516 28.3333 273.189 29.6133 273.189 31.32C273.189 32.12 272.996 32.8333 272.609 33.46C272.222 34.0733 271.689 34.5867 271.009 35C270.329 35.4133 269.536 35.7133 268.629 35.9L268.549 34.92C270.296 35.16 271.649 35.74 272.609 36.66C273.569 37.58 274.049 38.7467 274.049 40.16C274.049 41.36 273.736 42.4 273.109 43.28C272.482 44.1467 271.582 44.82 270.409 45.3C269.236 45.7667 267.829 46 266.189 46H256.349ZM260.609 42.74H265.589C266.909 42.74 267.922 42.52 268.629 42.08C269.349 41.64 269.709 40.98 269.709 40.1C269.709 39.2333 269.356 38.5867 268.649 38.16C267.942 37.72 266.922 37.5 265.589 37.5H260.029V34.36H265.129C266.369 34.36 267.329 34.1733 268.009 33.8C268.689 33.4133 269.029 32.7867 269.029 31.92C269.029 31.0533 268.689 30.4267 268.009 30.04C267.329 29.64 266.369 29.44 265.129 29.44H260.609V42.74ZM279.005 46V26.2H283.265V39.56L294.005 26.2H297.845V46H293.605V32.48L282.765 46H279.005ZM308.386 46V29.84H301.886V26.2H319.306V29.84H312.786V46H308.386ZM323.341 46V26.2H327.741V42.66H331.521C332.961 42.66 334.048 42.38 334.781 41.82C335.515 41.26 335.881 40.4267 335.881 39.32C335.881 38.2267 335.541 37.3867 334.861 36.8C334.181 36.2133 333.181 35.92 331.861 35.92H327.141V32.62H332.201C334.761 32.62 336.775 33.1933 338.241 34.34C339.708 35.4867 340.441 37.1467 340.441 39.32C340.441 40.72 340.088 41.92 339.381 42.92C338.675 43.9067 337.681 44.6667 336.401 45.2C335.135 45.7333 333.648 46 331.941 46H323.341Z" fill="white"/>
</svg>
