<?xml version="1.0" encoding="utf-8"?>
<!-- Generator: Adobe Illustrator 26.4.1, SVG Export Plug-In . SVG Version: 6.00 Build 0)  -->
<svg version="1.1" id="Layer_1" xmlns="http://www.w3.org/2000/svg" xmlns:xlink="http://www.w3.org/1999/xlink" x="0px" y="0px"
	 viewBox="0 0 1706 166" style="enable-background:new 0 0 1706 166;" xml:space="preserve">
<style type="text/css">
	.st0{fill:#FF5501;}
	.st1{fill:#FFFFFF;}
	.st2{clip-path:url(#SVGID_00000078046369064328907150000016439174664418860176_);}
</style>
<rect class="st0" width="1706" height="166"/>
<path class="st1" d="M561,56.1h-34.7v45h8.4V63.8H561V56.1z"/>
<path class="st1" d="M571.9,56.1l-15.4,45h8.7l3.5-10l24.4-4.2l4.8,14.2h8.7l-15.4-45H571.9L571.9,56.1z M571.3,83.1l6.8-19.3h7.1
	l5.5,16.1L571.3,83.1L571.3,83.1z"/>
<path class="st1" d="M674.5,72.8L691.2,61l-3.5-4.9h-37v7.4h24.8l-16.4,11.6l2.3,3.9h10.9c9.7,0,11.6,5.1,11.6,8
	c0,4.8-5.1,7.7-14.2,7.7c-5.1,0-8.9-1.8-11.5-3.7l4.6-3.2l-16.9-6.2v18l5.2-3.7c3.3,3,9.1,6.5,18.6,6.5c15.8,0,22.5-7.4,22.5-15.1
	C692.2,82.8,689.7,72.9,674.5,72.8L674.5,72.8z"/>
<path class="st1" d="M611.2,101.1h8.4V63.8h26.4v-7.7h-34.7V101.1z"/>
<path class="st1" d="M524.8,112.7c1,0,2-0.1,3.1-0.1c14.3,0,28.7,0,43,0c1.3,0,2-0.3,2.4-1.6c0.7-2.4,1.7-4.8,2.5-7.1
	c1-2.8,4.7-4.2,7.4-2.9c0.2,0.1,0.4,0.3,0.6,0.3c3,0.4,3.8,2.7,4.5,5.1c0.5,1.6,1.2,3.2,1.7,4.9c0.3,1,0.9,1.3,1.9,1.3
	c8.2,0,16.3,0,24.5,0c4.1,0,8.2,0,12.3,0c2,0,3.6,1,5.3,1.8c1.2,0.6,1.4,1.9,1.4,3.1c0,0.9,0,1.8,0,3c2.1-1.4,3.9-2.6,5.7-3.9
	c2.4-1.7,4.9-3.4,7.3-5.1c1.4-1,2.9-1.2,4.5-0.6c5.7,2.3,11.7,3.2,17.7,2.9c7.8-0.3,15.3-1.7,21.8-6.3c7.4-5.1,11.4-12.1,11.5-21.1
	c0.1-4.8-1.2-9.3-3.6-13.4c-1.4-2.5-1.1-3.9,1.2-5.5c1.8-1.3,3.5-2.5,5.3-3.7c0.7-0.5,1-0.9,0.3-1.7c-0.4-0.5-0.8-1.1-1.2-1.6
	c-1.4-2-1.1-3.8,0.9-5.3c1.6-1.2,3.2-2.3,4.8-3.4c0.1,0,0.1-0.1,0.1-0.4c-2.3,0-4.6,0-6.9,0c-3.5-0.1-6.6-1-8.4-4.3
	c-1.4-2.5-3.3-3.2-6.1-3.2c-51.8,0.1-103.6,0.1-155.4,0.1c-3.4,0-6.8-0.2-10.2,0.7v-7.7c1,0,2-0.1,3.1-0.1c54,0,107.9,0,161.9,0
	c2.7,0,5.4-0.5,8.1,0.9c1.1,0.6,2.3,1.1,3,2.2c0.7,1,1.4,1.9,2.1,2.9c0.5,0.9,1.2,1.2,2.3,1.2c3.6-0.1,7.3-0.1,10.9,0
	c3.3,0.1,6.7-0.6,9.9,1c1.3,0.6,2.4,1.2,2.7,2.6c0.3,1.5-0.3,2.5-1.5,3.4c-3.3,2.3-6.6,4.6-9.9,7c-1.5,1.1-1.7,2.4-0.7,3.9
	c1.6,2.4,1.4,4.1-1,5.8c-1.5,1.1-3,2.1-4.5,3.1c-2.5,1.8-2,1.2-1,3.6c2.4,5.8,3.4,11.7,2.2,17.9c-2.3,12.1-9.6,20.3-20.9,24.7
	c-11.8,4.7-23.9,4.9-36,1c-1-0.3-1.7-0.4-2.6,0.3c-6.3,4.5-12.7,8.9-19.1,13.3h-2.1c-0.8-0.5-1.6-0.9-2.5-1.1
	c-1.7-0.4-2.5-1.6-2.6-3.4c0-2,0-4,0-6c0-1.2-0.6-1.9-1.9-1.9c-10,0-20.1,0-30.1,0c-3,0-6,0.5-8.9-1c-1.3-0.6-2.3-1.2-2.8-2.5
	c-0.3-0.8-0.6-1.5-1-2.5c-0.4,1-0.7,1.7-0.9,2.4c-1,2.9-2.1,3.7-5.2,3.7c-16.4,0-32.8,0-49.3,0c-0.6,0-1.1-0.1-1.7-0.1
	C524.8,117.2,524.8,114.9,524.8,112.7L524.8,112.7z"/>
<g>
	<defs>
		<rect id="SVGID_1_" x="174.8" y="33" width="234" height="95.3"/>
	</defs>
	<clipPath id="SVGID_00000052783727577616702300000014942408004718633915_">
		<use xlink:href="#SVGID_1_"  style="overflow:visible;"/>
	</clipPath>
	<g style="clip-path:url(#SVGID_00000052783727577616702300000014942408004718633915_);">
		<rect x="174.8" y="33" class="st0" width="234" height="95.3"/>
		<path class="st1" d="M186.3,33.4v18.7h-4.7V33.4h-6.9v46.7h6.9V59.6h4.7v20.5h6.8V33.4H186.3z"/>
		<path class="st1" d="M204.9,80.6h-1.3c-5.5,0-8.4-3.1-8.4-8.8v-9.3h6.8v8.2c0,2.1,0.6,3.3,2.2,3.3c1.7,0,2.2-1.1,2.2-4v-1.1
			c0-3.4-0.3-4.5-2.8-7.8l-4.3-5.8c-2.9-3.9-3.8-6.9-3.8-11.5v-1.5c0-6.3,3.1-9.2,8.5-9.2h1.3c5.6,0,7.9,2.5,7.9,8.1v7.7h-6.7V42
			c0-1.6-0.3-2.8-2-2.8c-1.7,0-2,1.1-2,3.3v0.9c0,2.6,0.5,4.1,2.8,7.1l4.4,5.8c3.1,4.2,4,6.5,4,11.8v1.5
			C213.8,76.5,210.9,80.6,204.9,80.6z"/>
		<path class="st1" d="M231.4,33.4v6.8h-8.7v12.3h6.8v7h-6.8V73h9.1v7.1h-16V33.4H231.4z"/>
		<path class="st1" d="M250.3,71.3h-5l-1,8.7h-6.1l5.6-46.7h8.2l5.9,46.7h-6.7L250.3,71.3z M249.6,64.4l-1.8-17.3L246,64.4H249.6
			L249.6,64.4z"/>
		<path class="st1" d="M265.8,80.1h-6.9V33.4H270c4.6,0,6.9,2,6.9,7.2v8.3c0,3.9-1.7,5.4-3,6c1.5,0.7,3,2,3,5.1v16.4
			c0,1.9,0.4,2.8,0.6,3.4V80h-6.8c-0.3-0.5-0.6-1.3-0.6-3.8v-14c0-2-0.4-2.9-2.5-2.9h-1.7V80.1z M265.8,52.6h1.8
			c1.9,0,2.5-1.2,2.5-3.4v-6.5c0-2-0.4-3-2.5-3h-1.8V52.6z"/>
		<path class="st1" d="M290.9,40.2v39.9h-6.8V40.2h-5.8v-6.8h18.3v6.8H290.9z"/>
		<path class="st1" d="M315.2,71.3h-5l-1,8.7h-6.1l5.6-46.7h8.1l5.9,46.7h-6.7L315.2,71.3z M314.4,64.4l-1.8-17.3l-1.7,17.3H314.4z"
			/>
		<path class="st1" d="M330,33.4l5.9,25v-25h6.3v46.7h-5.6L330,53.3v26.8h-6.3V33.4H330z"/>
		<path class="st1" d="M344.7,33.4h10.5c5.9,0,7.7,3.4,7.7,9v28.4c0,5.7-2.1,9.3-7.7,9.3h-10.5V33.4z M351.6,73.3h1.7
			c2.1,0,2.7-1.1,2.7-3.6V43.4c0-2.7-0.6-3.6-2.4-3.6h-2V73.3z"/>
		<path class="st1" d="M174.8,81.1h10.5c5.9,0,7.7,3.4,7.7,9v28.4c0,5.7-2.1,9.3-7.7,9.3h-10.5V81.1z M181.7,120.9h1.7
			c2.1,0,2.7-1.1,2.7-3.6V91c0-2.7-0.6-3.6-2.4-3.6h-2V120.9z"/>
		<path class="st1" d="M211.1,81.1v6.7h-8.8V100h6.9v7.1h-6.9v13.5h9.2v7h-16V81.1H211.1z"/>
		<path class="st1" d="M222.4,128.2h-1.3c-5.5,0-8.4-3.1-8.4-8.8V110h6.8v8.2c0,2.1,0.6,3.3,2.2,3.3c1.7,0,2.2-1.1,2.2-4v-1.1
			c0-3.4-0.3-4.5-2.8-7.8l-4.4-5.8c-2.9-3.9-3.8-6.9-3.8-11.5v-1.5c0-6.2,3-9.1,8.5-9.1h1.3c5.6,0,7.9,2.5,7.9,8.1v7.7h-6.7v-6.7
			c0-1.6-0.3-2.8-2-2.8s-2,1.1-2,3.3v0.8c0,2.6,0.5,4.1,2.8,7.1l4.4,5.8c3.1,4.2,4,6.5,4,11.8v1.5
			C231.3,124.2,228.5,128.2,222.4,128.2z"/>
		<path class="st1" d="M240.1,81.1h-6.9v46.7h6.9V81.1z"/>
		<path class="st1" d="M249.1,128.3c-4,0-6.6-3.7-6.6-8.5V90.6c0-5.2,2-10.1,8.5-10.1h1.3c7.4,0,8.2,5,8.2,10.5v4.7h-6.7v-5.2
			c0-2-0.5-3.2-2.2-3.2c-1.4,0-2.1,1.1-2.1,3.2v27.3c0,2.2,0.9,3.4,2.2,3.4c1.7,0,2.5-1.2,2.5-3v-11.7h-3.1v-7.1h9.6v28.4h-3.9
			c-0.1-0.2-0.6-2.5-1.2-4.6c-0.5,1.6-2.8,5.2-6.3,5.2L249.1,128.3L249.1,128.3z"/>
		<path class="st1" d="M269.4,81.1l5.9,25v-25h6.3v46.6H276l-6.6-26.8v26.8h-6.2V81.1H269.4z"/>
		<path class="st1" d="M299.4,128.2h-1.3c-5.5,0-8.4-3.1-8.4-8.8V110h6.8v8.2c0,2.1,0.6,3.3,2.2,3.3c1.7,0,2.2-1.1,2.2-4v-1.1
			c0-3.4-0.3-4.5-2.8-7.8l-4.4-5.8c-2.9-3.9-3.8-6.9-3.8-11.5v-1.5c0-6.2,3-9.1,8.5-9.1h1.3c5.6,0,7.9,2.5,7.9,8.1v7.7h-6.7v-6.7
			c0-1.6-0.3-2.8-2-2.8c-1.7,0-2,1.1-2,3.3v0.8c0,2.6,0.5,4.1,2.8,7.1l4.4,5.8c3.1,4.2,4,6.5,4,11.8v1.5
			C308.3,124.2,305.5,128.2,299.4,128.2z"/>
		<path class="st1" d="M321.6,118.2v-10.8h6.7v10.8c0,5-1.6,10.1-8.2,10.1h-1.5c-6.9,0-8.5-5.2-8.5-9.8V90c0-4.7,2-9.3,8.2-9.3h1.6
			c7.5,0,8.4,5.2,8.4,9.7v8.3h-6.7v-8.2c0-2-0.6-3.1-2.3-3.1c-1.7,0-2.1,1-2.1,3.1v27.7c0,2,0.6,3.2,2.2,3.2
			C320.9,121.4,321.6,120.1,321.6,118.2z"/>
		<path class="st1" d="M342,107.2h-4.7v20.5h-6.8V81.1h6.8v18.6h4.7V81.1h6.9v46.6H342V107.2z"/>
		<path class="st1" d="M370.1,117.3c0,6.5-2.1,11-8.7,11h-1.2c-6.6,0-8.9-4.4-8.9-11v-26c0-6.5,2.4-10.7,8.8-10.7h1.2
			c6.7,0,8.8,4.3,8.8,10.6V117.3z M363.1,91c0-2.5-0.8-3.6-2.4-3.6c-1.7,0-2.5,1.2-2.5,3.6v26.8c0,2,0.6,3.6,2.5,3.6
			c1.8,0,2.3-1.6,2.3-3.6L363.1,91L363.1,91z"/>
		<path class="st1" d="M391.1,117.3c0,6.5-2.1,11-8.7,11h-1.2c-6.6,0-8.9-4.4-8.9-11v-26c0-6.5,2.4-10.7,8.8-10.7h1.2
			c6.7,0,8.8,4.3,8.8,10.6V117.3L391.1,117.3z M384.1,91c0-2.5-0.8-3.6-2.4-3.6c-1.7,0-2.5,1.2-2.5,3.6v26.8c0,2,0.6,3.6,2.5,3.6
			c1.8,0,2.3-1.6,2.3-3.6L384.1,91L384.1,91z"/>
		<path class="st1" d="M400.3,81.1v39.4h8.4v7.2h-15.3V81.1H400.3z"/>
	</g>
</g>
<path class="st1" d="M1206.8,122.4c-0.9,0-1.7-0.2-2.3-0.5c-0.7-0.3-1.2-0.8-1.6-1.4c-0.4-0.6-0.6-1.3-0.6-2.1
	c0-0.7,0.2-1.3,0.5-1.9c0.3-0.6,0.9-1,1.6-1.4c0.8-0.4,1.7-0.6,2.9-0.7c1.2-0.1,2.6-0.1,4.2,0.1l0.1,1.9c-1.2-0.2-2.2-0.2-3-0.2
	c-0.8,0-1.5,0.1-2.1,0.3c-0.5,0.2-0.9,0.4-1.2,0.7c-0.2,0.3-0.4,0.6-0.4,1c0,0.6,0.2,1.1,0.7,1.4c0.4,0.3,1.1,0.5,1.8,0.5
	c0.7,0,1.2-0.1,1.8-0.4s0.9-0.6,1.2-1c0.3-0.4,0.5-0.9,0.5-1.5v-3.4c0-0.6-0.1-1.1-0.3-1.5c-0.2-0.4-0.6-0.7-1.1-1
	c-0.5-0.2-1.1-0.3-1.8-0.3c-0.7,0-1.3,0.1-2,0.3c-0.6,0.2-1.3,0.5-1.9,0.9l-0.8-2.1c0.8-0.5,1.6-0.9,2.5-1.1
	c0.9-0.2,1.7-0.3,2.5-0.3c1.2,0,2.2,0.2,3,0.6c0.8,0.4,1.5,0.9,1.9,1.7c0.5,0.7,0.7,1.7,0.7,2.8v8.1h-2.5v-1.5
	c-0.4,0.6-1,1.1-1.8,1.4C1208.6,122.2,1207.7,122.4,1206.8,122.4z"/>
<path class="st1" d="M1188.8,122v-12.7h6.1c1.4,0,2.6,0.3,3.4,0.8c0.9,0.5,1.3,1.4,1.3,2.5c0,0.5-0.1,1-0.4,1.4
	c-0.2,0.4-0.6,0.7-1,1c-0.4,0.3-1,0.5-1.5,0.6l-0.1-0.6c1.1,0.2,2,0.5,2.6,1.1c0.6,0.6,0.9,1.3,0.9,2.2c0,0.8-0.2,1.4-0.6,2
	c-0.4,0.6-1,1-1.7,1.3c-0.8,0.3-1.7,0.4-2.7,0.4H1188.8z M1191.5,119.9h3.2c0.8,0,1.5-0.1,1.9-0.4c0.5-0.3,0.7-0.7,0.7-1.3
	c0-0.6-0.2-1-0.7-1.2c-0.5-0.3-1.1-0.4-2-0.4h-3.6v-2h3.3c0.8,0,1.4-0.1,1.8-0.4c0.4-0.2,0.7-0.7,0.7-1.2s-0.2-1-0.7-1.2
	c-0.4-0.3-1-0.4-1.8-0.4h-2.9V119.9z"/>
<path class="st1" d="M1179.1,122.4c-1.3,0-2.5-0.3-3.6-0.9c-1-0.6-1.8-1.4-2.4-2.4c-0.6-1-0.9-2.1-0.9-3.4c0-0.9,0.2-1.8,0.5-2.6
	c0.3-0.8,0.8-1.5,1.4-2.2c0.6-0.6,1.3-1.1,2.2-1.5c0.8-0.4,1.8-0.5,2.8-0.5c1.3,0,2.5,0.3,3.5,0.9c1,0.6,1.9,1.4,2.5,2.4
	c0.6,1,0.9,2.1,0.9,3.4c0,0.9-0.2,1.8-0.5,2.6c-0.3,0.8-0.8,1.5-1.4,2.2c-0.6,0.6-1.3,1.1-2.2,1.5
	C1181,122.2,1180.1,122.4,1179.1,122.4z M1179.1,119.9c0.8,0,1.5-0.2,2.1-0.5c0.6-0.3,1.1-0.8,1.4-1.5c0.3-0.6,0.5-1.4,0.5-2.2
	c0-0.9-0.2-1.6-0.5-2.2c-0.3-0.6-0.8-1.1-1.4-1.5c-0.6-0.3-1.3-0.5-2.1-0.5c-0.8,0-1.5,0.2-2.1,0.5c-0.6,0.3-1.1,0.8-1.4,1.5
	c-0.3,0.6-0.5,1.4-0.5,2.2c0,0.9,0.2,1.6,0.5,2.2c0.3,0.6,0.8,1.1,1.4,1.5C1177.6,119.7,1178.3,119.9,1179.1,119.9z"/>
<path class="st1" d="M1167.7,122l-4.2-6.7l3.9-5.9h3l-3.9,5.8l4.5,6.9H1167.7z M1159.2,122v-12.7h2.8v4.9h3.8v2.3h-3.8v5.5H1159.2z"
	/>
<path class="st1" d="M1143.2,122v-12.7h2.7v8.6l6.9-8.6h2.5V122h-2.7v-8.7l-6.9,8.7H1143.2z"/>
<path class="st1" d="M1127.3,122v-12.7h2.8v4.9h6.3v-4.9h2.8V122h-2.8v-5.5h-6.3v5.5H1127.3z"/>
<path class="st1" d="M1111.4,122v-12.7h2.8v4.9h6.4v-4.9h2.8V122h-2.8v-5.5h-6.4v5.5H1111.4z"/>
<path class="st1" d="M1091.8,122v-12.7h2.8v10.5h2.3c0.9,0,1.6-0.2,2.1-0.5c0.5-0.4,0.7-0.9,0.7-1.6c0-0.7-0.2-1.2-0.7-1.6
	c-0.4-0.4-1.1-0.6-1.9-0.6h-2.9v-2.1h3.1c1.6,0,2.9,0.4,3.9,1.1c0.9,0.7,1.4,1.8,1.4,3.2c0,0.9-0.2,1.7-0.7,2.3
	c-0.5,0.6-1.1,1.1-1.9,1.5c-0.8,0.3-1.8,0.5-2.9,0.5H1091.8z M1104.7,122v-12.7h2.8V122H1104.7z"/>
<path class="st1" d="M1075.2,127.4v-18.1h2.5v1.8c0.5-0.6,1.1-1.2,1.9-1.6s1.8-0.6,2.9-0.6c1.2,0,2.3,0.3,3.3,0.9
	c1,0.6,1.7,1.4,2.3,2.4c0.5,1,0.8,2.2,0.8,3.4c0,0.9-0.2,1.8-0.5,2.6c-0.3,0.8-0.7,1.5-1.3,2.1c-0.6,0.6-1.2,1.1-2,1.4
	c-0.8,0.3-1.6,0.5-2.6,0.5c-1,0-1.9-0.2-2.6-0.5c-0.8-0.4-1.4-0.8-1.9-1.4v7H1075.2z M1082.1,119.9c0.8,0,1.5-0.2,2.1-0.5
	c0.6-0.3,1.1-0.8,1.4-1.5c0.4-0.6,0.5-1.4,0.5-2.2c0-0.9-0.2-1.6-0.5-2.2c-0.3-0.6-0.8-1.1-1.4-1.5c-0.6-0.3-1.3-0.5-2.1-0.5
	c-0.8,0-1.5,0.2-2.1,0.5c-0.6,0.3-1.1,0.8-1.4,1.5c-0.4,0.6-0.5,1.4-0.5,2.2c0,0.9,0.2,1.6,0.5,2.2c0.4,0.6,0.8,1.1,1.4,1.5
	C1080.6,119.7,1081.3,119.9,1082.1,119.9z"/>
<path class="st1" d="M1069.4,122l-4.2-6.7l3.9-5.9h3l-3.9,5.8l4.5,6.9H1069.4z M1060.9,122v-12.7h2.8v4.9h3.8v2.3h-3.8v5.5H1060.9z"
	/>
<path class="st1" d="M1051.6,122.4c-1.9,0-3.5-0.4-4.9-1.2c-1.4-0.8-2.5-1.9-3.3-3.3c-0.8-1.4-1.2-3.1-1.2-4.9
	c0-1.4,0.2-2.6,0.7-3.8c0.5-1.1,1.1-2.1,1.9-3c0.8-0.8,1.8-1.5,3-1.9c1.1-0.5,2.4-0.7,3.7-0.7c1.4,0,2.5,0.2,3.5,0.5
	c1,0.3,1.9,0.8,2.6,1.5l-1.5,2.3c-0.6-0.5-1.2-0.9-2-1.2c-0.8-0.3-1.6-0.4-2.5-0.4c-1,0-1.9,0.2-2.7,0.5c-0.8,0.3-1.5,0.7-2.1,1.3
	c-0.6,0.6-1,1.3-1.3,2.1c-0.3,0.8-0.4,1.7-0.4,2.7c0,1.4,0.3,2.6,0.8,3.6c0.5,1,1.3,1.7,2.3,2.3c1,0.5,2.2,0.8,3.5,0.8
	c0.9,0,1.8-0.1,2.6-0.4c0.8-0.3,1.6-0.7,2.4-1.3l1.3,2.4c-0.9,0.7-1.9,1.2-3,1.6C1054.2,122.2,1053,122.4,1051.6,122.4z"/>
<path class="st1" d="M1021.6,122l4.9-6.5l0.6,1.8c-1.1,0-1.9-0.1-2.7-0.5c-0.7-0.3-1.3-0.8-1.7-1.4c-0.4-0.6-0.6-1.3-0.6-2.1
	c0-0.9,0.2-1.6,0.7-2.2c0.4-0.6,1.1-1.1,1.8-1.4c0.8-0.3,1.7-0.5,2.8-0.5h5.5V122h-2.7v-10.5h-2.5c-0.9,0-1.6,0.2-2.1,0.5
	c-0.5,0.3-0.7,0.8-0.7,1.4c0,0.6,0.2,1.1,0.6,1.4c0.4,0.3,1.1,0.5,1.9,0.5h3.1v2h-2.2l-3.5,4.7H1021.6z"/>
<path class="st1" d="M1008.6,122v-12.7h2.8v10.5h2.4c0.9,0,1.6-0.2,2.1-0.5c0.5-0.4,0.7-0.9,0.7-1.6c0-0.7-0.2-1.2-0.7-1.6
	c-0.4-0.4-1.1-0.6-1.9-0.6h-3v-2.1h3.2c1.6,0,2.9,0.4,3.9,1.1c0.9,0.7,1.4,1.8,1.4,3.2c0,0.9-0.2,1.7-0.7,2.3
	c-0.5,0.6-1.1,1.1-1.9,1.5c-0.8,0.3-1.8,0.5-2.9,0.5H1008.6z"/>
<path class="st1" d="M992,127.4v-18.1h2.5v1.8c0.5-0.6,1.1-1.2,1.9-1.6c0.8-0.4,1.8-0.6,2.9-0.6c1.2,0,2.3,0.3,3.3,0.9
	c1,0.6,1.7,1.4,2.3,2.4c0.5,1,0.8,2.2,0.8,3.4c0,0.9-0.2,1.8-0.5,2.6c-0.3,0.8-0.7,1.5-1.3,2.1c-0.6,0.6-1.2,1.1-2,1.4
	c-0.8,0.3-1.6,0.5-2.6,0.5c-1,0-1.9-0.2-2.6-0.5s-1.4-0.8-1.9-1.4v7H992z M998.9,119.9c0.8,0,1.5-0.2,2.1-0.5
	c0.6-0.3,1.1-0.8,1.4-1.5c0.4-0.6,0.5-1.4,0.5-2.2c0-0.9-0.2-1.6-0.5-2.2c-0.4-0.6-0.8-1.1-1.4-1.5c-0.6-0.3-1.3-0.5-2.1-0.5
	c-0.8,0-1.5,0.2-2.1,0.5c-0.6,0.3-1.1,0.8-1.4,1.5c-0.3,0.6-0.5,1.4-0.5,2.2c0,0.9,0.2,1.6,0.5,2.2c0.4,0.6,0.8,1.1,1.4,1.5
	C997.4,119.7,998.1,119.9,998.9,119.9z"/>
<path class="st1" d="M981.4,122.4c-0.9,0-1.7-0.2-2.3-0.5c-0.7-0.3-1.2-0.8-1.6-1.4c-0.4-0.6-0.6-1.3-0.6-2.1c0-0.7,0.2-1.3,0.5-1.9
	c0.4-0.6,0.9-1,1.6-1.4c0.7-0.4,1.7-0.6,2.9-0.7c1.2-0.1,2.6-0.1,4.2,0.1l0.1,1.9c-1.2-0.2-2.2-0.2-3-0.2c-0.8,0-1.5,0.1-2.1,0.3
	c-0.5,0.2-0.9,0.4-1.2,0.7c-0.2,0.3-0.4,0.6-0.4,1c0,0.6,0.2,1.1,0.7,1.4c0.4,0.3,1.1,0.5,1.8,0.5c0.7,0,1.2-0.1,1.8-0.4
	s0.9-0.6,1.2-1c0.3-0.4,0.5-0.9,0.5-1.5v-3.4c0-0.6-0.1-1.1-0.4-1.5c-0.2-0.4-0.6-0.7-1.1-1c-0.5-0.2-1.1-0.3-1.8-0.3
	c-0.7,0-1.3,0.1-2,0.3c-0.6,0.2-1.3,0.5-1.9,0.9l-0.8-2.1c0.8-0.5,1.6-0.9,2.5-1.1s1.7-0.3,2.5-0.3c1.2,0,2.2,0.2,3,0.6
	c0.8,0.4,1.5,0.9,1.9,1.7c0.5,0.7,0.7,1.7,0.7,2.8v8.1h-2.5v-1.5c-0.4,0.6-1,1.1-1.8,1.4C983.2,122.2,982.3,122.4,981.4,122.4z"/>
<path class="st1" d="M969.1,122v-15.3h-7v2.8c0,2.2-0.1,4-0.3,5.5s-0.5,2.7-1,3.7c-0.4,0.9-1,1.7-1.7,2.2c-0.7,0.5-1.6,0.9-2.6,1.1
	l-1-2.3c0.8-0.2,1.4-0.5,1.9-0.8c0.5-0.4,0.9-0.9,1.2-1.6c0.3-0.7,0.5-1.7,0.6-3c0.1-1.2,0.2-2.8,0.2-4.7v-5.4H972V122H969.1z
	 M955.5,126.6v-7l2,0.1l1.1-0.3h16.3v7.2h-2.7V122h-13.9v4.6H955.5z"/>
<path class="st1" d="M1177.9,90.4c-1.3,0-2.5-0.3-3.6-0.9c-1-0.6-1.8-1.4-2.4-2.4c-0.6-1-0.9-2.1-0.9-3.4c0-0.9,0.2-1.8,0.5-2.6
	c0.3-0.8,0.8-1.5,1.4-2.2c0.6-0.6,1.3-1.1,2.2-1.5c0.8-0.4,1.8-0.5,2.8-0.5c1.3,0,2.5,0.3,3.5,0.9c1.1,0.6,1.9,1.4,2.5,2.4
	c0.6,1,0.9,2.1,0.9,3.4c0,0.9-0.2,1.8-0.5,2.6c-0.3,0.8-0.8,1.5-1.4,2.2c-0.6,0.6-1.3,1.1-2.2,1.5
	C1179.9,90.2,1178.9,90.4,1177.9,90.4z M1177.9,87.9c0.8,0,1.5-0.2,2.1-0.5c0.6-0.4,1.1-0.8,1.4-1.5c0.4-0.6,0.5-1.4,0.5-2.2
	c0-0.9-0.2-1.6-0.5-2.2c-0.3-0.6-0.8-1.1-1.4-1.5c-0.6-0.3-1.3-0.5-2.1-0.5c-0.8,0-1.5,0.2-2.1,0.5c-0.6,0.3-1.1,0.8-1.4,1.5
	c-0.3,0.6-0.5,1.4-0.5,2.2c0,0.9,0.2,1.6,0.5,2.2s0.8,1.1,1.4,1.5C1176.5,87.7,1177.2,87.9,1177.9,87.9z"/>
<path class="st1" d="M1166.5,90l-4.2-6.7l3.9-5.9h3l-3.9,5.8l4.5,6.9H1166.5z M1158.1,90V77.3h2.8v4.9h3.8v2.3h-3.8V90H1158.1z"/>
<path class="st1" d="M1142.2,90V77.3h2.8v4.9h6.4v-4.9h2.8V90h-2.8v-5.5h-6.4V90H1142.2z"/>
<path class="st1" d="M1133.3,90.4c-1.4,0-2.6-0.3-3.6-0.8c-1-0.6-1.8-1.3-2.4-2.4c-0.6-1-0.9-2.2-0.9-3.5c0-1,0.2-1.9,0.5-2.7
	c0.3-0.8,0.8-1.5,1.4-2.2c0.6-0.6,1.3-1.1,2.1-1.4c0.8-0.3,1.7-0.5,2.7-0.5c1.1,0,2,0.2,2.8,0.6c0.8,0.4,1.5,0.9,2,1.6
	c0.5,0.7,0.9,1.4,1.2,2.3c0.2,0.9,0.3,1.9,0.1,2.9h-10.1c0,0.8,0.2,1.4,0.5,2c0.3,0.6,0.8,1,1.5,1.3c0.7,0.3,1.4,0.5,2.3,0.5
	c0.7,0,1.4-0.1,2.1-0.3c0.7-0.2,1.3-0.5,1.8-1l1.1,2c-0.4,0.3-0.9,0.6-1.5,0.9c-0.6,0.2-1.2,0.4-1.8,0.5
	C1134.5,90.3,1133.9,90.4,1133.3,90.4z M1129.3,82.2h7.2c0-1-0.3-1.7-0.9-2.3c-0.6-0.5-1.4-0.8-2.5-0.8c-1,0-1.9,0.3-2.6,0.8
	C1129.8,80.5,1129.4,81.3,1129.3,82.2z"/>
<path class="st1" d="M1120.8,90v-5c-0.6,0.2-1.2,0.3-1.7,0.3c-0.5,0.1-1.1,0.1-1.7,0.1c-1.1,0-2.1-0.2-2.9-0.5
	c-0.8-0.4-1.4-0.9-1.8-1.6c-0.4-0.7-0.6-1.6-0.6-2.7v-3.4h2.8v3c0,0.9,0.2,1.6,0.7,2.1c0.4,0.5,1.2,0.7,2.2,0.7c0.6,0,1.1,0,1.6-0.1
	c0.5-0.1,0.9-0.1,1.3-0.2v-5.5h2.8V90H1120.8z"/>
<path class="st1" d="M1106.2,90V79.6h-5.1v1.7c0,1.2-0.1,2.2-0.2,3.1c-0.1,0.9-0.4,1.8-0.7,2.5c-0.3,0.7-0.8,1.3-1.5,1.7
	c-0.6,0.5-1.4,0.8-2.4,1l-0.7-1.9c0.8-0.2,1.4-0.6,1.8-1.1s0.7-1.2,0.8-2.1c0.1-0.9,0.2-2,0.2-3.2v-4h10.6V90H1106.2z M1095.6,93.8
	v-6.1l1.7,0.2l0.4-0.3h13.8v6.2h-2.6V90h-10.8v3.8H1095.6z"/>
<path class="st1" d="M1081.8,90l4.9-6.5l0.6,1.8c-1.1,0-1.9-0.1-2.7-0.5c-0.7-0.3-1.3-0.8-1.7-1.4c-0.4-0.6-0.6-1.3-0.6-2.1
	c0-0.9,0.2-1.6,0.7-2.2c0.4-0.6,1.1-1.1,1.8-1.4c0.8-0.3,1.7-0.5,2.8-0.5h5.5V90h-2.7V79.5h-2.5c-0.9,0-1.6,0.2-2.1,0.5
	c-0.5,0.3-0.7,0.8-0.7,1.4c0,0.6,0.2,1.1,0.6,1.4c0.4,0.3,1.1,0.5,1.9,0.5h3.1v2.1h-2.2l-3.5,4.7H1081.8z"/>
<path class="st1" d="M1074.3,90V74.7h-7v2.8c0,2.2-0.1,4-0.3,5.5c-0.2,1.5-0.5,2.7-1,3.7c-0.4,0.9-1,1.7-1.7,2.2
	c-0.7,0.5-1.6,0.9-2.6,1.1l-1-2.3c0.8-0.2,1.4-0.5,1.9-0.8c0.5-0.4,0.9-0.9,1.2-1.6c0.3-0.7,0.5-1.7,0.6-3c0.1-1.2,0.2-2.8,0.2-4.7
	v-5.4h12.6V90H1074.3z M1060.7,94.6v-7l2,0.1l1.1-0.3h16.3v7.2h-2.7V90h-13.9v4.6H1060.7z"/>
<path class="st1" d="M1039.8,90.2l-1-2.5c0.9-0.2,1.5-0.6,1.9-1.1c0.4-0.5,0.7-1.1,0.8-2c0.1-0.9,0.2-2,0.2-3.3v-4h10.3V90h-2.8
	V79.6h-4.9v1.7c0,1.4-0.1,2.5-0.2,3.5c-0.1,1-0.3,1.9-0.7,2.6c-0.3,0.7-0.8,1.3-1.4,1.7C1041.5,89.6,1040.7,90,1039.8,90.2z"/>
<path class="st1" d="M1024.3,90V77.3h2.7v8.6l6.9-8.6h2.5V90h-2.7v-8.7l-6.9,8.7H1024.3z"/>
<path class="st1" d="M1013.7,90.4c-0.9,0-1.7-0.2-2.3-0.5c-0.7-0.3-1.2-0.8-1.6-1.4c-0.4-0.6-0.6-1.3-0.6-2.1c0-0.7,0.2-1.3,0.5-1.9
	c0.4-0.6,0.9-1,1.6-1.4c0.7-0.4,1.7-0.6,2.9-0.7c1.2-0.1,2.6-0.1,4.2,0.1l0.1,1.9c-1.2-0.2-2.2-0.2-3-0.2c-0.8,0-1.5,0.1-2.1,0.3
	c-0.5,0.2-0.9,0.4-1.2,0.7c-0.2,0.3-0.4,0.6-0.4,1c0,0.6,0.2,1.1,0.7,1.4c0.4,0.3,1.1,0.5,1.8,0.5c0.7,0,1.2-0.1,1.8-0.4
	c0.5-0.2,0.9-0.6,1.2-1c0.3-0.4,0.5-0.9,0.5-1.5v-3.4c0-0.6-0.1-1.1-0.4-1.5c-0.2-0.4-0.6-0.7-1.1-1s-1.1-0.3-1.8-0.3
	c-0.7,0-1.3,0.1-2,0.3c-0.6,0.2-1.3,0.5-1.9,0.9l-0.8-2.1c0.8-0.5,1.6-0.9,2.5-1.1c0.9-0.2,1.7-0.3,2.5-0.3c1.2,0,2.2,0.2,3,0.6
	c0.8,0.4,1.5,0.9,1.9,1.7c0.5,0.7,0.7,1.7,0.7,2.8V90h-2.5v-1.5c-0.4,0.6-1,1.1-1.8,1.4C1015.4,90.2,1014.6,90.4,1013.7,90.4z"/>
<path class="st1" d="M994.8,90l4.6-6.4l-4.3-6.3h3.5l2.7,4.3l2.6-4.3h3.5l-4.2,6.2l4.5,6.4h-3.6l-2.9-4.5l-3,4.4L994.8,90z"/>
<path class="st1" d="M980.4,90V77.3h2.7v8.6l6.9-8.6h2.5V90h-2.7v-8.7l-6.9,8.7H980.4z"/>
<path class="st1" d="M957.3,90V72.1h2.8l7.3,11.9l-1.1,0l7-11.9h2.7V90h-2.8l0-14.1l0.6,0.2l-6.1,10.1h-2.1l-6.2-10.1l0.5-0.2
	l0,14.1H957.3z"/>
<path class="st1" d="M1131.3,58.4c-0.9,0-1.7-0.2-2.3-0.5c-0.7-0.3-1.2-0.8-1.6-1.4c-0.4-0.6-0.6-1.3-0.6-2.1c0-0.7,0.2-1.3,0.5-1.9
	c0.3-0.6,0.9-1,1.6-1.4c0.7-0.4,1.7-0.6,2.9-0.7c1.2-0.1,2.6-0.1,4.2,0.1l0.1,1.9c-1.2-0.2-2.2-0.2-3-0.2c-0.8,0-1.5,0.1-2.1,0.3
	c-0.5,0.2-0.9,0.4-1.2,0.7c-0.2,0.3-0.4,0.6-0.4,1c0,0.6,0.2,1.1,0.7,1.4c0.4,0.3,1,0.5,1.8,0.5c0.7,0,1.2-0.1,1.8-0.4
	c0.5-0.2,0.9-0.6,1.2-1c0.3-0.4,0.5-0.9,0.5-1.5v-3.4c0-0.6-0.1-1.1-0.4-1.5c-0.2-0.4-0.6-0.7-1.1-1c-0.5-0.2-1.1-0.3-1.8-0.3
	c-0.7,0-1.3,0.1-2,0.3c-0.6,0.2-1.3,0.5-1.9,0.9l-0.8-2.1c0.8-0.5,1.6-0.9,2.5-1.1c0.9-0.2,1.7-0.3,2.5-0.3c1.2,0,2.2,0.2,3,0.6
	c0.8,0.4,1.5,0.9,1.9,1.7c0.4,0.7,0.7,1.7,0.7,2.8V58h-2.5v-1.5c-0.4,0.6-1,1.1-1.8,1.4C1133.1,58.2,1132.3,58.4,1131.3,58.4z"/>
<path class="st1" d="M1113.3,58V45.3h6c1.4,0,2.6,0.3,3.4,0.8c0.9,0.5,1.3,1.4,1.3,2.5c0,0.5-0.1,1-0.4,1.4c-0.2,0.4-0.6,0.7-1,1
	c-0.4,0.3-0.9,0.5-1.5,0.6l-0.1-0.6c1.1,0.2,2,0.5,2.6,1.1c0.6,0.6,0.9,1.3,0.9,2.2c0,0.8-0.2,1.4-0.6,2c-0.4,0.6-1,1-1.7,1.3
	c-0.8,0.3-1.7,0.4-2.7,0.4H1113.3z M1116,55.9h3.2c0.8,0,1.5-0.1,1.9-0.4c0.5-0.3,0.7-0.7,0.7-1.3c0-0.6-0.2-1-0.7-1.2
	c-0.5-0.3-1.1-0.4-2-0.4h-3.6v-2h3.3c0.8,0,1.4-0.1,1.8-0.4c0.4-0.2,0.7-0.6,0.7-1.2s-0.2-1-0.7-1.2c-0.4-0.3-1.1-0.4-1.8-0.4h-2.9
	V55.9z"/>
<path class="st1" d="M1104.4,58.4c-1.4,0-2.6-0.3-3.6-0.8c-1-0.6-1.8-1.3-2.4-2.4c-0.6-1-0.9-2.2-0.9-3.5c0-1,0.2-1.9,0.5-2.7
	c0.3-0.8,0.8-1.5,1.4-2.2c0.6-0.6,1.3-1.1,2.1-1.4c0.8-0.3,1.7-0.5,2.7-0.5c1.1,0,2,0.2,2.8,0.6c0.8,0.4,1.5,0.9,2,1.6
	c0.5,0.7,0.9,1.4,1.2,2.3c0.2,0.9,0.3,1.9,0.1,2.9h-10.1c0,0.8,0.1,1.4,0.5,2c0.3,0.6,0.8,1,1.5,1.3c0.7,0.3,1.4,0.5,2.3,0.5
	c0.7,0,1.4-0.1,2.1-0.3c0.7-0.2,1.3-0.5,1.8-1l1.1,2c-0.4,0.3-0.9,0.6-1.5,0.9c-0.6,0.2-1.2,0.4-1.8,0.5
	C1105.6,58.3,1105,58.4,1104.4,58.4z M1100.4,50.2h7.2c0-1-0.3-1.7-0.9-2.3c-0.6-0.5-1.4-0.8-2.5-0.8c-1,0-1.9,0.3-2.6,0.8
	C1100.9,48.5,1100.5,49.3,1100.4,50.2z"/>
<path class="st1" d="M1086.2,63.7c-0.5,0-0.9-0.1-1.4-0.2c-0.4-0.1-0.9-0.3-1.3-0.5l0.6-2.4c0.3,0.2,0.6,0.3,0.9,0.4
	c0.3,0.1,0.6,0.1,0.8,0.1c0.6,0,1.1-0.1,1.4-0.4c0.3-0.3,0.6-0.7,0.8-1.3l0.4-1.2l-5-12.9h3.1l3.5,9.8l3.4-9.8h3l-5.5,14.5
	c-0.4,1-0.8,1.8-1.3,2.4c-0.5,0.6-1,1-1.6,1.2C1087.5,63.6,1086.9,63.7,1086.2,63.7z"/>
<path class="st1" d="M1075.7,58.4c-1.1,0-2-0.2-2.9-0.6c-0.9-0.4-1.6-0.9-2.2-1.6c-0.6-0.7-1.1-1.6-1.4-2.6c-0.3-1-0.5-2.2-0.5-3.4
	c0-1.4,0.1-2.7,0.3-3.8c0.2-1.1,0.6-2.1,1-2.9c0.5-0.8,1.1-1.5,1.9-2c0.8-0.5,1.7-0.9,2.9-1.1l6.1-1.2l0.5,2.4l-5.9,1.1
	c-1,0.2-1.8,0.5-2.3,1c-0.6,0.5-1,1-1.2,1.7c-0.3,0.7-0.4,1.5-0.5,2.5c0.5-0.7,1.2-1.3,2-1.7c0.8-0.4,1.7-0.7,2.8-0.7
	c1.2,0,2.3,0.3,3.2,0.9c0.9,0.6,1.7,1.3,2.2,2.3c0.5,0.9,0.8,2,0.8,3.2c0,0.9-0.2,1.7-0.5,2.5c-0.3,0.8-0.8,1.5-1.3,2.1
	c-0.6,0.6-1.3,1.1-2.1,1.4C1077.5,58.2,1076.6,58.4,1075.7,58.4z M1075.6,55.9c0.7,0,1.4-0.2,2-0.5c0.6-0.3,1.1-0.8,1.4-1.4
	c0.3-0.6,0.5-1.3,0.5-2.2s-0.2-1.5-0.5-2.1c-0.3-0.6-0.8-1.1-1.4-1.4c-0.6-0.3-1.2-0.5-2-0.5c-0.7,0-1.4,0.2-2,0.5
	c-0.6,0.3-1,0.8-1.4,1.4c-0.3,0.6-0.5,1.3-0.5,2.1s0.2,1.5,0.5,2.2c0.3,0.6,0.8,1.1,1.4,1.4C1074.2,55.7,1074.8,55.9,1075.6,55.9z"
	/>
<path class="st1" d="M1059,58.4c-0.9,0-1.7-0.2-2.3-0.5c-0.7-0.3-1.2-0.8-1.6-1.4c-0.4-0.6-0.6-1.3-0.6-2.1c0-0.7,0.2-1.3,0.5-1.9
	c0.3-0.6,0.9-1,1.6-1.4c0.7-0.4,1.7-0.6,2.9-0.7c1.2-0.1,2.6-0.1,4.2,0.1l0.1,1.9c-1.2-0.2-2.2-0.2-3-0.2c-0.8,0-1.5,0.1-2.1,0.3
	c-0.5,0.2-0.9,0.4-1.2,0.7c-0.2,0.3-0.4,0.6-0.4,1c0,0.6,0.2,1.1,0.7,1.4c0.4,0.3,1.1,0.5,1.8,0.5c0.7,0,1.2-0.1,1.8-0.4
	c0.5-0.2,0.9-0.6,1.2-1c0.3-0.4,0.5-0.9,0.5-1.5v-3.4c0-0.6-0.1-1.1-0.4-1.5c-0.2-0.4-0.6-0.7-1.1-1c-0.5-0.2-1.1-0.3-1.8-0.3
	c-0.7,0-1.3,0.1-2,0.3c-0.6,0.2-1.3,0.5-1.9,0.9l-0.8-2.1c0.8-0.5,1.6-0.9,2.5-1.1c0.9-0.2,1.7-0.3,2.5-0.3c1.2,0,2.2,0.2,3,0.6
	c0.8,0.4,1.5,0.9,1.9,1.7c0.5,0.7,0.7,1.7,0.7,2.8V58h-2.5v-1.5c-0.4,0.6-1,1.1-1.8,1.4C1060.7,58.2,1059.9,58.4,1059,58.4z"/>
<path class="st1" d="M1043.6,58V40.1h10.2v2.6h-7.3V58H1043.6z"/>
<path class="st1" d="M1026.3,58.4c-0.9,0-1.7-0.2-2.3-0.5c-0.7-0.3-1.2-0.8-1.6-1.4c-0.4-0.6-0.6-1.3-0.6-2.1c0-0.7,0.2-1.3,0.5-1.9
	c0.4-0.6,0.9-1,1.6-1.4c0.7-0.4,1.7-0.6,2.9-0.7c1.2-0.1,2.6-0.1,4.2,0.1l0.1,1.9c-1.2-0.2-2.2-0.2-3-0.2c-0.8,0-1.5,0.1-2.1,0.3
	c-0.5,0.2-0.9,0.4-1.2,0.7c-0.2,0.3-0.4,0.6-0.4,1c0,0.6,0.2,1.1,0.7,1.4c0.4,0.3,1.1,0.5,1.8,0.5c0.7,0,1.2-0.1,1.8-0.4
	c0.5-0.2,0.9-0.6,1.2-1c0.3-0.4,0.5-0.9,0.5-1.5v-3.4c0-0.6-0.1-1.1-0.4-1.5c-0.2-0.4-0.6-0.7-1.1-1c-0.5-0.2-1.1-0.3-1.8-0.3
	c-0.7,0-1.3,0.1-2,0.3c-0.7,0.2-1.3,0.5-1.9,0.9l-0.8-2.1c0.8-0.5,1.6-0.9,2.5-1.1c0.9-0.2,1.7-0.3,2.5-0.3c1.2,0,2.2,0.2,3,0.6
	c0.8,0.4,1.5,0.9,1.9,1.7c0.5,0.7,0.7,1.7,0.7,2.8V58h-2.5v-1.5c-0.4,0.6-1,1.1-1.8,1.4C1028.1,58.2,1027.3,58.4,1026.3,58.4z"/>
<path class="st1" d="M1006.9,58V45.3h2.8v4.9h6.4v-4.9h2.8V58h-2.8v-5.5h-6.4V58H1006.9z"/>
<path class="st1" d="M990.9,58V45.3h2.7v8.6l6.9-8.6h2.5V58h-2.7v-8.7l-6.9,8.7H990.9z"/>
<path class="st1" d="M974.8,58.2l-1-2.5c0.9-0.2,1.5-0.6,1.9-1.1c0.4-0.5,0.7-1.1,0.8-2c0.1-0.9,0.2-2,0.2-3.3v-4H987V58h-2.8V47.6
	h-4.9v1.7c0,1.4-0.1,2.5-0.2,3.5c-0.1,1-0.3,1.9-0.7,2.6c-0.3,0.7-0.8,1.3-1.4,1.7C976.5,57.6,975.7,58,974.8,58.2z"/>
<path class="st1" d="M955.3,58l7-17.9h3.1l7.2,17.9h-3.2l-1.7-4.3H960l-1.6,4.3H955.3z M960.8,51.2h6.1l-3.1-7.8L960.8,51.2z"/>
<path class="st1" d="M1346.5,58l-7.3-9.5l6.5-8.5h3.5l-6.6,8.5l7.5,9.5H1346.5z M1335.3,58V40.1h2.9v7.1h3.3v2.6h-3.3V58H1335.3z"/>
<path class="st1" d="M1352.9,63.7c-0.5,0-0.9-0.1-1.4-0.2c-0.4-0.1-0.9-0.3-1.3-0.5l0.6-2.4c0.3,0.2,0.6,0.3,0.9,0.4
	c0.3,0.1,0.6,0.1,0.9,0.1c0.6,0,1.1-0.1,1.4-0.4c0.4-0.3,0.6-0.7,0.8-1.3l0.4-1.2l-5-12.9h3.1l3.5,9.8l3.4-9.8h3l-5.5,14.5
	c-0.4,1-0.8,1.8-1.3,2.4c-0.5,0.6-1,1-1.6,1.2C1354.2,63.6,1353.5,63.7,1352.9,63.7z"/>
<path class="st1" d="M1365.4,63.4V45.3h2.5v1.8c0.5-0.6,1.2-1.2,1.9-1.6c0.8-0.4,1.8-0.6,2.9-0.6c1.2,0,2.3,0.3,3.3,0.9
	c1,0.6,1.7,1.4,2.2,2.4c0.5,1,0.8,2.2,0.8,3.4c0,0.9-0.2,1.8-0.5,2.6c-0.3,0.8-0.8,1.5-1.3,2.1c-0.6,0.6-1.2,1.1-2,1.4
	c-0.8,0.3-1.6,0.5-2.6,0.5c-1,0-1.9-0.2-2.6-0.5c-0.8-0.4-1.4-0.8-1.9-1.4v7H1365.4z M1372.3,55.9c0.8,0,1.5-0.2,2.1-0.5
	c0.6-0.4,1.1-0.8,1.4-1.5c0.3-0.6,0.5-1.4,0.5-2.2c0-0.9-0.2-1.6-0.5-2.2c-0.4-0.6-0.8-1.1-1.5-1.5s-1.3-0.5-2.1-0.5
	s-1.5,0.2-2.1,0.5c-0.6,0.3-1.1,0.8-1.4,1.5c-0.3,0.6-0.5,1.4-0.5,2.2c0,0.9,0.2,1.6,0.5,2.2c0.3,0.6,0.8,1.1,1.4,1.5
	C1370.8,55.7,1371.5,55.9,1372.3,55.9z"/>
<path class="st1" d="M1385.5,58.4c-0.9,0-1.7-0.2-2.3-0.5c-0.7-0.3-1.2-0.8-1.6-1.4c-0.4-0.6-0.6-1.3-0.6-2.1c0-0.7,0.2-1.3,0.5-1.9
	c0.3-0.6,0.9-1,1.6-1.4c0.7-0.4,1.7-0.6,2.8-0.7c1.2-0.1,2.6-0.1,4.2,0.1l0,1.9c-1.2-0.2-2.2-0.2-3-0.2c-0.8,0-1.5,0.1-2.1,0.3
	c-0.5,0.2-0.9,0.4-1.2,0.7c-0.2,0.3-0.4,0.6-0.4,1c0,0.6,0.2,1.1,0.7,1.4c0.4,0.3,1.1,0.5,1.8,0.5c0.6,0,1.2-0.1,1.8-0.4
	c0.5-0.2,0.9-0.6,1.2-1c0.3-0.4,0.5-0.9,0.5-1.5v-3.4c0-0.6-0.1-1.1-0.4-1.5c-0.2-0.4-0.6-0.7-1.1-1c-0.5-0.2-1.1-0.3-1.8-0.3
	c-0.7,0-1.3,0.1-2,0.3c-0.7,0.2-1.3,0.5-1.9,0.9l-0.8-2.1c0.8-0.5,1.6-0.9,2.5-1.1s1.7-0.3,2.5-0.3c1.2,0,2.2,0.2,3,0.6
	c0.8,0.4,1.5,0.9,1.9,1.7c0.5,0.7,0.7,1.7,0.7,2.8V58h-2.5v-1.5c-0.4,0.6-1,1.1-1.8,1.4C1387.3,58.2,1386.4,58.4,1385.5,58.4z"/>
<path class="st1" d="M1398.5,58V47.6h-4.2v-2.3h11.2v2.3h-4.2V58H1398.5z"/>
<path class="st1" d="M1413.9,58.4c-1.3,0-2.5-0.3-3.5-0.9c-1-0.6-1.9-1.4-2.4-2.4c-0.6-1-0.9-2.1-0.9-3.4c0-0.9,0.2-1.8,0.5-2.6
	c0.3-0.8,0.8-1.5,1.4-2.2c0.6-0.6,1.3-1.1,2.2-1.5c0.8-0.4,1.8-0.5,2.8-0.5c1.3,0,2.5,0.3,3.5,0.9c1,0.6,1.9,1.4,2.4,2.4
	c0.6,1,0.9,2.1,0.9,3.4c0,0.9-0.2,1.8-0.5,2.6s-0.8,1.5-1.4,2.2c-0.6,0.6-1.4,1.1-2.2,1.5C1415.8,58.2,1414.9,58.4,1413.9,58.4z
	 M1413.9,55.9c0.8,0,1.5-0.2,2.1-0.5c0.6-0.4,1.1-0.8,1.5-1.5c0.3-0.6,0.5-1.4,0.5-2.2c0-0.9-0.2-1.6-0.5-2.2
	c-0.3-0.6-0.8-1.1-1.5-1.5c-0.6-0.3-1.3-0.5-2.1-0.5c-0.8,0-1.5,0.2-2.1,0.5s-1.1,0.8-1.4,1.5c-0.3,0.6-0.5,1.4-0.5,2.2
	c0,0.9,0.2,1.6,0.5,2.2c0.4,0.6,0.8,1.1,1.4,1.5C1412.4,55.7,1413.1,55.9,1413.9,55.9z"/>
<path class="st1" d="M1423.6,63.4V45.3h2.5v1.8c0.5-0.6,1.2-1.2,1.9-1.6c0.8-0.4,1.8-0.6,2.9-0.6c1.2,0,2.3,0.3,3.3,0.9
	c1,0.6,1.7,1.4,2.2,2.4c0.5,1,0.8,2.2,0.8,3.4c0,0.9-0.2,1.8-0.5,2.6c-0.3,0.8-0.8,1.5-1.3,2.1c-0.6,0.6-1.2,1.1-2,1.4
	c-0.8,0.3-1.6,0.5-2.6,0.5c-1,0-1.9-0.2-2.6-0.5c-0.8-0.4-1.4-0.8-1.9-1.4v7H1423.6z M1430.4,55.9c0.8,0,1.5-0.2,2.1-0.5
	c0.6-0.4,1.1-0.8,1.4-1.5c0.3-0.6,0.5-1.4,0.5-2.2c0-0.9-0.2-1.6-0.5-2.2c-0.3-0.6-0.8-1.1-1.4-1.5s-1.3-0.5-2.1-0.5
	c-0.8,0-1.5,0.2-2.1,0.5s-1.1,0.8-1.4,1.5c-0.3,0.6-0.5,1.4-0.5,2.2c0,0.9,0.2,1.6,0.5,2.2c0.3,0.6,0.8,1.1,1.4,1.5
	C1429,55.7,1429.7,55.9,1430.4,55.9z"/>
<path class="st1" d="M1440.1,58V45.3h2.8v10.5h2.3c0.9,0,1.6-0.2,2.1-0.5c0.5-0.4,0.7-0.9,0.7-1.6c0-0.7-0.2-1.2-0.7-1.6
	c-0.4-0.4-1.1-0.6-1.9-0.6h-2.9v-2.1h3.1c1.6,0,2.9,0.4,3.9,1.1c0.9,0.7,1.4,1.8,1.4,3.2c0,0.9-0.2,1.7-0.7,2.3
	c-0.5,0.6-1.1,1.1-1.9,1.5c-0.8,0.3-1.8,0.5-2.9,0.5H1440.1z M1453,58V45.3h2.8V58H1453z"/>
<path class="st1" d="M1461.6,48.6c-0.6,0-1-0.2-1.4-0.5c-0.4-0.4-0.6-0.8-0.6-1.4c0-0.4,0.1-0.7,0.3-1c0.2-0.3,0.4-0.5,0.7-0.7
	c0.3-0.2,0.7-0.2,1-0.2c0.5,0,1,0.2,1.4,0.5c0.4,0.3,0.6,0.8,0.6,1.4c0,0.4-0.1,0.7-0.3,1c-0.2,0.3-0.4,0.5-0.7,0.7
	C1462.3,48.5,1461.9,48.6,1461.6,48.6z M1461.6,58.4c-0.6,0-1-0.2-1.4-0.5c-0.4-0.4-0.6-0.8-0.6-1.4c0-0.4,0.1-0.7,0.3-1
	c0.2-0.3,0.4-0.5,0.7-0.7c0.3-0.2,0.7-0.2,1-0.2c0.5,0,1,0.2,1.4,0.5c0.4,0.3,0.6,0.8,0.6,1.4c0,0.4-0.1,0.7-0.3,1
	c-0.2,0.3-0.4,0.5-0.7,0.7C1462.3,58.3,1461.9,58.4,1461.6,58.4z"/>
<path class="st1" d="M1343.5,90.4c-1.9,0-3.5-0.4-4.9-1.2c-1.4-0.8-2.5-1.9-3.2-3.3c-0.8-1.4-1.2-3.1-1.2-4.9c0-1.4,0.2-2.6,0.7-3.8
	c0.5-1.1,1.1-2.1,1.9-3c0.8-0.8,1.8-1.5,3-1.9c1.1-0.5,2.4-0.7,3.7-0.7c1.4,0,2.5,0.2,3.5,0.5c1,0.3,1.9,0.8,2.6,1.5l-1.5,2.3
	c-0.6-0.5-1.2-0.9-2-1.2c-0.8-0.3-1.6-0.4-2.5-0.4c-1,0-1.9,0.2-2.7,0.5c-0.8,0.3-1.5,0.7-2.1,1.3c-0.6,0.6-1,1.3-1.3,2.1
	c-0.3,0.8-0.5,1.7-0.5,2.7c0,1.4,0.3,2.6,0.8,3.5c0.5,1,1.3,1.7,2.3,2.3c1,0.5,2.2,0.8,3.5,0.8c0.9,0,1.8-0.1,2.6-0.4
	c0.8-0.3,1.6-0.7,2.4-1.3l1.3,2.4c-0.9,0.7-1.8,1.2-3,1.6C1346.1,90.2,1344.9,90.4,1343.5,90.4z"/>
<path class="st1" d="M1358.6,90.4c-1.3,0-2.5-0.3-3.6-0.9c-1-0.6-1.8-1.4-2.4-2.4c-0.6-1-0.9-2.1-0.9-3.4c0-0.9,0.2-1.8,0.5-2.6
	c0.3-0.8,0.8-1.5,1.4-2.2c0.6-0.6,1.4-1.1,2.2-1.5c0.8-0.4,1.8-0.5,2.8-0.5c1.3,0,2.5,0.3,3.5,0.9c1,0.6,1.9,1.4,2.4,2.4
	c0.6,1,0.9,2.1,0.9,3.4c0,0.9-0.2,1.8-0.5,2.6c-0.3,0.8-0.8,1.5-1.4,2.2c-0.6,0.6-1.3,1.1-2.2,1.5
	C1360.6,90.2,1359.6,90.4,1358.6,90.4z M1358.6,87.9c0.8,0,1.5-0.2,2.1-0.5c0.6-0.4,1.1-0.8,1.5-1.5c0.3-0.6,0.5-1.4,0.5-2.2
	c0-0.9-0.2-1.6-0.5-2.2c-0.3-0.6-0.8-1.1-1.5-1.5s-1.3-0.5-2.1-0.5s-1.5,0.2-2.1,0.5s-1.1,0.8-1.4,1.5c-0.3,0.6-0.5,1.4-0.5,2.2
	c0,0.9,0.2,1.6,0.5,2.2c0.3,0.6,0.8,1.1,1.4,1.5C1357.2,87.7,1357.8,87.9,1358.6,87.9z"/>
<path class="st1" d="M1374.8,95.4V71.5h2.8v23.8H1374.8z M1376.2,90.3c-1.8,0-3.3-0.3-4.7-0.8c-1.3-0.5-2.4-1.3-3.1-2.3
	c-0.7-1-1.1-2.2-1.1-3.7c0-1.5,0.4-2.7,1.1-3.7c0.7-1,1.8-1.7,3.1-2.2c1.3-0.5,2.9-0.8,4.7-0.8c1.8,0,3.4,0.3,4.7,0.8
	c1.3,0.5,2.4,1.3,3.1,2.2c0.7,1,1.1,2.2,1.1,3.7c0,1.1-0.2,2-0.6,2.9c-0.4,0.8-1,1.5-1.8,2.1c-0.8,0.6-1.7,1-2.8,1.3
	C1378.8,90.2,1377.6,90.3,1376.2,90.3z M1376.3,88c1.3,0,2.4-0.2,3.3-0.5c0.9-0.3,1.6-0.8,2.1-1.4c0.5-0.6,0.7-1.4,0.7-2.4
	s-0.2-1.8-0.7-2.4c-0.5-0.6-1.2-1.1-2.1-1.4c-0.9-0.3-2-0.5-3.3-0.5c-1.3,0-2.4,0.2-3.3,0.5c-0.9,0.3-1.6,0.8-2.1,1.4
	c-0.5,0.6-0.7,1.4-0.7,2.4s0.2,1.8,0.7,2.4c0.5,0.6,1.2,1.1,2.1,1.4C1373.9,87.8,1375,88,1376.3,88z"/>
<path class="st1" d="M1388,90V77.3h2.8v10.5h2.4c0.9,0,1.6-0.2,2.1-0.5c0.5-0.4,0.7-0.9,0.7-1.6c0-0.7-0.2-1.2-0.7-1.6
	c-0.4-0.4-1.1-0.6-1.9-0.6h-3v-2.1h3.2c1.6,0,2.9,0.4,3.9,1.1c0.9,0.7,1.4,1.8,1.4,3.2c0,0.9-0.2,1.7-0.7,2.3
	c-0.5,0.6-1.1,1.1-1.9,1.5c-0.8,0.3-1.8,0.5-2.8,0.5H1388z"/>
<path class="st1" d="M1401,90l4.9-6.5l0.6,1.8c-1.1,0-2-0.1-2.7-0.5c-0.7-0.3-1.3-0.8-1.7-1.4c-0.4-0.6-0.6-1.3-0.6-2.1
	c0-0.9,0.2-1.6,0.6-2.2c0.4-0.6,1.1-1.1,1.9-1.4c0.8-0.3,1.7-0.5,2.8-0.5h5.5V90h-2.7V79.5h-2.5c-0.9,0-1.6,0.2-2.1,0.5
	c-0.5,0.3-0.7,0.8-0.7,1.4c0,0.6,0.2,1.1,0.6,1.4c0.4,0.3,1.1,0.5,1.9,0.5h3.1v2.1h-2.2l-3.5,4.7H1401z"/>
<path class="st1" d="M1434,90l-7.3-9.5l6.5-8.5h3.5l-6.6,8.5l7.5,9.5H1434z M1422.9,90V72.1h2.9v7.1h3.3v2.6h-3.3V90H1422.9z"/>
<path class="st1" d="M1443.9,90.4c-0.9,0-1.7-0.2-2.3-0.5c-0.7-0.3-1.2-0.8-1.6-1.4c-0.4-0.6-0.5-1.3-0.5-2.1c0-0.7,0.2-1.3,0.5-1.9
	c0.4-0.6,0.9-1,1.6-1.4c0.7-0.4,1.7-0.6,2.8-0.7c1.2-0.1,2.6-0.1,4.2,0.1l0.1,1.9c-1.2-0.2-2.2-0.2-3-0.2c-0.8,0-1.5,0.1-2.1,0.3
	c-0.5,0.2-0.9,0.4-1.2,0.7c-0.2,0.3-0.4,0.6-0.4,1c0,0.6,0.2,1.1,0.7,1.4c0.4,0.3,1.1,0.5,1.8,0.5c0.6,0,1.2-0.1,1.8-0.4
	c0.5-0.2,0.9-0.6,1.2-1c0.3-0.4,0.5-0.9,0.5-1.5v-3.4c0-0.6-0.1-1.1-0.4-1.5c-0.2-0.4-0.6-0.7-1.1-1c-0.5-0.2-1.1-0.3-1.8-0.3
	c-0.7,0-1.3,0.1-2,0.3c-0.7,0.2-1.3,0.5-1.8,0.9l-0.8-2.1c0.8-0.5,1.6-0.9,2.5-1.1c0.9-0.2,1.7-0.3,2.5-0.3c1.2,0,2.2,0.2,3,0.6
	c0.8,0.4,1.5,0.9,2,1.7c0.4,0.7,0.7,1.7,0.7,2.8V90h-2.5v-1.5c-0.4,0.6-1,1.1-1.8,1.4C1445.7,90.2,1444.8,90.4,1443.9,90.4z"/>
<path class="st1" d="M1460.3,90.4c-1.4,0-2.6-0.3-3.6-0.8c-1-0.6-1.8-1.3-2.4-2.4c-0.6-1-0.9-2.2-0.9-3.5c0-1,0.2-1.9,0.5-2.7
	c0.3-0.8,0.8-1.5,1.4-2.2c0.6-0.6,1.3-1.1,2.1-1.4c0.8-0.3,1.7-0.5,2.7-0.5c1.1,0,2,0.2,2.8,0.6c0.8,0.4,1.5,0.9,2,1.6
	c0.6,0.7,0.9,1.4,1.2,2.3c0.2,0.9,0.3,1.9,0.1,2.9h-10.1c0,0.8,0.2,1.4,0.5,2c0.3,0.6,0.8,1,1.5,1.3c0.7,0.3,1.4,0.5,2.3,0.5
	c0.7,0,1.4-0.1,2.1-0.3c0.7-0.2,1.3-0.5,1.8-1l1.1,2c-0.4,0.3-0.9,0.6-1.5,0.9c-0.6,0.2-1.2,0.4-1.8,0.5
	C1461.5,90.3,1460.9,90.4,1460.3,90.4z M1456.3,82.2h7.2c0-1-0.3-1.7-0.9-2.3c-0.6-0.5-1.4-0.8-2.5-0.8c-1.1,0-1.9,0.3-2.6,0.8
	C1456.8,80.5,1456.4,81.3,1456.3,82.2z"/>
<path class="st1" d="M1469.2,90V77.3h2.5l5.7,8.2l-1.2,0l5.4-8.3h2.5V90h-2.6l0-9.4l0.5,0.2l-4.5,6.6h-1.8l-4.7-6.6l0.5-0.2l0,9.4
	H1469.2z"/>
<path class="st1" d="M1333.3,122l7-17.9h3.1l7.2,17.9h-3.2l-1.7-4.3h-7.6l-1.6,4.3H1333.3z M1338.8,115.2h6.1l-3.1-7.8L1338.8,115.2
	z"/>
<path class="st1" d="M1352.7,122v-12.7h2.8v4.9h6.4v-4.9h2.8V122h-2.8v-5.5h-6.4v5.5H1352.7z"/>
<path class="st1" d="M1368.7,122v-12.7h2.8v4.9h6.3v-4.9h2.8V122h-2.8v-5.5h-6.3v5.5H1368.7z"/>
<path class="st1" d="M1388.1,122.4c-0.9,0-1.7-0.2-2.3-0.5c-0.7-0.3-1.2-0.8-1.6-1.4c-0.4-0.6-0.5-1.3-0.5-2.1
	c0-0.7,0.2-1.3,0.5-1.9c0.4-0.6,0.9-1,1.6-1.4c0.7-0.4,1.7-0.6,2.9-0.7c1.2-0.1,2.6-0.1,4.2,0.1l0.1,1.9c-1.2-0.2-2.2-0.2-3-0.2
	c-0.8,0-1.5,0.1-2.1,0.3c-0.5,0.2-0.9,0.4-1.2,0.7c-0.2,0.3-0.4,0.6-0.4,1c0,0.6,0.2,1.1,0.6,1.4c0.4,0.3,1.1,0.5,1.8,0.5
	c0.7,0,1.2-0.1,1.8-0.4c0.5-0.2,0.9-0.6,1.2-1c0.3-0.4,0.5-0.9,0.5-1.5v-3.4c0-0.6-0.1-1.1-0.4-1.5c-0.2-0.4-0.6-0.7-1.1-1
	c-0.5-0.2-1.1-0.3-1.8-0.3c-0.7,0-1.3,0.1-2,0.3c-0.7,0.2-1.3,0.5-1.9,0.9l-0.8-2.1c0.8-0.5,1.6-0.9,2.5-1.1
	c0.9-0.2,1.7-0.3,2.5-0.3c1.2,0,2.2,0.2,3,0.6c0.8,0.4,1.5,0.9,2,1.7c0.4,0.7,0.7,1.7,0.7,2.8v8.1h-2.5v-1.5c-0.4,0.6-1,1.1-1.8,1.4
	C1389.9,122.2,1389,122.4,1388.1,122.4z"/>
<path class="st1" d="M1416.5,122l-7.3-9.5l6.5-8.5h3.5l-6.6,8.5l7.5,9.5H1416.5z M1405.4,122v-17.9h2.9v7.1h3.3v2.6h-3.3v8.2H1405.4
	z"/>
<path class="st1" d="M1427.8,122.4c-1.3,0-2.5-0.3-3.5-0.9c-1-0.6-1.8-1.4-2.4-2.4c-0.6-1-0.9-2.1-0.9-3.4c0-0.9,0.2-1.8,0.5-2.6
	c0.3-0.8,0.8-1.5,1.4-2.2c0.6-0.6,1.4-1.1,2.2-1.5c0.8-0.4,1.8-0.5,2.8-0.5c1.3,0,2.5,0.3,3.5,0.9c1.1,0.6,1.9,1.4,2.4,2.4
	c0.6,1,0.9,2.1,0.9,3.4c0,0.9-0.2,1.8-0.5,2.6c-0.3,0.8-0.8,1.5-1.4,2.2c-0.6,0.6-1.3,1.1-2.2,1.5
	C1429.8,122.2,1428.8,122.4,1427.8,122.4z M1427.8,119.9c0.8,0,1.5-0.2,2.1-0.5c0.6-0.3,1.1-0.8,1.4-1.5c0.3-0.6,0.5-1.4,0.5-2.2
	s-0.2-1.6-0.5-2.2c-0.3-0.6-0.8-1.1-1.4-1.5c-0.6-0.3-1.3-0.5-2.1-0.5c-0.8,0-1.5,0.2-2.1,0.5c-0.6,0.3-1.1,0.8-1.4,1.5
	c-0.3,0.6-0.5,1.4-0.5,2.2s0.2,1.6,0.5,2.2c0.3,0.6,0.8,1.1,1.4,1.5C1426.4,119.7,1427.1,119.9,1427.8,119.9z"/>
<path class="st1" d="M1437.5,122v-12.7h2.5l5.7,8.2l-1.2,0l5.4-8.3h2.5V122h-2.6l0-9.4l0.5,0.2l-4.5,6.6h-1.8l-4.7-6.6l0.5-0.2
	l0,9.4H1437.5z"/>
<path class="st1" d="M1464.8,122l-4.2-6.7l3.9-5.9h3l-3.9,5.8l4.5,6.9H1464.8z M1456.4,122v-12.7h2.8v4.9h3.8v2.3h-3.8v5.5H1456.4z"
	/>
<path class="st1" d="M1476.2,122.4c-1.3,0-2.5-0.3-3.6-0.9c-1-0.6-1.8-1.4-2.4-2.4c-0.6-1-0.9-2.1-0.9-3.4c0-0.9,0.2-1.8,0.5-2.6
	c0.3-0.8,0.8-1.5,1.4-2.2c0.6-0.6,1.3-1.1,2.2-1.5c0.8-0.4,1.8-0.5,2.8-0.5c1.3,0,2.5,0.3,3.5,0.9c1,0.6,1.9,1.4,2.5,2.4
	c0.6,1,0.9,2.1,0.9,3.4c0,0.9-0.2,1.8-0.5,2.6c-0.3,0.8-0.8,1.5-1.4,2.2c-0.6,0.6-1.3,1.1-2.2,1.5
	C1478.1,122.2,1477.2,122.4,1476.2,122.4z M1476.2,119.9c0.8,0,1.5-0.2,2.1-0.5c0.6-0.3,1.1-0.8,1.4-1.5c0.3-0.6,0.5-1.4,0.5-2.2
	s-0.2-1.6-0.5-2.2c-0.3-0.6-0.8-1.1-1.4-1.5c-0.6-0.3-1.3-0.5-2.1-0.5c-0.8,0-1.5,0.2-2.1,0.5c-0.6,0.3-1.1,0.8-1.4,1.5
	c-0.3,0.6-0.5,1.4-0.5,2.2s0.2,1.6,0.5,2.2c0.3,0.6,0.8,1.1,1.4,1.5C1474.7,119.7,1475.4,119.9,1476.2,119.9z"/>
<path class="st1" d="M1485.9,122v-12.7h6c1.4,0,2.6,0.3,3.5,0.8c0.9,0.5,1.3,1.4,1.3,2.5c0,0.5-0.1,1-0.4,1.4c-0.2,0.4-0.6,0.7-1,1
	c-0.4,0.3-1,0.5-1.5,0.6l-0.1-0.6c1.1,0.2,2,0.5,2.6,1.1c0.6,0.6,0.9,1.3,0.9,2.2c0,0.8-0.2,1.4-0.6,2c-0.4,0.6-1,1-1.7,1.3
	c-0.8,0.3-1.7,0.4-2.7,0.4H1485.9z M1488.6,119.9h3.2c0.8,0,1.5-0.1,1.9-0.4c0.5-0.3,0.7-0.7,0.7-1.3c0-0.6-0.2-1-0.7-1.2
	c-0.5-0.3-1.1-0.4-2-0.4h-3.6v-2h3.3c0.8,0,1.4-0.1,1.8-0.4c0.4-0.2,0.7-0.6,0.7-1.2c0-0.6-0.2-1-0.7-1.2c-0.4-0.3-1.1-0.4-1.8-0.4
	h-2.9V119.9z"/>
<path class="st1" d="M1503.9,122.4c-0.9,0-1.7-0.2-2.3-0.5c-0.7-0.3-1.2-0.8-1.6-1.4c-0.4-0.6-0.6-1.3-0.6-2.1
	c0-0.7,0.2-1.3,0.5-1.9c0.3-0.6,0.9-1,1.6-1.4c0.7-0.4,1.7-0.6,2.8-0.7c1.2-0.1,2.6-0.1,4.2,0.1l0.1,1.9c-1.2-0.2-2.2-0.2-3-0.2
	c-0.8,0-1.5,0.1-2.1,0.3c-0.5,0.2-0.9,0.4-1.2,0.7c-0.2,0.3-0.4,0.6-0.4,1c0,0.6,0.2,1.1,0.7,1.4c0.4,0.3,1,0.5,1.8,0.5
	c0.7,0,1.2-0.1,1.8-0.4c0.5-0.2,0.9-0.6,1.2-1c0.3-0.4,0.5-0.9,0.5-1.5v-3.4c0-0.6-0.1-1.1-0.4-1.5c-0.2-0.4-0.6-0.7-1.1-1
	c-0.5-0.2-1.1-0.3-1.8-0.3c-0.7,0-1.3,0.1-2,0.3c-0.6,0.2-1.3,0.5-1.8,0.9l-0.8-2.1c0.8-0.5,1.6-0.9,2.5-1.1
	c0.9-0.2,1.7-0.3,2.5-0.3c1.2,0,2.2,0.2,3,0.6c0.8,0.4,1.5,0.9,1.9,1.7c0.4,0.7,0.7,1.7,0.7,2.8v8.1h-2.5v-1.5
	c-0.4,0.6-1,1.1-1.8,1.4C1505.7,122.2,1504.9,122.4,1503.9,122.4z"/>
</svg>
