<svg width="677" height="319" viewBox="0 0 677 319" fill="none" xmlns="http://www.w3.org/2000/svg">
<path d="M115.358 64.0459H-1V214.848H27.012V89.8984H115.358V64.0459Z" fill="white"/>
<path d="M152.099 64.0459L100.383 214.848H129.473L141.325 181.455L223.207 167.452L239.369 214.848H268.459L216.743 64.0459H152.101H152.099ZM149.945 154.526L172.569 89.8984H196.273L214.589 143.757L149.947 154.529L149.945 154.526Z" fill="white"/>
<path d="M495.77 120.058L551.583 80.4197L539.944 64.0459H416.044V88.8206H499.004L444.058 127.598L451.6 140.523H488.232C520.554 140.523 527.018 157.758 527.018 167.452C527.018 183.61 509.78 193.304 479.614 193.304C462.579 193.304 449.855 187.272 441.167 180.931L456.617 170.131L399.91 149.415V209.776L417.418 197.535C428.553 207.481 447.758 219.157 479.614 219.157C532.407 219.157 555.035 194.382 555.035 168.529C555.035 153.449 546.413 120.273 495.774 120.058H495.77Z" fill="white"/>
<path d="M283.5 214.848H311.512V89.8984H399.858V64.0459H283.5V214.848Z" fill="white"/>
<path d="M-26 254.025C-22.5963 253.962 -19.1837 253.838 -15.7799 253.838C32.1215 253.829 102.032 253.775 149.933 253.918C154.281 253.927 156.607 252.874 157.944 248.43C160.385 240.346 163.512 232.477 166.364 224.526C169.767 215.042 181.93 210.259 190.903 214.881C191.562 215.22 192.15 215.889 192.818 215.979C202.798 217.281 205.515 224.901 207.921 232.976C209.57 238.508 211.77 243.88 213.437 249.412C214.47 252.838 216.368 253.918 219.914 253.9C247.206 253.766 274.49 253.829 301.782 253.829C315.423 253.829 329.074 253.846 342.715 253.829C349.336 253.829 354.824 257.308 360.438 260.021C364.349 261.913 365.116 266.294 365.276 270.425C365.383 273.36 365.294 276.305 365.294 280.347C372.146 275.609 378.187 271.469 384.201 267.284C392.354 261.6 400.543 255.979 408.589 250.161C413.338 246.726 418.114 246.021 423.62 248.261C442.608 255.961 462.523 258.852 482.847 258.156C508.829 257.264 533.894 252.338 555.759 237.143C580.396 220.02 593.886 196.491 594.243 166.226C594.43 150.218 590.162 135.157 582.089 121.246C577.286 112.966 578.32 108.174 586.036 102.66C591.944 98.4309 597.842 94.1926 603.866 90.1149C606.325 88.4464 607.1 86.9563 604.899 84.4936C603.429 82.8429 602.262 80.9156 600.997 79.0865C596.292 72.332 597.263 66.2824 603.955 61.3571C609.212 57.4936 614.567 53.7728 619.869 49.9717C620.047 49.8468 620.056 49.472 620.332 48.6422C612.5 48.6422 604.846 48.7939 597.21 48.6065C585.591 48.321 575.112 45.1445 569.24 34.1607C564.678 25.6128 558.29 23.5427 548.792 23.5605C375.861 23.8818 180.932 23.7925 8.0015 23.7925C-3.37689 23.8014 -14.8176 23.1947 -26 26.2463V0.441822C-22.5963 0.370441 -19.1837 0.227677 -15.7799 0.227677C164.385 0.218755 366.559 0.183064 546.724 0.316905C555.688 0.316905 564.777 -1.44979 573.642 3.35954C577.465 5.42961 581.189 6.89293 583.675 10.5959C585.903 13.9151 588.442 17.047 590.527 20.4554C592.362 23.4535 594.679 24.6045 598.199 24.5599C610.352 24.3903 622.524 24.2387 634.677 24.5777C645.753 24.89 657.033 22.6147 667.788 28.0576C672.038 30.2079 675.736 32.0639 676.743 36.9C677.767 41.8075 675.665 45.4568 671.619 48.2853C660.562 56.0213 649.584 63.8644 638.58 71.6539C633.566 75.2051 632.812 79.5564 636.317 84.7078C641.779 92.7471 640.861 98.3506 633.011 104.106C628.11 107.702 623.085 111.128 618.158 114.679C609.978 120.577 611.341 118.748 614.701 126.885C622.702 146.239 625.919 166.243 622.069 186.935C614.505 227.605 590.073 254.944 552.463 269.979C513.124 285.7 472.725 286.334 432.281 273.343C429.1 272.325 426.57 272.111 423.603 274.208C402.459 289.234 381.19 304.09 359.957 319H352.837C350.209 317.358 347.536 315.975 344.435 315.181C338.741 313.727 335.944 309.774 335.846 303.715C335.739 297.05 335.819 290.385 335.81 283.711C335.804 279.547 333.648 277.462 329.341 277.456C295.856 277.456 262.363 277.572 228.878 277.376C218.97 277.322 208.955 278.955 199.305 274.056C195.09 271.915 191.535 270.086 189.878 265.562C188.951 263.037 187.98 260.53 186.679 257.059C185.396 260.476 184.478 262.805 183.641 265.152C180.139 274.966 176.664 277.447 166.239 277.447C111.414 277.447 34.5897 277.447 -20.2351 277.438C-22.1508 277.438 -24.0754 277.26 -25.9911 277.17C-25.9911 269.461 -25.9911 261.743 -25.9911 254.034L-26 254.025Z" fill="#FF5501"/>
</svg>
