<svg width="726" height="413" viewBox="0 0 726 413" fill="none" xmlns="http://www.w3.org/2000/svg">
<path d="M128.792 142.892H5.18262V303.091H34.9403V170.355H128.792V142.892Z" fill="#FF5501"/>
<path d="M167.827 142.892L112.888 303.091H143.791L156.381 267.617L243.366 252.741L260.535 303.091H291.438L236.499 142.892H167.829H167.827ZM165.539 239.011L189.572 170.355H214.754L234.211 227.57L165.541 239.013L165.539 239.011Z" fill="#FF5501"/>
<path d="M532.911 202.394L592.202 160.286L579.838 142.892H448.216V169.21H536.347L477.976 210.404L485.988 224.135H524.903C559.24 224.135 566.107 242.443 566.107 252.741C566.107 269.907 547.794 280.205 515.748 280.205C497.651 280.205 484.134 273.797 474.906 267.061L491.318 255.588L431.077 233.581V297.703L449.676 284.699C461.504 295.265 481.906 307.669 515.748 307.669C571.83 307.669 595.869 281.35 595.869 253.886C595.869 237.866 586.709 202.623 532.915 202.394H532.911Z" fill="#FF5501"/>
<path d="M307.417 303.091H337.175V170.355H431.026V142.892H307.417V303.091Z" fill="#FF5501"/>
<path d="M0 344.155C3.62768 344.089 7.26486 343.956 10.8925 343.956C61.946 343.947 113.009 343.89 164.062 344.041C168.697 344.051 171.175 342.935 172.6 338.227C175.202 329.662 178.535 321.323 181.574 312.9C185.202 302.85 198.164 297.782 207.728 302.68C208.43 303.039 209.057 303.748 209.769 303.842C220.405 305.223 223.302 313.297 225.866 321.853C227.623 327.714 229.968 333.406 231.744 339.267C232.846 342.897 234.869 344.041 238.648 344.023C267.736 343.881 296.815 343.947 325.903 343.947C340.442 343.947 354.99 343.966 369.53 343.947C376.586 343.947 382.436 347.634 388.418 350.508C392.587 352.512 393.404 357.154 393.575 361.532C393.689 364.642 393.594 367.762 393.594 372.045C400.897 367.024 407.335 362.638 413.746 358.204C422.435 352.181 431.162 346.225 439.738 340.061C444.799 336.421 449.889 335.675 455.758 338.048C475.995 346.206 497.22 349.27 518.882 348.532C546.574 347.587 573.288 342.368 596.592 326.268C622.85 308.125 637.228 283.195 637.608 251.126C637.807 234.165 633.258 218.207 624.654 203.468C619.536 194.694 620.637 189.617 628.861 183.775C635.158 179.294 641.444 174.803 647.864 170.482C650.485 168.714 651.311 167.136 648.966 164.526C647.399 162.777 646.155 160.735 644.806 158.797C639.792 151.64 640.827 145.23 647.959 140.012C653.562 135.918 659.269 131.976 664.92 127.948C665.11 127.816 665.119 127.419 665.414 126.539C657.066 126.539 648.909 126.7 640.77 126.502C628.387 126.199 617.219 122.833 610.96 111.195C606.098 102.138 599.289 99.9449 589.166 99.9638C404.857 100.304 220.548 100.21 36.2388 100.21C24.1117 100.219 11.9182 99.5762 0 102.81V75.4681C3.62768 75.3925 7.26486 75.2412 10.8925 75.2412C202.913 75.2318 394.942 75.194 586.963 75.3358C596.516 75.3358 606.203 73.4639 615.652 78.5596C619.726 80.753 623.695 82.3035 626.345 86.227C628.719 89.7439 631.425 93.0623 633.648 96.6738C635.604 99.8504 638.073 101.07 641.824 101.023C654.777 100.843 667.75 100.682 680.703 101.042C692.507 101.372 704.53 98.9617 715.992 104.729C720.522 107.007 724.463 108.974 725.536 114.098C726.628 119.298 724.387 123.164 720.076 126.161C708.291 134.358 696.591 142.668 684.863 150.922C679.519 154.684 678.715 159.295 682.45 164.753C688.272 173.271 687.294 179.208 678.927 185.306C673.704 189.116 668.348 192.747 663.096 196.51C654.379 202.759 655.832 200.821 659.412 209.443C667.94 229.949 671.368 251.145 667.265 273.069C659.203 316.161 633.163 345.129 593.078 361.059C551.151 377.717 508.094 378.388 464.989 364.623C461.599 363.545 458.902 363.318 455.739 365.54C433.204 381.461 410.536 397.202 387.906 413H380.318C377.516 411.26 374.667 409.795 371.363 408.954C365.294 407.413 362.312 403.224 362.208 396.805C362.094 389.743 362.179 382.681 362.17 375.609C362.164 371.197 359.865 368.988 355.275 368.982C319.587 368.982 283.89 369.104 248.202 368.896C237.642 368.84 226.967 370.57 216.683 365.379C212.191 363.11 208.402 361.172 206.635 356.379C205.648 353.704 204.613 351.047 203.226 347.369C201.859 350.99 200.88 353.458 199.988 355.944C196.256 366.344 192.552 368.972 181.441 368.972C123.009 368.972 64.5765 368.972 6.14427 368.963C4.10251 368.963 2.05125 368.774 0.00949655 368.679C0.00949655 360.511 0.00949655 352.333 0.00949655 344.164L0 344.155Z" fill="#FF5501"/>
<path d="M19.92 42.96C7.92 42.96 1.44 34.32 1.44 25.2C1.44 16.08 7.92 7.44 19.92 7.44C31.44 7.44 35.76 14.88 36.96 19.92L30.72 20.64C29.76 17.52 27.12 13.2 19.92 13.2C12.72 13.2 7.68 18.48 7.68 25.2C7.68 31.92 12.48 37.2 19.92 37.2C25.92 37.2 29.52 33.84 30.96 32.16L36.24 35.52C34.8 37.2 30.48 42.96 19.92 42.96ZM50.4131 42V14.16H38.4131V8.4H68.6531V14.16H56.6531V42H50.4131ZM65.3081 42L76.8281 8.4H91.2281L102.748 42H96.2681L92.6681 31.44L74.4281 34.56L71.7881 42H65.3081ZM76.3481 28.56L90.7481 26.16L86.6681 14.16H81.3881L76.3481 28.56ZM113.779 4.8V-2.86102e-06H130.579V4.8H113.779ZM106.099 42V8.4H112.339V31.2L132.019 8.4H136.819V42H130.579V19.2L110.899 42H106.099ZM141.608 42V36.24H147.848L140.648 8.4H173.288V42H167.048V14.16H148.328L155.528 42H141.608ZM179.036 42V8.4H204.956V14.16H185.276V42H179.036ZM201.621 42L213.141 8.4H227.541L239.061 42H232.581L228.981 31.44L210.741 34.56L208.101 42H201.621ZM212.661 28.56L227.061 26.16L222.981 14.16H217.701L212.661 28.56ZM250.091 4.8V-2.86102e-06H266.891V4.8H250.091ZM242.411 42V8.4H248.651V31.2L268.331 8.4H273.131V42H266.891V19.2L247.211 42H242.411ZM276.48 48L278.4 36.24H282.48L278.4 8.4H311.52L307.44 36.24H311.52L313.44 48H307.44L306.24 42H283.68L282.48 48H276.48ZM288.72 36.24H301.2L304.32 14.16H285.6L288.72 36.24Z" fill="white"/>
</svg>
