<?xml version="1.0" encoding="utf-8"?>
<!-- Generator: Adobe Illustrator 26.4.1, SVG Export Plug-In . SVG Version: 6.00 Build 0)  -->
<svg version="1.1" id="Layer_1" xmlns="http://www.w3.org/2000/svg" xmlns:xlink="http://www.w3.org/1999/xlink" x="0px" y="0px"
	 viewBox="0 0 213 88" style="enable-background:new 0 0 213 88;" xml:space="preserve">
<style type="text/css">
	.st0{clip-path:url(#SVGID_00000137838430446995494180000016860364459842692257_);}
</style>
<g>
	<defs>
		<rect id="SVGID_1_" y="0.6" width="213" height="86.8"/>
	</defs>
	<clipPath id="SVGID_00000055672791669454913030000017204586246059435951_">
		<use xlink:href="#SVGID_1_"  style="overflow:visible;"/>
	</clipPath>
	<g style="clip-path:url(#SVGID_00000055672791669454913030000017204586246059435951_);">
		<path d="M10.5,1v17H6.3V1H0v42.5h6.3V24.8h4.3v18.7h6.2V1H10.5z"/>
		<path d="M27.4,43.9h-1.2c-5,0-7.7-2.8-7.7-8v-8.5h6.2v7.4c0,1.9,0.6,3,2,3c1.5,0,2-1,2-3.6v-1c0-3.1-0.3-4.1-2.5-7.1l-3.9-5.3
			c-2.7-3.6-3.5-6.3-3.5-10.5V8.9c0-5.7,2.8-8.3,7.7-8.3h1.2c5.1,0,7.1,2.3,7.1,7.4v7h-6.1V8.8c0-1.4-0.3-2.5-1.8-2.5
			c-1.5,0-1.8,1-1.8,3v0.8c0,2.4,0.4,3.7,2.5,6.5l4,5.3c2.8,3.8,3.7,6,3.7,10.7v1.3C35.5,40.2,32.9,43.9,27.4,43.9z"/>
		<path d="M51.6,1v6.2h-7.9v11.2h6.2v6.4h-6.2V37h8.3v6.5H37.3V1H51.6z"/>
		<path d="M68.8,35.5h-4.5l-0.9,8h-5.6L62.9,1h7.4l5.3,42.5h-6.1L68.8,35.5z M68.1,29.2l-1.7-15.7l-1.6,15.7H68.1L68.1,29.2z"/>
		<path d="M82.9,43.5h-6.3V1h10.1C90.9,1,93,2.8,93,7.5v7.5c0,3.6-1.6,4.9-2.7,5.4c1.4,0.6,2.7,1.8,2.7,4.6V40
			c0,1.7,0.4,2.5,0.6,3.1v0.3h-6.2c-0.3-0.4-0.6-1.2-0.6-3.5V27.2c0-1.9-0.4-2.7-2.3-2.7h-1.6V43.5z M82.9,18.5h1.7
			c1.7,0,2.2-1.1,2.2-3.1v-6c0-1.9-0.4-2.8-2.2-2.8h-1.7V18.5z"/>
		<path d="M105.7,7.2v36.3h-6.2V7.2h-5.3V1h16.7v6.2H105.7z"/>
		<path d="M127.8,35.5h-4.5l-0.9,8h-5.6L121.9,1h7.4l5.3,42.5h-6.1L127.8,35.5z M127.1,29.2l-1.7-15.7l-1.6,15.7H127.1z"/>
		<path d="M141.3,1l5.3,22.8V1h5.7v42.5h-5.1l-6-24.4v24.4h-5.7V1H141.3z"/>
		<path d="M154.7,1h9.6c5.3,0,7,3.1,7,8.2V35c0,5.2-1.9,8.5-7,8.5h-9.6V1z M160.9,37.3h1.5c1.9,0,2.5-1,2.5-3.3v-24
			c0-2.5-0.6-3.3-2.2-3.3h-1.8V37.3z"/>
		<path d="M0,44.4h9.6c5.3,0,7,3.1,7,8.2v25.8c0,5.2-1.9,8.5-7,8.5H0V44.4z M6.3,80.6h1.5c1.9,0,2.5-1,2.5-3.3V53.5
			c0-2.5-0.6-3.3-2.2-3.3H6.3V80.6z"/>
		<path d="M33.1,44.4v6.1h-8v11.2h6.3v6.5h-6.3v12.3h8.4v6.4H18.8V44.4H33.1z"/>
		<path d="M43.4,87.2h-1.2c-5,0-7.7-2.8-7.7-8v-8.5h6.2v7.4c0,1.9,0.6,3,2,3c1.5,0,2-1,2-3.6v-1c0-3.1-0.3-4.1-2.5-7.1l-4-5.3
			c-2.7-3.6-3.5-6.3-3.5-10.5v-1.3c0-5.7,2.7-8.3,7.7-8.3h1.2c5.1,0,7.1,2.3,7.1,7.4v7h-6.1v-6.1c0-1.4-0.3-2.5-1.8-2.5
			c-1.5,0-1.8,1-1.8,3v0.7c0,2.4,0.4,3.7,2.5,6.5l4,5.3c2.8,3.8,3.7,6,3.7,10.7v1.3C51.5,83.6,48.9,87.2,43.4,87.2z"/>
		<path d="M59.5,44.4h-6.3v42.5h6.3V44.4z"/>
		<path d="M67.7,87.4c-3.7,0-6-3.3-6-7.7V53.1c0-4.8,1.8-9.2,7.7-9.2h1.2c6.7,0,7.5,4.5,7.5,9.5v4.3h-6.1V53c0-1.9-0.4-2.9-2-2.9
			c-1.3,0-1.9,1-1.9,2.9v24.9c0,2,0.8,3.1,2,3.1c1.6,0,2.3-1.1,2.3-2.8V67.5h-2.8V61h8.7v25.8h-3.5c-0.1-0.2-0.6-2.3-1.1-4.2
			c-0.4,1.4-2.5,4.8-5.7,4.8L67.7,87.4L67.7,87.4z"/>
		<path d="M86.1,44.4l5.3,22.8V44.4h5.7v42.4h-5.1l-6-24.4v24.4h-5.6V44.4H86.1z"/>
		<path d="M113.5,87.2h-1.2c-5,0-7.7-2.8-7.7-8v-8.5h6.2v7.4c0,1.9,0.6,3,2,3c1.5,0,2-1,2-3.6v-1c0-3.1-0.3-4.1-2.5-7.1l-4-5.3
			c-2.7-3.6-3.5-6.3-3.5-10.5v-1.3c0-5.7,2.7-8.3,7.7-8.3h1.2c5.1,0,7.1,2.3,7.1,7.4v7h-6.1v-6.1c0-1.4-0.3-2.5-1.8-2.5
			c-1.5,0-1.8,1-1.8,3v0.7c0,2.4,0.4,3.7,2.5,6.5l4,5.3c2.8,3.8,3.7,6,3.7,10.7v1.3C121.6,83.6,119,87.2,113.5,87.2z"/>
		<path d="M133.6,78.2v-9.8h6.1v9.8c0,4.5-1.4,9.2-7.5,9.2h-1.4c-6.3,0-7.7-4.7-7.7-8.9V52.5c0-4.3,1.8-8.5,7.5-8.5h1.4
			c6.9,0,7.7,4.7,7.7,8.9v7.6h-6.1V53c0-1.9-0.6-2.8-2.1-2.8c-1.5,0-1.9,0.9-1.9,2.8v25.2c0,1.9,0.6,2.9,2,2.9
			C133.1,81.1,133.6,79.9,133.6,78.2z"/>
		<path d="M152.3,68.1H148v18.7h-6.2V44.4h6.2v17h4.3v-17h6.3v42.4h-6.3V68.1z"/>
		<path d="M177.8,77.3c0,6-1.9,10-7.9,10h-1.1c-6,0-8.1-4-8.1-10V53.7c0-5.9,2.2-9.7,8-9.7h1.1c6.1,0,8,3.9,8,9.7V77.3z M171.5,53.4
			c0-2.2-0.7-3.3-2.2-3.3c-1.6,0-2.2,1.1-2.2,3.3v24.4c0,1.9,0.5,3.3,2.2,3.3c1.7,0,2.1-1.4,2.1-3.3L171.5,53.4L171.5,53.4z"/>
		<path d="M197,77.3c0,6-1.9,10-7.9,10h-1.1c-6,0-8.1-4-8.1-10V53.7c0-5.9,2.2-9.7,8-9.7h1.1c6.1,0,8,3.9,8,9.7V77.3L197,77.3z
			 M190.5,53.4c0-2.2-0.7-3.3-2.2-3.3c-1.6,0-2.2,1.1-2.2,3.3v24.4c0,1.9,0.5,3.3,2.2,3.3c1.7,0,2.1-1.4,2.1-3.3L190.5,53.4
			L190.5,53.4z"/>
		<path d="M205.3,44.4v35.9h7.7v6.5h-13.9V44.4H205.3z"/>
	</g>
</g>
</svg>
