<svg width="1603" height="1147" viewBox="0 0 1603 1147" fill="none" xmlns="http://www.w3.org/2000/svg">
<path fill-rule="evenodd" clip-rule="evenodd" d="M1397.05 180.274L1389.7 0.248787L1349.64 69.4296L1368.87 141.146L1342.58 198.865L1609.66 238.64L1720.22 268.991L1686.87 303.322L1420.62 435.589L1327.37 356.461L1267.48 409.364L1191.93 427.209L1240.41 327.403L1019.88 311.665L940 325.454L996.067 325.455L1196.75 352.685L1132.4 461.685L1225.92 446.08L1134.04 527.24L1020.52 517.081L818.999 682.032L1014.89 546.987L1139.14 557.452L1198.42 584.077L1164.32 683.064L1177.14 694.392L1153.87 733.325L1104.96 720.972L979.089 890.914L700 866.864L-8.06396e-06 1006.86L676 901.02L532 1006.86V1146.86L552 1006.86L727 892.02L996 918.864L1096.06 758.352L1142.89 775.821L1192.89 708.316L1218.48 730.938L1102.81 929.992L1247.85 727.136L1188.73 668.927L1232.22 564.502L1179.22 539.581L1319.56 415.609L1410.15 501.839L1586.05 406.061L1368.87 606.63L1546 784L1428 606.63L1585.13 488.442L1591.53 488.997L1584.57 569.65L1721.05 643.858L1759.11 693.157L1732.33 637.325L1605.25 557.674L1619.73 472.666L1608.96 470.519L1835 300.5L1720.22 268.991L1732.01 256.86L1609.66 238.64L1397.05 180.274Z" fill="url(#paint0_linear_612_240)"/>
<defs>
<linearGradient id="paint0_linear_612_240" x1="1765" y1="744" x2="1222" y2="9.93668e-05" gradientUnits="userSpaceOnUse">
<stop offset="0.387006" stop-color="#AD00FF"/>
<stop offset="1" stop-color="#AD00FF" stop-opacity="0"/>
</linearGradient>
</defs>
</svg>
