<svg width="1095" height="1397" viewBox="0 0 1095 1397" fill="none" xmlns="http://www.w3.org/2000/svg">
<path d="M927.289 273.032L922.188 75.5049L947.623 75.5046L953.135 251.019L977.814 284.66L932.925 420.028L954.7 449.307L910.536 542.823L935.836 469.416L909.1 427.072L945.627 295.39L927.289 273.032Z" fill="white"/>
<path d="M1038.33 843.337L923.235 682.725L944.284 668.448L1047.36 810.611L1086.67 824.599L1125.5 961.828L1159.96 973.837L1175.9 1076.02L1155.64 1001.07L1109.74 981.03L1066.06 851.547L1038.33 843.337Z" fill="white"/>
<path d="M714.997 456.845L744.053 528.558L717.939 540.622L688.367 467.634L741.011 383.512L585.517 441.181L404.672 519.783L554.108 441.034L773.441 359.787L714.997 456.845Z" fill="white"/>
<path d="M853.321 378.549L942.363 330.043L939.652 371.311L899.278 374.275L889.53 414.187L828.968 461.019L818.194 556.854L813.406 490.258L762.558 531.799L674.143 600.726L566.002 727.003L298.002 823.003L174.109 845.361L356.032 779.003L546.002 707.415L606.174 633.425L356.032 653.348L249.809 731.975L350.217 642.674L615.631 620.49L733.121 520.154L850.61 419.818L853.321 378.549Z" fill="white"/>
<path d="M1009.2 195.367L944.981 167.57L943.471 232.456L967.34 207.702L1012.94 245.817L1077.2 341.267L1231.78 368.218L1247 363.732L1101.94 333.978L1009.2 195.367Z" fill="white"/>
<path d="M1023.64 319.773L1056.7 298.525L1048.45 259.792L1009.76 291.792L962 591.001L870.22 771.45L894.001 883.001L894.001 771.45L990 575.001L1023.64 319.773Z" fill="white"/>
<path d="M776.611 597.374L687.871 565.923L670.857 595.03L741.525 618.783L645.517 770.459L712.894 899.002L712.894 962.84L712.895 1083L741.525 899.002L670.857 754.997L776.611 597.374Z" fill="white"/>
</svg>
