<svg width="726" height="589" viewBox="0 0 726 589" fill="none" xmlns="http://www.w3.org/2000/svg">
<path d="M128.609 0H5V160.199H34.7577V27.4636H128.609V0Z" fill="white"/>
<path d="M167.644 0L112.705 160.199H143.608L156.199 124.725L243.184 109.85L260.353 160.199H291.256L236.317 0H167.646H167.644ZM165.356 96.1191L189.39 27.4636H214.571L234.029 84.6784L165.358 96.1214L165.356 96.1191Z" fill="white"/>
<path d="M532.728 59.5025L592.02 17.3941L579.655 0H448.034V26.3186H536.164L477.794 67.5128L485.806 81.2435H524.721C559.057 81.2435 565.924 99.5518 565.924 109.85C565.924 127.015 547.612 137.313 515.566 137.313C497.468 137.313 483.952 130.905 474.723 124.169L491.135 112.696L430.895 90.6896V154.811L449.493 141.808C461.322 152.374 481.724 164.777 515.566 164.777C571.648 164.777 595.686 138.458 595.686 110.995C595.686 94.9741 586.527 59.7311 532.733 59.5025H532.728Z" fill="white"/>
<path d="M307.234 160.199H336.992V27.4636H430.844V0H307.234V160.199Z" fill="white"/>
<path d="M128.792 318.669H5.18262V478.868H34.9403V346.133H128.792V318.669Z" fill="white"/>
<path d="M167.827 318.669L112.888 478.868H143.791L156.381 443.394L243.366 428.519L260.535 478.868H291.438L236.499 318.669H167.829H167.827ZM165.539 414.788L189.572 346.133H214.754L234.211 403.347L165.541 414.79L165.539 414.788Z" fill="white"/>
<path d="M532.911 378.171L592.202 336.063L579.838 318.669H448.216V344.988H536.347L477.976 386.182L485.988 399.912H524.903C559.24 399.912 566.107 418.221 566.107 428.519C566.107 445.684 547.794 455.982 515.748 455.982C497.651 455.982 484.134 449.574 474.906 442.838L491.318 431.365L431.077 409.359V473.48L449.676 460.477C461.504 471.043 481.906 483.446 515.748 483.446C571.83 483.446 595.869 457.127 595.869 429.664C595.869 413.643 586.709 378.4 532.915 378.171H532.911Z" fill="white"/>
<path d="M307.417 478.868H337.175V346.133H431.026V318.669H307.417V478.868Z" fill="white"/>
<path d="M0 519.932C3.62768 519.866 7.26486 519.734 10.8925 519.734C61.946 519.724 113.009 519.668 164.062 519.819C168.697 519.828 171.175 518.713 172.6 514.005C175.202 505.439 178.535 497.101 181.574 488.677C185.202 478.627 198.164 473.56 207.728 478.457C208.43 478.816 209.057 479.525 209.769 479.62C220.405 481 223.302 489.074 225.866 497.63C227.623 503.492 229.968 509.183 231.744 515.044C232.846 518.675 234.869 519.819 238.648 519.8C267.736 519.658 296.815 519.724 325.903 519.724C340.442 519.724 354.99 519.743 369.53 519.724C376.586 519.724 382.436 523.411 388.418 526.285C392.587 528.29 393.404 532.932 393.575 537.309C393.689 540.419 393.594 543.539 393.594 547.822C400.897 542.802 407.335 538.415 413.746 533.981C422.435 527.959 431.162 522.003 439.738 515.839C444.799 512.199 449.889 511.452 455.758 513.825C475.995 521.984 497.22 525.047 518.882 524.31C546.574 523.364 573.288 518.145 596.592 502.045C622.85 483.902 637.228 458.972 637.608 426.903C637.807 409.943 633.258 393.984 624.654 379.245C619.536 370.472 620.637 365.395 628.861 359.552C635.158 355.071 641.444 350.58 647.864 346.26C650.485 344.492 651.311 342.913 648.966 340.304C647.399 338.555 646.155 336.512 644.806 334.574C639.792 327.418 640.827 321.008 647.959 315.789C653.562 311.695 659.269 307.753 664.92 303.725C665.11 303.593 665.119 303.196 665.414 302.317C657.066 302.317 648.909 302.477 640.77 302.279C628.387 301.976 617.219 298.611 610.96 286.973C606.098 277.916 599.289 275.722 589.166 275.741C404.857 276.082 220.548 275.987 36.2388 275.987C24.1117 275.996 11.9182 275.354 0 278.587V251.245C3.62768 251.17 7.26486 251.019 10.8925 251.019C202.913 251.009 394.942 250.971 586.963 251.113C596.516 251.113 606.203 249.241 615.652 254.337C619.726 256.53 623.695 258.081 626.345 262.004C628.719 265.521 631.425 268.84 633.648 272.451C635.604 275.628 638.073 276.847 641.824 276.8C654.777 276.62 667.75 276.46 680.703 276.819C692.507 277.15 704.53 274.739 715.992 280.506C720.522 282.785 724.463 284.751 725.536 289.875C726.628 295.075 724.387 298.942 720.076 301.939C708.291 310.135 696.591 318.446 684.863 326.699C679.519 330.462 678.715 335.072 682.45 340.53C688.272 349.049 687.294 354.986 678.927 361.084C673.704 364.894 668.348 368.524 663.096 372.287C654.379 378.536 655.832 376.598 659.412 385.22C667.94 405.726 671.368 426.922 667.265 448.847C659.203 491.939 633.163 520.906 593.078 536.836C551.151 553.494 508.094 554.166 464.989 540.4C461.599 539.323 458.902 539.096 455.739 541.318C433.204 557.238 410.536 572.979 387.906 588.777H380.318C377.516 587.038 374.667 585.572 371.363 584.731C365.294 583.19 362.312 579.002 362.208 572.582C362.094 565.52 362.179 558.458 362.17 551.386C362.164 546.974 359.865 544.765 355.275 544.759C319.587 544.759 283.89 544.882 248.202 544.674C237.642 544.617 226.967 546.347 216.683 541.157C212.191 538.888 208.402 536.95 206.635 532.156C205.648 529.481 204.613 526.824 203.226 523.147C201.859 526.768 200.88 529.235 199.988 531.722C196.256 542.121 192.552 544.749 181.441 544.749C123.009 544.749 64.5765 544.749 6.14427 544.74C4.10251 544.74 2.05125 544.551 0.00949655 544.456C0.00949655 536.288 0.00949655 528.11 0.00949655 519.942L0 519.932Z" fill="white"/>
</svg>
