<svg width="129" height="61" viewBox="0 0 129 61" fill="none" xmlns="http://www.w3.org/2000/svg">
<path d="M22.8903 12.5854H0.920898V41.0579H6.2098V17.4665H22.8903V12.5854Z" fill="#FF5501"/>
<path d="M29.8279 12.5854L20.0635 41.0579H25.5559L27.7937 34.7531L43.2537 32.1092L46.3053 41.0579H51.7977L42.0333 12.5854H29.8283H29.8279ZM29.4212 29.6688L33.6928 17.4665H38.1684L41.6266 27.6355L29.4216 29.6692L29.4212 29.6688Z" fill="#FF5501"/>
<path d="M94.7154 23.1609L105.253 15.6769L103.056 12.5854H79.6624V17.263H95.326L84.9517 24.5846L86.3757 27.025H93.2922C99.3949 27.025 100.615 30.2789 100.615 32.1092C100.615 35.1601 97.3606 36.9904 91.665 36.9904C88.4485 36.9904 86.0462 35.8514 84.4059 34.6542L87.3229 32.6151L76.6162 28.7038V40.1003L79.9218 37.7892C82.0241 39.6671 85.6502 41.8715 91.665 41.8715C101.633 41.8715 105.905 37.1939 105.905 32.3127C105.905 29.4653 104.277 23.2015 94.7162 23.1609H94.7154Z" fill="#FF5501"/>
<path d="M54.6377 41.0579H59.9266V17.4665H76.6071V12.5854H54.6377V41.0579Z" fill="#FF5501"/>
<path d="M0 48.3563C0.644756 48.3446 1.2912 48.3211 1.93596 48.3211C11.0098 48.3194 20.0853 48.3093 29.1592 48.3362C29.9829 48.3379 30.4234 48.1396 30.6766 47.3028C31.139 45.7804 31.7315 44.2984 32.2716 42.8012C32.9163 41.0151 35.2202 40.1144 36.9199 40.9848C37.0448 41.0487 37.1562 41.1747 37.2828 41.1915C39.1732 41.4368 39.688 42.8718 40.1437 44.3925C40.4559 45.4343 40.8728 46.4458 41.1885 47.4876C41.3842 48.1329 41.7438 48.3362 42.4155 48.3328C47.5854 48.3076 52.7536 48.3194 57.9234 48.3194C60.5075 48.3194 63.0933 48.3227 65.6774 48.3194C66.9314 48.3194 67.9712 48.9747 69.0345 49.4855C69.7755 49.8417 69.9206 50.6668 69.951 51.4447C69.9713 51.9976 69.9544 52.5521 69.9544 53.3132C71.2523 52.421 72.3967 51.6413 73.536 50.8533C75.0804 49.7829 76.6315 48.7243 78.1556 47.6288C79.0552 46.9818 79.9599 46.8491 81.003 47.2709C84.5998 48.721 88.3721 49.2654 92.2221 49.1343C97.1439 48.9663 101.892 48.0388 106.034 45.1772C110.701 41.9527 113.256 37.5217 113.324 31.8221C113.359 28.8076 112.55 25.9713 111.021 23.3517C110.112 21.7924 110.307 20.89 111.769 19.8516C112.888 19.0551 114.005 18.257 115.146 17.4891C115.612 17.1749 115.759 16.8943 115.342 16.4305C115.064 16.1196 114.843 15.7567 114.603 15.4122C113.712 14.1402 113.896 13.001 115.163 12.0735C116.159 11.3459 117.174 10.6452 118.178 9.92939C118.212 9.90586 118.213 9.83529 118.266 9.67902C116.782 9.67902 115.332 9.70759 113.886 9.6723C111.685 9.61853 109.7 9.02034 108.587 6.95188C107.723 5.34215 106.513 4.95232 104.714 4.95568C71.9562 5.01617 39.1985 4.99937 6.44081 4.99937C4.28544 5.00105 2.11824 4.88679 0 5.46145V0.602002C0.644756 0.58856 1.2912 0.561675 1.93596 0.561675C36.0642 0.559994 70.1941 0.553273 104.322 0.578478C106.02 0.578478 107.742 0.245777 109.421 1.15146C110.145 1.54129 110.851 1.81686 111.322 2.51419C111.744 3.13927 112.225 3.72905 112.62 4.37093C112.967 4.93551 113.406 5.15227 114.073 5.14387C116.375 5.11195 118.681 5.08338 120.983 5.14723C123.081 5.20604 125.218 4.77757 127.255 5.80255C128.06 6.20751 128.761 6.55701 128.951 7.46774C129.145 8.39191 128.747 9.07915 127.981 9.61181C125.886 11.0686 123.807 12.5456 121.722 14.0125C120.773 14.6813 120.63 15.5007 121.294 16.4708C122.328 17.9848 122.154 19.04 120.667 20.1238C119.739 20.801 118.787 21.4462 117.854 22.115C116.304 23.2257 116.562 22.8812 117.199 24.4136C118.715 28.0582 119.324 31.8255 118.595 35.7221C117.162 43.381 112.534 48.5294 105.409 51.3607C97.9574 54.3214 90.3047 54.4407 82.6436 51.9942C82.041 51.8026 81.5617 51.7623 80.9996 52.1572C76.9944 54.9868 72.9655 57.7845 68.9434 60.5923H67.5948C67.0969 60.2832 66.5905 60.0227 66.0031 59.8732C64.9246 59.5993 64.3946 58.8549 64.3761 57.714C64.3558 56.4588 64.371 55.2036 64.3693 53.9467C64.3682 53.1626 63.9597 52.7699 63.1439 52.7688C56.801 52.7688 50.4564 52.7907 44.1135 52.7537C42.2366 52.7436 40.3395 53.0511 38.5115 52.1286C37.7132 51.7254 37.0397 51.3809 36.7258 50.529C36.5503 50.0534 36.3663 49.5813 36.1199 48.9276C35.8768 49.5712 35.703 50.0098 35.5443 50.4517C34.881 52.3 34.2227 52.7671 32.2479 52.7671C21.8626 52.7671 11.4773 52.7671 1.09204 52.7655C0.729149 52.7655 0.364574 52.7319 0.00168784 52.7151C0.00168784 51.2633 0.00168784 49.8098 0.00168784 48.358L0 48.3563Z" fill="#FF5501"/>
</svg>
