<svg width="335" height="75" viewBox="0 0 335 75" fill="none" xmlns="http://www.w3.org/2000/svg">
<path d="M112.936 18.9521L117.766 6.36154H120.374L125.302 18.9521H122.667L121.597 16.1013H116.534L115.499 18.9521H112.936ZM117.109 14.1138H121.003L119.025 9.00557L117.109 14.1138ZM127.094 19.132L126.312 17.0726C126.923 16.9167 127.37 16.6768 127.652 16.3531C127.934 16.0293 128.113 15.5827 128.191 15.0131C128.269 14.4435 128.308 13.7151 128.308 12.8277V9.95886H135.827V18.9521H133.524V11.8295H130.431V12.8277C130.431 14.0868 130.341 15.145 130.161 16.0023C129.981 16.8537 129.651 17.5342 129.172 18.0438C128.692 18.5475 127.999 18.9102 127.094 19.132ZM138.661 18.9521V9.95886H140.874V15.6426L145.415 9.95886H147.448V18.9521H145.235V13.1964L140.667 18.9521H138.661ZM150.276 18.9521V9.95886H152.578V13.3493H156.724V9.95886H159.026V18.9521H156.724V15.2199H152.578V18.9521H150.276ZM164.356 19.2219C163.432 19.2219 162.677 18.9671 162.089 18.4575C161.502 17.9419 161.208 17.2404 161.208 16.3531C161.208 15.7056 161.418 15.148 161.837 14.6803C162.257 14.2127 162.908 13.8709 163.789 13.6551C164.676 13.4393 165.812 13.3853 167.197 13.4932V13.2954C167.197 12.7318 167.018 12.2821 166.658 11.9464C166.298 11.6046 165.741 11.4338 164.985 11.4338C164.517 11.4338 164.053 11.5057 163.591 11.6496C163.13 11.7875 162.701 12.0033 162.305 12.2971L161.685 10.6513C162.248 10.2736 162.845 10.0038 163.474 9.84195C164.104 9.68007 164.715 9.59913 165.309 9.59913C166.568 9.59913 167.566 9.8989 168.304 10.4985C169.041 11.098 169.41 12.0213 169.41 13.2684V18.9521H167.377V17.9269C167.078 18.3466 166.664 18.6674 166.136 18.8892C165.609 19.111 165.015 19.2219 164.356 19.2219ZM163.339 16.2452C163.339 16.6409 163.483 16.9466 163.771 17.1625C164.059 17.3723 164.452 17.4772 164.949 17.4772C165.585 17.4772 166.118 17.3064 166.55 16.9646C166.982 16.6229 167.197 16.1582 167.197 15.5707V14.9861C165.89 14.8302 164.919 14.8782 164.284 15.13C163.654 15.3758 163.339 15.7475 163.339 16.2452ZM176.897 18.9521V6.36154H184.217V8.50195H179.235V18.9521H176.897ZM188.028 19.2219C187.105 19.2219 186.35 18.9671 185.762 18.4575C185.174 17.9419 184.881 17.2404 184.881 16.3531C184.881 15.7056 185.091 15.148 185.51 14.6803C185.93 14.2127 186.58 13.8709 187.462 13.6551C188.349 13.4393 189.485 13.3853 190.87 13.4932V13.2954C190.87 12.7318 190.69 12.2821 190.331 11.9464C189.971 11.6046 189.413 11.4338 188.658 11.4338C188.19 11.4338 187.726 11.5057 187.264 11.6496C186.802 11.7875 186.374 12.0033 185.978 12.2971L185.357 10.6513C185.921 10.2736 186.517 10.0038 187.147 9.84195C187.777 9.68007 188.388 9.59913 188.982 9.59913C190.241 9.59913 191.239 9.8989 191.976 10.4985C192.714 11.098 193.083 12.0213 193.083 13.2684V18.9521H191.05V17.9269C190.75 18.3466 190.337 18.6674 189.809 18.8892C189.281 19.111 188.688 19.2219 188.028 19.2219ZM187.012 16.2452C187.012 16.6409 187.156 16.9466 187.444 17.1625C187.732 17.3723 188.124 17.4772 188.622 17.4772C189.257 17.4772 189.791 17.3064 190.223 16.9646C190.654 16.6229 190.87 16.1582 190.87 15.5707V14.9861C189.563 14.8302 188.592 14.8782 187.956 15.13C187.327 15.3758 187.012 15.7475 187.012 16.2452ZM200.172 19.2219C199.159 19.2219 198.277 18.9941 197.528 18.5385C196.784 18.0768 196.209 17.4173 195.801 16.5599C195.393 15.7026 195.19 14.6743 195.19 13.4752C195.19 11.4907 195.522 9.92289 196.188 8.77174C196.859 7.6206 197.995 6.88915 199.596 6.57738L203.904 5.73201L204.264 7.68356L200.073 8.45698C199.084 8.65483 198.4 9.02356 198.022 9.56315C197.645 10.1028 197.414 10.8372 197.33 11.7665C197.708 11.3049 198.166 10.9391 198.706 10.6693C199.245 10.3995 199.869 10.2646 200.576 10.2646C201.422 10.2646 202.168 10.4625 202.816 10.8582C203.469 11.2479 203.982 11.7725 204.354 12.432C204.725 13.0855 204.911 13.811 204.911 14.6084C204.911 15.4538 204.713 16.2272 204.318 16.9287C203.922 17.6241 203.367 18.1817 202.654 18.6014C201.946 19.0151 201.119 19.2219 200.172 19.2219ZM200.136 17.2075C200.843 17.2075 201.434 16.9766 201.907 16.515C202.387 16.0533 202.627 15.4268 202.627 14.6354C202.627 13.844 202.39 13.2174 201.916 12.7558C201.443 12.2941 200.849 12.0633 200.136 12.0633C199.416 12.0633 198.82 12.2941 198.346 12.7558C197.872 13.2174 197.636 13.844 197.636 14.6354C197.636 15.4268 197.872 16.0533 198.346 16.515C198.82 16.9766 199.416 17.2075 200.136 17.2075ZM207.946 22.9811C207.586 22.9811 207.235 22.9422 206.894 22.8642C206.552 22.7923 206.225 22.6664 205.913 22.4865L206.426 20.535C206.612 20.6489 206.816 20.7358 207.037 20.7958C207.265 20.8557 207.475 20.8857 207.667 20.8857C208.41 20.8857 208.905 20.517 209.151 19.7795L209.394 19.0601L205.868 9.95886H208.377L210.698 16.6589L212.955 9.95886H215.392L211.561 20.1123C211.129 21.2155 210.608 21.9679 209.996 22.3696C209.391 22.7773 208.707 22.9811 207.946 22.9811ZM221.102 19.2219C220.125 19.2219 219.267 19.0241 218.53 18.6284C217.792 18.2327 217.217 17.6781 216.803 16.9646C216.395 16.2452 216.192 15.4118 216.192 14.4645C216.192 13.5412 216.398 12.7198 216.812 12.0003C217.226 11.2809 217.795 10.7173 218.521 10.3096C219.246 9.89591 220.074 9.68906 221.003 9.68906C222.01 9.68906 222.871 9.92289 223.584 10.3905C224.298 10.8582 224.816 11.4937 225.14 12.2971C225.464 13.0945 225.548 13.9998 225.392 15.0131H218.359C218.347 15.7206 218.599 16.2931 219.114 16.7308C219.636 17.1685 220.332 17.3873 221.201 17.3873C222.262 17.3873 223.197 17.0905 224.007 16.497L224.816 18.1068C224.528 18.3346 224.175 18.5325 223.755 18.7003C223.341 18.8682 222.901 18.9971 222.433 19.087C221.971 19.177 221.528 19.2219 221.102 19.2219ZM218.494 13.3763H223.161C223.143 12.7708 222.94 12.2971 222.55 11.9554C222.166 11.6076 221.633 11.4338 220.949 11.4338C220.266 11.4338 219.699 11.6076 219.249 11.9554C218.806 12.2971 218.554 12.7708 218.494 13.3763ZM227.543 18.9521V9.95886H231.977C233.008 9.95886 233.829 10.1537 234.441 10.5434C235.052 10.9271 235.358 11.5057 235.358 12.2791C235.358 12.6988 235.241 13.0615 235.007 13.3673C234.78 13.6671 234.474 13.9069 234.09 14.0868C234.618 14.2786 235.025 14.5604 235.313 14.9321C235.601 15.3039 235.745 15.7475 235.745 16.2632C235.745 17.0965 235.427 17.753 234.792 18.2327C234.156 18.7123 233.269 18.9521 232.13 18.9521H227.543ZM231.608 11.5956H229.755V13.6101H231.608C232.112 13.6101 232.501 13.5322 232.777 13.3763C233.053 13.2144 233.191 12.9596 233.191 12.6119C233.191 12.2581 233.05 12.0003 232.768 11.8385C232.492 11.6766 232.106 11.5956 231.608 11.5956ZM229.755 17.3154H231.824C232.351 17.3154 232.759 17.2254 233.047 17.0456C233.341 16.8597 233.488 16.5899 233.488 16.2362C233.488 15.5287 232.933 15.175 231.824 15.175H229.755V17.3154ZM240.551 19.2219C239.628 19.2219 238.872 18.9671 238.285 18.4575C237.697 17.9419 237.404 17.2404 237.404 16.3531C237.404 15.7056 237.613 15.148 238.033 14.6803C238.453 14.2127 239.103 13.8709 239.985 13.6551C240.872 13.4393 242.008 13.3853 243.393 13.4932V13.2954C243.393 12.7318 243.213 12.2821 242.854 11.9464C242.494 11.6046 241.936 11.4338 241.181 11.4338C240.713 11.4338 240.248 11.5057 239.787 11.6496C239.325 11.7875 238.896 12.0033 238.501 12.2971L237.88 10.6513C238.444 10.2736 239.04 10.0038 239.67 9.84195C240.299 9.68007 240.911 9.59913 241.505 9.59913C242.764 9.59913 243.762 9.8989 244.499 10.4985C245.237 11.098 245.605 12.0213 245.605 13.2684V18.9521H243.573V17.9269C243.273 18.3466 242.86 18.6674 242.332 18.8892C241.804 19.111 241.211 19.2219 240.551 19.2219ZM239.535 16.2452C239.535 16.6409 239.679 16.9466 239.967 17.1625C240.254 17.3723 240.647 17.4772 241.145 17.4772C241.78 17.4772 242.314 17.3064 242.746 16.9646C243.177 16.6229 243.393 16.1582 243.393 15.5707V14.9861C242.086 14.8302 241.115 14.8782 240.479 15.13C239.85 15.3758 239.535 15.7475 239.535 16.2452ZM81.2041 42.9521V30.3615H83.4614L88.012 37.817L92.3737 30.3615H94.6041V42.9521H92.3288L92.3557 34.3006L88.7314 40.3531H87.0857L83.3085 34.2107L83.3445 42.9521H81.2041ZM97.7045 42.9521V33.9589H99.9168V39.6426L104.458 33.9589H106.491V42.9521H104.279V37.1964L99.71 42.9521H97.7045ZM108.24 42.9701L111.487 38.4645L108.42 33.9589H111.325L113.078 36.8457L114.778 33.9589H117.611L114.634 38.4105L117.854 42.9521H114.904L112.997 40.0023L111.064 42.9342L108.24 42.9701ZM122.099 43.2219C121.176 43.2219 120.42 42.9671 119.833 42.4575C119.245 41.9419 118.951 41.2404 118.951 40.3531C118.951 39.7056 119.161 39.148 119.581 38.6803C120.001 38.2127 120.651 37.8709 121.532 37.6551C122.42 37.4393 123.556 37.3853 124.941 37.4932V37.2954C124.941 36.7318 124.761 36.2821 124.401 35.9464C124.042 35.6046 123.484 35.4338 122.729 35.4338C122.261 35.4338 121.796 35.5057 121.335 35.6496C120.873 35.7875 120.444 36.0033 120.049 36.2971L119.428 34.6513C119.992 34.2736 120.588 34.0038 121.218 33.8419C121.847 33.6801 122.459 33.5991 123.052 33.5991C124.311 33.5991 125.31 33.8989 126.047 34.4985C126.785 35.098 127.153 36.0213 127.153 37.2684V42.9521H125.121V41.9269C124.821 42.3466 124.407 42.6674 123.88 42.8892C123.352 43.111 122.759 43.2219 122.099 43.2219ZM121.083 40.2452C121.083 40.6409 121.227 40.9466 121.515 41.1625C121.802 41.3723 122.195 41.4772 122.693 41.4772C123.328 41.4772 123.862 41.3064 124.293 40.9646C124.725 40.6229 124.941 40.1582 124.941 39.5707V38.9861C123.634 38.8302 122.663 38.8782 122.027 39.13C121.398 39.3758 121.083 39.7475 121.083 40.2452ZM129.879 42.9521V33.9589H132.091V39.6426L136.633 33.9589H138.665V42.9521H136.453V37.1964L131.884 42.9521H129.879ZM141.278 43.132L140.495 41.0726C141.107 40.9167 141.553 40.6768 141.835 40.3531C142.117 40.0293 142.297 39.5827 142.375 39.0131C142.453 38.4435 142.492 37.7151 142.492 36.8277V33.9589H150.01V42.9521H147.708V35.8295H144.614V36.8277C144.614 38.0868 144.524 39.145 144.344 40.0023C144.164 40.8537 143.835 41.5342 143.355 42.0438C142.875 42.5475 142.183 42.9102 141.278 43.132ZM156.347 46.1448V40.9826C156.881 40.8627 157.318 40.6768 157.66 40.425C158.008 40.1672 158.278 39.7925 158.47 39.3009C158.661 38.8032 158.796 38.1347 158.874 37.2954C158.952 36.45 158.991 35.3798 158.991 34.0848V30.3615H168.128V40.8117H170.143V46.1448H167.931V42.9521H158.56V46.1448H156.347ZM161.222 34.0848C161.222 35.7096 161.135 37.0675 160.961 38.1587C160.793 39.2439 160.517 40.1283 160.133 40.8117H165.79V32.5019H161.222V34.0848ZM171.474 42.9521L173.903 39.5617C173.243 39.3698 172.73 39.0491 172.365 38.5994C171.999 38.1497 171.816 37.5981 171.816 36.9446C171.816 36.0093 172.158 35.2779 172.841 34.7503C173.531 34.2227 174.451 33.9589 175.602 33.9589H179.64V42.9521H177.437V39.7595H176.304L174.046 42.9521H171.474ZM175.692 38.1407H177.437V35.6496H175.845C174.682 35.6496 174.1 36.0603 174.1 36.8817C174.1 37.2834 174.235 37.5951 174.505 37.817C174.775 38.0328 175.171 38.1407 175.692 38.1407ZM181.537 45.6501V41.1535C182.094 41.0216 182.514 40.7668 182.796 40.3891C183.083 40.0053 183.275 39.5137 183.371 38.9142C183.473 38.3146 183.524 37.6191 183.524 36.8277V33.9589H191.222V41.0815H193.03V45.6501H190.926V42.9521H183.641V45.6501H181.537ZM185.646 36.8277C185.646 37.6971 185.578 38.4915 185.44 39.2109C185.308 39.9304 185.062 40.5539 184.702 41.0815H188.92V35.8295H185.646V36.8277ZM199.549 42.9521V39.5617C199.135 39.6696 198.745 39.7505 198.379 39.8045C198.014 39.8585 197.636 39.8854 197.246 39.8854C196.059 39.8854 195.142 39.6036 194.494 39.0401C193.847 38.4765 193.523 37.6041 193.523 36.423V33.9589H195.825V36.1083C195.825 36.7078 195.963 37.1635 196.239 37.4752C196.521 37.787 197 37.9429 197.678 37.9429C198.074 37.9429 198.415 37.9249 198.703 37.8889C198.997 37.853 199.279 37.808 199.549 37.754V33.9589H201.851V42.9521H199.549ZM208.837 43.2219C207.86 43.2219 207.003 43.0241 206.265 42.6284C205.528 42.2327 204.952 41.6781 204.539 40.9646C204.131 40.2452 203.927 39.4118 203.927 38.4645C203.927 37.5412 204.134 36.7198 204.548 36.0003C204.961 35.2809 205.531 34.7173 206.256 34.3096C206.982 33.8959 207.809 33.6891 208.738 33.6891C209.746 33.6891 210.606 33.9229 211.32 34.3905C212.033 34.8582 212.552 35.4937 212.875 36.2971C213.199 37.0945 213.283 37.9998 213.127 39.0131H206.094C206.082 39.7206 206.334 40.2931 206.85 40.7308C207.371 41.1685 208.067 41.3873 208.936 41.3873C209.998 41.3873 210.933 41.0905 211.742 40.497L212.552 42.1068C212.264 42.3346 211.91 42.5325 211.49 42.7003C211.077 42.8682 210.636 42.9971 210.168 43.087C209.707 43.177 209.263 43.2219 208.837 43.2219ZM206.229 37.3763H210.897C210.879 36.7708 210.675 36.2971 210.285 35.9554C209.902 35.6076 209.368 35.4338 208.684 35.4338C208.001 35.4338 207.434 35.6076 206.985 35.9554C206.541 36.2971 206.289 36.7708 206.229 37.3763ZM215.278 42.9521V33.9589H217.581V37.3493H221.727V33.9589H224.029V42.9521H221.727V39.2199H217.581V42.9521H215.278ZM226.858 42.9521V33.9589H229.16V37.3493H230.419L232.668 33.9589H235.114L232.335 38.0868L235.518 42.9521H232.776L230.482 39.2199H229.16V42.9521H226.858ZM241.337 43.2219C240.377 43.2219 239.526 43.0061 238.783 42.5744C238.045 42.1368 237.467 41.5582 237.047 40.8387C236.627 40.1133 236.417 39.3189 236.417 38.4555C236.417 37.6041 236.627 36.8187 237.047 36.0993C237.467 35.3738 238.045 34.7922 238.783 34.3546C239.526 33.9109 240.377 33.6891 241.337 33.6891C242.29 33.6891 243.135 33.9079 243.873 34.3456C244.616 34.7772 245.198 35.3528 245.618 36.0723C246.043 36.7917 246.256 37.5862 246.256 38.4555C246.256 39.3009 246.043 40.0863 245.618 40.8117C245.198 41.5372 244.616 42.1218 243.873 42.5654C243.135 43.0031 242.29 43.2219 241.337 43.2219ZM241.337 41.2075C242.092 41.2075 242.719 40.9616 243.216 40.47C243.72 39.9724 243.972 39.3009 243.972 38.4555C243.972 37.6101 243.723 36.9416 243.225 36.45C242.728 35.9524 242.098 35.7036 241.337 35.7036C240.569 35.7036 239.937 35.9524 239.439 36.45C238.948 36.9416 238.702 37.6101 238.702 38.4555C238.702 39.3009 238.951 39.9724 239.448 40.47C239.946 40.9616 240.575 41.2075 241.337 41.2075ZM58.4546 70.1448V64.9826C58.9882 64.8627 59.4258 64.6768 59.7676 64.425C60.1153 64.1672 60.3851 63.7925 60.577 63.3009C60.7688 62.8032 60.9037 62.1347 60.9817 61.2954C61.0596 60.45 61.0986 59.3798 61.0986 58.0848V54.3615H70.2358V64.8117H72.2503V70.1448H70.0379V66.9521H60.6669V70.1448H58.4546ZM63.3289 58.0848C63.3289 59.7096 63.242 61.0675 63.0681 62.1587C62.9002 63.2439 62.6245 64.1283 62.2407 64.8117H67.8975V56.5019H63.3289V58.0848ZM76.9928 67.2219C76.0695 67.2219 75.3141 66.9671 74.7265 66.4575C74.139 65.9419 73.8452 65.2404 73.8452 64.3531C73.8452 63.7056 74.055 63.148 74.4747 62.6803C74.8944 62.2127 75.5449 61.8709 76.4262 61.6551C77.3136 61.4393 78.4497 61.3853 79.8347 61.4932V61.2954C79.8347 60.7318 79.6548 60.2821 79.2951 59.9464C78.9354 59.6046 78.3778 59.4338 77.6224 59.4338C77.1547 59.4338 76.69 59.5057 76.2284 59.6496C75.7667 59.7875 75.3381 60.0033 74.9424 60.2971L74.3218 58.6513C74.8854 58.2736 75.482 58.0038 76.1115 57.8419C76.741 57.6801 77.3526 57.5991 77.9461 57.5991C79.2052 57.5991 80.2034 57.8989 80.9409 58.4985C81.6783 59.098 82.0471 60.0213 82.0471 61.2684V66.9521H80.0146V65.9269C79.7148 66.3466 79.3011 66.6674 78.7735 66.8892C78.2459 67.111 77.6523 67.2219 76.9928 67.2219ZM75.9766 64.2452C75.9766 64.6409 76.1205 64.9466 76.4083 65.1625C76.696 65.3723 77.0888 65.4772 77.5864 65.4772C78.2219 65.4772 78.7555 65.3064 79.1872 64.9646C79.6189 64.6229 79.8347 64.1582 79.8347 63.5707V62.9861C78.5277 62.8302 77.5564 62.8782 76.9209 63.13C76.2913 63.3758 75.9766 63.7475 75.9766 64.2452ZM84.7724 70.7293V57.9589H86.8049V59.146C87.1527 58.7143 87.5993 58.3636 88.1449 58.0938C88.6905 57.824 89.35 57.6891 90.1234 57.6891C90.9928 57.6891 91.7662 57.8929 92.4437 58.3006C93.1212 58.7083 93.6518 59.2719 94.0355 59.9913C94.4252 60.7048 94.6201 61.5262 94.6201 62.4555C94.6201 63.3428 94.4252 64.1462 94.0355 64.8657C93.6518 65.5852 93.1182 66.1577 92.4347 66.5834C91.7572 67.0091 90.9748 67.2219 90.0875 67.2219C89.44 67.2219 88.8644 67.111 88.3608 66.8892C87.8571 66.6614 87.4255 66.3526 87.0657 65.9629V70.7293H84.7724ZM89.7008 65.2075C90.4622 65.2075 91.0917 64.9616 91.5893 64.47C92.087 63.9724 92.3358 63.3009 92.3358 62.4555C92.3358 61.6101 92.084 60.9416 91.5804 60.45C91.0827 59.9524 90.4562 59.7036 89.7008 59.7036C88.9393 59.7036 88.3098 59.9524 87.8122 60.45C87.3145 60.9416 87.0657 61.6101 87.0657 62.4555C87.0657 63.3009 87.3115 63.9724 87.8032 64.47C88.3008 64.9616 88.9333 65.2075 89.7008 65.2075ZM96.7033 66.9521V57.9589H99.0056V60.7738H100.876C102.063 60.7738 102.999 61.0376 103.682 61.5652C104.366 62.0868 104.707 62.8542 104.707 63.8675C104.707 64.8327 104.351 65.5882 103.637 66.1338C102.924 66.6794 101.973 66.9521 100.786 66.9521H96.7033ZM99.0056 65.2614H100.543C101.737 65.2614 102.333 64.7968 102.333 63.8675C102.333 63.4178 102.192 63.07 101.91 62.8242C101.629 62.5724 101.224 62.4465 100.696 62.4465H99.0056V65.2614ZM106.23 66.9521L108.658 63.5617C107.999 63.3698 107.486 63.0491 107.12 62.5994C106.755 62.1497 106.572 61.5981 106.572 60.9446C106.572 60.0093 106.914 59.2779 107.597 58.7503C108.287 58.2227 109.207 57.9589 110.358 57.9589H114.396V66.9521H112.193V63.7595H111.06L108.802 66.9521H106.23ZM110.448 62.1407H112.193V59.6496H110.601C109.438 59.6496 108.856 60.0603 108.856 60.8817C108.856 61.2834 108.991 61.5951 109.261 61.817C109.531 62.0328 109.926 62.1407 110.448 62.1407ZM127.754 67.2219C126.447 67.2219 125.302 66.9521 124.319 66.4126C123.335 65.873 122.571 65.1145 122.025 64.1372C121.48 63.154 121.207 61.9998 121.207 60.6748C121.207 59.7155 121.366 58.8342 121.684 58.0308C122.007 57.2274 122.463 56.5319 123.051 55.9444C123.638 55.3568 124.334 54.9011 125.137 54.5774C125.94 54.2536 126.822 54.0917 127.781 54.0917C128.77 54.0917 129.616 54.2177 130.317 54.4695C131.019 54.7153 131.642 55.066 132.188 55.5217L130.992 57.4372C130.224 56.7178 129.208 56.3581 127.943 56.3581C126.612 56.3581 125.563 56.7448 124.795 57.5182C124.034 58.2856 123.653 59.3288 123.653 60.6479C123.653 62.0028 124.043 63.0581 124.822 63.8135C125.608 64.5689 126.675 64.9466 128.024 64.9466C128.629 64.9466 129.22 64.8567 129.796 64.6768C130.377 64.491 130.926 64.1912 131.441 63.7775L132.52 65.747C131.915 66.2147 131.219 66.5774 130.434 66.8352C129.649 67.093 128.755 67.2219 127.754 67.2219ZM134.467 66.9521V57.9589H136.77V61.3493H138.029L140.277 57.9589H142.723L139.944 62.0868L143.128 66.9521H140.385L138.092 63.2199H136.77V66.9521H134.467ZM144.958 70.7293V57.9589H146.99V59.146C147.338 58.7143 147.785 58.3636 148.33 58.0938C148.876 57.824 149.535 57.6891 150.309 57.6891C151.178 57.6891 151.952 57.8929 152.629 58.3006C153.307 58.7083 153.837 59.2719 154.221 59.9913C154.611 60.7048 154.806 61.5262 154.806 62.4555C154.806 63.3428 154.611 64.1462 154.221 64.8657C153.837 65.5852 153.304 66.1577 152.62 66.5834C151.943 67.0091 151.16 67.2219 150.273 67.2219C149.625 67.2219 149.05 67.111 148.546 66.8892C148.043 66.6614 147.611 66.3526 147.251 65.9629V70.7293H144.958ZM149.886 65.2075C150.648 65.2075 151.277 64.9616 151.775 64.47C152.272 63.9724 152.521 63.3009 152.521 62.4555C152.521 61.6101 152.269 60.9416 151.766 60.45C151.268 59.9524 150.642 59.7036 149.886 59.7036C149.125 59.7036 148.495 59.9524 147.998 60.45C147.5 60.9416 147.251 61.6101 147.251 62.4555C147.251 63.3009 147.497 63.9724 147.989 64.47C148.486 64.9616 149.119 65.2075 149.886 65.2075ZM156.889 66.9521V57.9589H159.191V60.7738H160.972C162.159 60.7738 163.094 61.0376 163.778 61.5652C164.461 62.0868 164.803 62.8542 164.803 63.8675C164.803 64.8327 164.446 65.5882 163.733 66.1338C163.019 66.6794 162.069 66.9521 160.882 66.9521H156.889ZM166.161 66.9521V57.9589H168.463V66.9521H166.161ZM159.191 65.2614H160.639C161.832 65.2614 162.429 64.7968 162.429 63.8675C162.429 63.4178 162.288 63.07 162.006 62.8242C161.724 62.5724 161.319 62.4465 160.792 62.4465H159.191V65.2614ZM171.296 66.9521V57.9589H173.599V61.3493H177.744V57.9589H180.047V66.9521H177.744V63.2199H173.599V66.9521H171.296ZM182.876 66.9521V57.9589H185.178V61.3493H189.324V57.9589H191.626V66.9521H189.324V63.2199H185.178V66.9521H182.876ZM194.455 66.9521V57.9589H196.668V63.6426L201.209 57.9589H203.242V66.9521H201.03V61.1964L196.461 66.9521H194.455ZM206.07 66.9521V57.9589H208.372V61.3493H209.631L211.88 57.9589H214.326L211.547 62.0868L214.731 66.9521H211.988L209.694 63.2199H208.372V66.9521H206.07ZM220.549 67.2219C219.59 67.2219 218.738 67.0061 217.995 66.5744C217.257 66.1368 216.679 65.5582 216.259 64.8387C215.839 64.1133 215.63 63.3189 215.63 62.4555C215.63 61.6041 215.839 60.8187 216.259 60.0993C216.679 59.3738 217.257 58.7922 217.995 58.3546C218.738 57.9109 219.59 57.6891 220.549 57.6891C221.502 57.6891 222.348 57.9079 223.085 58.3456C223.828 58.7772 224.41 59.3528 224.83 60.0723C225.255 60.7917 225.468 61.5862 225.468 62.4555C225.468 63.3009 225.255 64.0863 224.83 64.8117C224.41 65.5372 223.828 66.1218 223.085 66.5654C222.348 67.0031 221.502 67.2219 220.549 67.2219ZM220.549 65.2075C221.304 65.2075 221.931 64.9616 222.428 64.47C222.932 63.9724 223.184 63.3009 223.184 62.4555C223.184 61.6101 222.935 60.9416 222.437 60.45C221.94 59.9524 221.31 59.7036 220.549 59.7036C219.781 59.7036 219.149 59.9524 218.651 60.45C218.16 60.9416 217.914 61.6101 217.914 62.4555C217.914 63.3009 218.163 63.9724 218.66 64.47C219.158 64.9616 219.787 65.2075 220.549 65.2075ZM227.543 66.9521V57.9589H231.977C233.008 57.9589 233.829 58.1537 234.441 58.5434C235.052 58.9271 235.358 59.5057 235.358 60.2791C235.358 60.6988 235.241 61.0615 235.007 61.3673C234.78 61.6671 234.474 61.9069 234.09 62.0868C234.618 62.2786 235.025 62.5604 235.313 62.9321C235.601 63.3039 235.745 63.7475 235.745 64.2632C235.745 65.0965 235.427 65.753 234.792 66.2327C234.156 66.7123 233.269 66.9521 232.13 66.9521H227.543ZM231.608 59.5956H229.755V61.6101H231.608C232.112 61.6101 232.501 61.5322 232.777 61.3763C233.053 61.2144 233.191 60.9596 233.191 60.6119C233.191 60.2581 233.05 60.0003 232.768 59.8385C232.492 59.6766 232.106 59.5956 231.608 59.5956ZM229.755 65.3154H231.824C232.351 65.3154 232.759 65.2254 233.047 65.0456C233.341 64.8597 233.488 64.5899 233.488 64.2362C233.488 63.5287 232.933 63.175 231.824 63.175H229.755V65.3154ZM240.551 67.2219C239.628 67.2219 238.872 66.9671 238.285 66.4575C237.697 65.9419 237.404 65.2404 237.404 64.3531C237.404 63.7056 237.613 63.148 238.033 62.6803C238.453 62.2127 239.103 61.8709 239.985 61.6551C240.872 61.4393 242.008 61.3853 243.393 61.4932V61.2954C243.393 60.7318 243.213 60.2821 242.854 59.9464C242.494 59.6046 241.936 59.4338 241.181 59.4338C240.713 59.4338 240.248 59.5057 239.787 59.6496C239.325 59.7875 238.896 60.0033 238.501 60.2971L237.88 58.6513C238.444 58.2736 239.04 58.0038 239.67 57.8419C240.299 57.6801 240.911 57.5991 241.505 57.5991C242.764 57.5991 243.762 57.8989 244.499 58.4985C245.237 59.098 245.605 60.0213 245.605 61.2684V66.9521H243.573V65.9269C243.273 66.3466 242.86 66.6674 242.332 66.8892C241.804 67.111 241.211 67.2219 240.551 67.2219ZM239.535 64.2452C239.535 64.6409 239.679 64.9466 239.967 65.1625C240.254 65.3723 240.647 65.4772 241.145 65.4772C241.78 65.4772 242.314 65.3064 242.746 64.9646C243.177 64.6229 243.393 64.1582 243.393 63.5707V62.9861C242.086 62.8302 241.115 62.8782 240.479 63.13C239.85 63.3758 239.535 63.7475 239.535 64.2452Z" fill="white"/>
<path fill-rule="evenodd" clip-rule="evenodd" d="M266.426 51.1621H305.359C306.569 51.1621 307.288 49.8099 306.61 48.8071L275.809 3.20044H272.717C269.242 3.20044 266.426 6.01709 266.426 9.49162V51.1621ZM266.426 60.7246V65.4831C266.426 68.9576 269.242 71.7743 272.717 71.7743H328.708C332.183 71.7743 335 68.9576 335 65.4831V60.7246H266.426ZM335 51.1621V9.49162C335 6.01709 332.183 3.20044 328.708 3.20044H287.166L318.771 48.9882C319.711 50.3494 321.259 51.1621 322.913 51.1621H335Z" fill="#FF5501"/>
</svg>
