<svg width="922" height="954" viewBox="0 0 922 954" fill="none" xmlns="http://www.w3.org/2000/svg">
<path d="M114 671.213L606 591V954L114 914.573V671.213Z" fill="white"/>
<path d="M375.647 455.144L996.441 170.306L1082.75 581.504L493.56 772.892L375.647 455.144Z" fill="#FF5501"/>
<path d="M0 0L807 125.149L683.459 441H147.452L0 0Z" fill="#AD00FF"/>
<path d="M169.8 185L171.52 178H165.52L163.8 185H159L160.72 178H153.4L154.6 173.4H161.8L163 168.6H155.8L157 164H164.12L165.8 157H170.6L168.92 164H174.92L176.6 157H181.4L179.72 164H187L185.8 168.6H178.6L177.4 173.4H184.6L183.4 178H176.32L174.6 185H169.8ZM166.6 173.4H172.6L173.8 168.6H167.8L166.6 173.4ZM185.002 185L194.602 157H206.602L216.202 185H210.802L207.802 176.2L192.602 178.8L190.402 185H185.002ZM194.202 173.8L206.202 171.8L202.802 161.8H198.402L194.202 173.8ZM232.194 185H218.994V157H245.794V169.4C245.794 178.6 243.394 185 232.194 185ZM232.194 180.2C239.194 180.2 240.594 177.2 240.594 169.4V161.8H224.194V180.2H232.194ZM263.975 185.8C253.975 185.8 248.575 178.6 248.575 171C248.575 163.4 253.975 156.2 263.975 156.2C273.975 156.2 279.375 163.4 279.375 171C279.375 178.6 273.975 185.8 263.975 185.8ZM263.975 181C269.975 181 274.175 176.6 274.175 171C274.175 165.4 269.975 161 263.975 161C257.975 161 253.775 165.4 253.775 171C253.775 176.6 257.975 181 263.975 181ZM297.178 185.8C287.178 185.8 281.778 178.6 281.778 171C281.778 163.4 287.178 156.2 297.178 156.2C307.178 156.2 312.578 163.4 312.578 171C312.578 178.6 307.178 185.8 297.178 185.8ZM297.178 181C303.178 181 307.378 176.6 307.378 171C307.378 165.4 303.178 161 297.178 161C291.178 161 286.978 165.4 286.978 171C286.978 176.6 291.178 181 297.178 181ZM316.181 185V157H339.381V161.8H321.381V167.4H334.781V172.2H321.381V185H316.181ZM342.978 185V157H366.178V161.8H348.178V167.4H361.578V172.2H348.178V185H342.978Z" fill="white"/>
<path d="M518.8 504L520.52 497H514.52L512.8 504H508L509.72 497H502.4L503.6 492.4H510.8L512 487.6H504.8L506 483H513.12L514.8 476H519.6L517.92 483H523.92L525.6 476H530.4L528.72 483H536L534.8 487.6H527.6L526.4 492.4H533.6L532.4 497H525.32L523.6 504H518.8ZM515.6 492.4H521.6L522.8 487.6H516.8L515.6 492.4ZM538.814 504V476H562.014V480.8H544.014V486.4H557.414V491.2H544.014V504H538.814ZM565.611 504V476H588.811V480.8H570.811V486.4H584.211V491.2H570.811V504H565.611ZM607.008 485.6C616.408 485.64 618.008 492.6 618.008 495.4C618.008 500.2 613.808 504.8 604.008 504.8C595.208 504.8 591.608 500 590.408 498.6L594.808 495.8C596.008 497.2 599.008 500 604.008 500C609.608 500 612.808 498.2 612.808 495.2C612.808 493.4 611.608 490.2 605.608 490.2H592.408L594.408 476H616.008V480.8H598.808L598.008 485.6H607.008ZM636.227 485.6C645.627 485.64 647.227 492.6 647.227 495.4C647.227 500.2 643.027 504.8 633.227 504.8C624.427 504.8 620.827 500 619.627 498.6L624.027 495.8C625.227 497.2 628.227 500 633.227 500C638.827 500 642.027 498.2 642.027 495.2C642.027 493.4 640.827 490.2 634.827 490.2H621.627L623.627 476H645.227V480.8H628.027L627.227 485.6H636.227ZM665.045 504.8C655.045 504.8 649.645 497.6 649.645 490C649.645 482.4 655.045 475.2 665.045 475.2C675.045 475.2 680.445 482.4 680.445 490C680.445 497.6 675.045 504.8 665.045 504.8ZM665.045 500C671.045 500 675.245 495.6 675.245 490C675.245 484.4 671.045 480 665.045 480C659.045 480 654.845 484.4 654.845 490C654.845 495.6 659.045 500 665.045 500ZM687.638 504V480.8H681.238V476H692.838V504H687.638Z" fill="white"/>
<path d="M193.8 829L195.52 822H189.52L187.8 829H183L184.72 822H177.4L178.6 817.4H185.8L187 812.6H179.8L181 808H188.12L189.8 801H194.6L192.92 808H198.92L200.6 801H205.4L203.72 808H211L209.8 812.6H202.6L201.4 817.4H208.6L207.4 822H200.32L198.6 829H193.8ZM190.6 817.4H196.6L197.8 812.6H191.8L190.6 817.4ZM213.814 829V801H237.014V805.8H219.014V811.4H232.414V816.2H219.014V829H213.814ZM240.611 829V801H263.811V805.8H245.811V811.4H259.211V816.2H245.811V829H240.611ZM267.408 829V801H290.608V805.8H272.608V811.4H286.008V816.2H272.608V829H267.408ZM294.205 829V801H317.405V805.8H299.405V811.4H312.805V816.2H299.405V829H294.205ZM321.002 829V801H344.202V805.8H326.202V811.4H339.602V816.2H326.202V829H321.002ZM347.798 829V801H370.998V805.8H352.998V811.4H366.398V816.2H352.998V829H347.798Z" fill="#FF5501"/>
</svg>
