<svg width="66" height="66" viewBox="0 0 66 66" fill="none" xmlns="http://www.w3.org/2000/svg">
<path fill-rule="evenodd" clip-rule="evenodd" d="M33 58C46.8071 58 58 46.8071 58 33C58 19.1929 46.8071 8 33 8C19.1929 8 8 19.1929 8 33C8 46.8071 19.1929 58 33 58ZM29.5635 29.8495C29.5618 30.4087 29.5602 30.9679 29.5602 31.5269L29.5588 31.5256V36.9075C29.5588 38.5814 29.4792 38.6318 27.9979 37.7942C25.6627 36.4736 24.3461 34.3659 23.4455 31.9417C22.6781 29.8748 22.361 27.7234 22.2649 25.5366C22.2347 24.8517 21.9285 24.6498 21.2792 24.6676C20.4887 24.6907 19.6977 24.6865 18.9068 24.6824C18.4862 24.6802 18.0656 24.6779 17.6452 24.6798C16.7062 24.6839 16.6321 24.7453 16.676 25.7071C16.7941 28.235 17.1949 30.7138 17.95 33.1381C20.2166 40.4081 26.3738 44.8145 33.9986 44.6331C34.6342 44.6181 34.836 44.3794 34.8264 43.7791C34.8099 42.6868 34.8133 41.5944 34.8167 40.5021C34.8181 40.0501 34.8196 39.5982 34.8196 39.1462C34.8196 37.3959 34.8223 37.3877 36.5068 37.9115C39.3239 38.7887 41.2912 40.6468 42.4389 43.2921C42.8891 44.3316 43.4081 44.7682 44.5558 44.6467C45.2835 44.5692 46.0209 44.5876 46.7587 44.6061C47.0982 44.6146 47.4377 44.6231 47.7765 44.6222C48.7636 44.6208 48.8144 44.5608 48.4821 43.6168C47.1848 39.9347 44.8317 37.1053 41.4737 35.093C41.0871 34.8614 40.8939 34.7475 40.8884 34.6252C40.883 34.5026 41.0662 34.3717 41.4326 34.1053C44.391 31.9512 46.4284 29.1545 47.3976 25.6198C47.62 24.8081 47.528 24.6867 46.7015 24.6812C46.2443 24.6781 45.7868 24.68 45.3293 24.6819C44.5974 24.6849 43.8656 24.6879 43.1349 24.6703C42.561 24.6566 42.2727 24.8804 42.0929 25.4206C41.6303 26.8135 40.9068 28.0795 39.9677 29.2091C38.8049 30.6102 37.4815 31.8161 35.6721 32.3536C34.9349 32.5719 34.8237 32.4928 34.8223 31.7397C34.8213 31.359 34.82 30.9782 34.8186 30.5975C34.8127 28.9115 34.8068 27.2256 34.8292 25.5407C34.8388 24.8831 34.5821 24.6539 33.9409 24.6703C32.7768 24.7003 31.6085 24.7071 30.4443 24.6689C29.74 24.6457 29.5382 24.9377 29.5492 25.6007C29.5718 27.0161 29.5677 28.4328 29.5635 29.8495Z" fill="url(#paint0_linear_195_21579)"/>
<defs>
<linearGradient id="paint0_linear_195_21579" x1="7.26587" y1="36.4722" x2="36.5715" y2="36.4836" gradientUnits="userSpaceOnUse">
<stop offset="0.0938744" stop-color="#FF5501"/>
<stop offset="1" stop-color="#F58229"/>
</linearGradient>
</defs>
</svg>
