<svg width="44" height="35" viewBox="0 0 44 35" fill="none" xmlns="http://www.w3.org/2000/svg">
<path fill-rule="evenodd" clip-rule="evenodd" d="M3.01262 15.0952C14.8214 10.1715 22.6826 6.89974 26.6301 5.31248C37.8653 0.80983 40.227 0.0323932 41.7453 0C42.0827 0 42.8249 0.0647868 43.331 0.453505C43.7359 0.777436 43.8371 1.19855 43.9046 1.52248C43.9721 1.84641 44.0395 2.52667 43.972 3.04496C43.3647 9.19966 40.7331 24.1329 39.3835 31.0003C38.8099 33.9156 37.6966 34.8874 36.6169 34.9846C34.2551 35.179 32.467 33.4945 30.2064 32.0692C26.6301 29.8341 24.6395 28.4412 21.1643 26.2385C17.1494 23.7118 19.7473 22.3189 22.0415 20.0514C22.6489 19.4683 33.0068 10.3982 33.2092 9.58838C33.243 9.4912 33.243 9.10248 33.0068 8.90812C32.7706 8.71376 32.4332 8.77855 32.1633 8.84333C31.7922 8.90812 26.124 12.5362 15.0913 19.695C13.4718 20.764 12.021 21.2823 10.7052 21.2499C9.25438 21.2175 6.48776 20.4725 4.39593 19.8246C1.86549 19.0472 -0.158866 18.6261 0.00983065 17.2656C0.111048 16.5529 1.12322 15.8403 3.01262 15.0952Z" fill="white"/>
</svg>
