<svg width="75" height="75" viewBox="0 0 75 75" fill="none" xmlns="http://www.w3.org/2000/svg">
<path d="M37.4453 0.000555358C37.5942 0.000870636 37.7431 0.00118591 37.8965 0.00151075C40.0339 0.00877709 42.1308 0.0454809 44.2301 0.485142C44.3727 0.514207 44.5154 0.543271 44.6623 0.573217C51.7408 2.05377 58.1764 5.25994 63.396 10.2866C63.5406 10.4253 63.5406 10.4253 63.6883 10.5668C65.0764 11.9046 66.3551 13.2647 67.4925 14.8216C67.618 14.99 67.7435 15.1584 67.8691 15.3268C68.7525 16.5251 69.5365 17.7705 70.2722 19.064C70.3256 19.1565 70.3789 19.2489 70.4338 19.3441C73.5949 24.8663 75.0238 31.1227 74.9997 37.4418C74.9994 37.5907 74.9991 37.7396 74.9987 37.893C74.9915 40.0302 74.9548 42.1268 74.5151 44.226C74.4715 44.4399 74.4715 44.4399 74.427 44.6581C72.9463 51.7359 69.7398 58.171 64.7127 63.39C64.6202 63.4865 64.5277 63.5829 64.4324 63.6823C63.0946 65.0704 61.7343 66.3489 60.1773 67.4862C60.0089 67.6117 59.8405 67.7372 59.6721 67.8627C58.4739 68.746 57.2299 69.5334 55.9344 70.2657C55.831 70.3245 55.7275 70.3833 55.6209 70.444C52.2361 72.3495 48.5535 73.6293 44.7513 74.4075C44.6461 74.4291 44.541 74.4506 44.4326 74.4728C42.2855 74.8809 40.1604 74.998 37.9789 74.9931C37.5489 74.9927 37.1189 74.9961 36.6889 74.9998C34.7323 75.0064 32.8456 74.83 30.9164 74.5081C30.6669 74.4668 30.6669 74.4668 30.4123 74.4247C24.0821 73.2877 18.0764 70.3638 13.2136 66.1695C13.1046 66.0768 12.9956 65.984 12.8833 65.8884C10.9075 64.1605 9.05361 62.2952 7.50778 60.1716C7.38248 60.0034 7.25713 59.8352 7.13174 59.667C6.24806 58.4689 5.46045 57.2248 4.72801 55.9292C4.66916 55.8258 4.61032 55.7223 4.5497 55.6157C2.64403 52.2312 1.36403 48.5489 0.585772 44.7471C0.564213 44.642 0.542654 44.5368 0.520442 44.4284C0.0853546 42.1395 -0.00829652 39.8759 0.00055541 37.5515C0.000870718 37.4026 0.00118603 37.2537 0.00151089 37.1002C0.00877791 34.9631 0.0454851 32.8664 0.485188 30.7673C0.514255 30.6246 0.543322 30.482 0.57327 30.3351C2.05396 23.2573 5.26044 16.8222 10.2876 11.6032C10.38 11.5068 10.4725 11.4103 10.5678 11.3109C11.9057 9.92288 13.2659 8.64431 14.823 7.50708C14.9914 7.38156 15.1598 7.25603 15.3282 7.1305C16.5264 6.24726 17.7703 5.45981 19.0658 4.72756C19.1693 4.66873 19.2727 4.60989 19.3793 4.54927C22.7642 2.64378 26.4468 1.36391 30.2489 0.585717C30.3541 0.56416 30.4593 0.542604 30.5676 0.520394C32.8568 0.0853466 35.1206 -0.00829574 37.4453 0.000555358ZM47.2659 24.9339C46.9926 25.0425 46.7191 25.1509 46.4457 25.2592C43.2393 26.5298 40.0446 27.8288 36.8575 29.1467C36.4721 29.306 36.0865 29.4649 35.7009 29.6237C30.9759 31.5693 26.2662 33.5475 21.6133 35.6607C21.2813 35.8115 20.949 35.9619 20.6165 36.1119C18.863 36.9033 17.126 37.7182 15.4174 38.6029C15.2041 38.7128 15.2041 38.7128 14.9865 38.825C14.8558 38.8937 14.7251 38.9624 14.5904 39.0332C14.4759 39.0933 14.3615 39.1534 14.2435 39.2153C13.7682 39.507 13.5419 39.7035 13.3965 40.2487C13.551 40.905 13.8968 41.0235 14.4473 41.3732C15.0213 41.7086 15.6099 41.9836 16.222 42.2419C16.4177 42.3251 16.4177 42.3251 16.6174 42.41C19.76 43.7046 23.2244 44.8973 26.5273 43.6408C27.1539 43.3281 27.7449 42.9705 28.3378 42.5985C28.5777 42.4511 28.5777 42.4511 28.8224 42.3008C29.9252 41.6194 31.0153 40.9213 32.0834 40.1867C32.4296 39.9492 32.7771 39.7138 33.1247 39.4784C35.1937 38.0754 37.2431 36.6453 39.2855 35.204C43.9002 31.9525 43.9002 31.9525 45.2542 31.7913C45.1234 32.8616 44.7886 33.4272 44.0141 34.1605C43.9199 34.2536 43.8256 34.3468 43.7285 34.4427C43.4287 34.7378 43.1254 35.0291 42.8219 35.3205C42.6215 35.5171 42.4213 35.7139 42.2213 35.9109C41.3888 36.7269 40.5495 37.5269 39.6675 38.2895C39.26 38.6444 38.8648 39.012 38.4694 39.3801C37.9124 39.8966 37.3534 40.4101 36.7869 40.9162C36.1556 41.4823 35.5329 42.0572 34.9124 42.6351C34.822 42.7191 34.7316 42.803 34.6384 42.8896C32.9249 44.4504 32.9249 44.4504 31.9406 46.5118C31.9406 47.2327 32.1479 47.7681 32.6275 48.3095C33.0394 48.6823 33.4831 48.9913 33.9431 49.3004C34.0452 49.3698 34.1474 49.4392 34.2526 49.5107C34.4808 49.6657 34.7092 49.8204 34.9377 49.9749C35.3149 50.2302 35.6912 50.4866 36.0674 50.7433C37.9086 51.9991 39.7545 53.2479 41.601 54.496C41.8569 54.669 42.1127 54.8421 42.3685 55.0152C43.5638 55.8242 44.7598 56.6324 45.968 57.4218C46.1237 57.5239 46.2794 57.626 46.4399 57.7311C47.3299 58.2482 48.0891 58.3693 49.0856 58.1236C49.9985 57.794 50.6835 57.3065 51.1066 56.4162C51.5398 55.3937 51.6747 54.2916 51.8528 53.2028C51.8937 52.9606 51.9348 52.7184 51.9761 52.4762C52.0861 51.827 52.1939 51.1775 52.3013 50.5279C52.3912 49.9849 52.4824 49.4422 52.5736 48.8995C52.8256 47.3993 53.0746 45.8986 53.3222 44.3977C53.4372 43.7012 53.5529 43.0048 53.6688 42.3085C54.3252 38.3612 54.9514 34.4104 55.5047 30.4473C55.5261 30.2957 55.5476 30.1441 55.5697 29.9879C55.7766 28.5178 55.9618 27.0482 56.0619 25.5665C56.0709 25.4541 56.0799 25.3417 56.0892 25.2259C56.1283 24.5127 56.0239 24.056 55.6418 23.4527C53.5933 21.6527 49.3005 24.1201 47.2659 24.9339Z" fill="#FF5501"/>
</svg>
