<svg width="75" height="75" viewBox="0 0 75 75" fill="none" xmlns="http://www.w3.org/2000/svg">
<circle cx="37.5" cy="37.5" r="37.5" fill="#FF5501"/>
<path d="M32.3405 35.2906C32.3405 32.3275 32.3714 29.3624 32.324 26.4013C32.3076 25.4068 32.6103 24.9688 33.6667 25.0036C35.4129 25.0609 37.1654 25.0507 38.9116 25.0057C39.8733 24.9811 40.2584 25.3249 40.244 26.3112C40.2028 29.4094 40.2255 32.5096 40.2337 35.6099C40.2358 36.7394 40.4026 36.8581 41.5084 36.5307C44.2225 35.7245 46.2076 33.9155 47.9518 31.8139C49.3604 30.1195 50.4456 28.2205 51.1396 26.1312C51.4094 25.3208 51.8418 24.9852 52.7026 25.0057C54.4838 25.0487 56.2692 25.0098 58.0526 25.022C59.2922 25.0302 59.4302 25.2124 59.0966 26.4299C57.6428 31.732 54.5868 35.927 50.1491 39.1582C49.0515 39.9563 49.0494 39.944 50.2109 40.6398C55.2478 43.6581 58.7774 47.9023 60.7234 53.4254C61.2218 54.8414 61.1456 54.9315 59.665 54.9335C58.0526 54.9376 56.4278 54.8005 54.8339 54.9704C53.1124 55.1525 52.334 54.4977 51.6585 52.9383C49.937 48.9705 46.986 46.1833 42.7604 44.8675C40.2337 44.0817 40.2296 44.094 40.2296 46.7195C40.2296 49.036 40.2049 51.3524 40.2399 53.6689C40.2543 54.5693 39.9516 54.9274 38.9981 54.9499C27.5609 55.2221 18.3251 48.6124 14.9253 37.7074C13.7927 34.071 13.1914 30.3528 13.0143 26.5609C12.9484 25.1182 13.0596 25.0261 14.4681 25.02C16.2844 25.0118 18.1027 25.0548 19.919 25.0016C20.893 24.975 21.3522 25.2778 21.3976 26.3051C21.5417 29.5854 22.0174 32.8125 23.1685 35.9127C24.5194 39.5491 26.4942 42.7107 29.9971 44.6916C32.219 45.948 32.3385 45.8723 32.3385 43.3614C32.3385 40.6705 32.3385 37.9795 32.3385 35.2886L32.3405 35.2906Z" fill="black"/>
</svg>
