<?xml version="1.0" encoding="UTF-8"?>
<svg id="Layer_1" data-name="Layer 1" xmlns="http://www.w3.org/2000/svg" width="1606" height="3469.29" viewBox="0 0 1606 3469.29">
  <defs>
    <style>
      .cls-1 {
        fill: #fff;
        fill-rule: evenodd;
      }
    </style>
  </defs>
  <path class="cls-1" d="M1255.53,204.25l-22.49-44.46,66.28-42.59-10.44-62.94L1452.05,0l-144.96,65.77,11.73,54.37-58.77,43.72,18.58,35.35,92.39-46.22,20.43,23.35,161.8-26.05-162.35,36.84-20.62-19.31-54.57,25.9,37.61,25.04,102.93-14.14-103.47,24.92-30.76-18.16-101.64,22.1-9.66,64-69.63,41.86,126.99,23.63,152.44,18.58-131.66-4.7-37.57-7.01-71.79,148.44-36-46-93.36,56.13-97.64,323.87h-118.71l-.74,32.12,49.71,29.59,87.99,180.86,137.65,38.83-14.45,5.85-146.68-35.17-17.36-35.45-21,34.18,27.26,108.77,22.48,91.8-52.67-130.01-17.45-100.14,21.56-45.11-23.79-48.58-43.27-49.73-11.39,16.24,24.66,33.61-44.89,135.37,21.77,29.28-44.16,93.51,25.3-73.4-26.74-42.35,15.16-54.63-24.98,1.83-9.75,39.92-60.56,46.83-10.77,95.83-4.79-66.59-50.85,41.54-53.43,41.65,67.49,23.92-40.34,104.87,66.97,52.76-24.62,208h764.38v512l58,103-24,72v-72l-70.5-71H587.4l-15.54,18.95,13.18,47.5,100.05,54.5,3.33,50.62,143.96,100.67,22.38-55.25-71.69-119.05,269.04,99.66,183.3,96.59-221.83-96.41-190.73-70.74,64.57,103.19-25.41,62.73,89.49,62.57,52,27,236.8-40.34,123.16,109.54-130.29-96.45-181.67,38.2,167.65,34.81,42.26-6.69,194.91,169.21-202.04-156.11-44.94,11.59-235.7-40.88,85.86,73.59h96l156,32,60,136-29.63,76h58.63l-161,441,366.5,103H376.5l-173-469.5L0,2925.29H280.41l-48.37-104,127.07-89.86,16.4-86.14,455.22-107.33-34.3-26.74-62.37-50.95-5.87,81.69-13.22-117.56-74.29-57.44-11.96-48.96-30.64-2.25,18.59,67.01-32.79,51.94,31.03,90.05-54.17-114.71,26.71-35.92-55.06-166.04,4.25-5.79h-109.14l19.71,41.23-21.4,122.83-91.3,188.94,11.18-35.75,43.07-106.31,33.43-133.43-25.75-41.93-21.29,43.5-179.92,43.13-17.72-7.17,168.85-47.63,105.52-216.89,145.54-392.91-.4-.11,53.45-203.79-61.02-43.01,30.59-98.92-63.27-21.26-4.11,3.2-78.34,106.69-36.64-9.45-164.71,127.27,158.89-137.94,34.46,5.45,45.36-59.32-56.79-.2-106.22,78.63,100.41-89.3,45.07-2.06,100.05-85.44-27.31-67.42,52.64-84.12-155.49,57.67-180.84,78.6,149.44-78.75,219.33-81.24-58.44,97.05,23.71,58.54,111.9-95.56,2.71-41.27,81.57-44.44,10.74-38.72-18.34-22.36-4.28-116.03H237.5V308.29H946.78l81.98-81.21-2.38-32.14,67.87-52.82-47.06,45.57,.29,44.4-32.58,35.52,17.33,9.53,22.93-26.53,59.51-9.61,46.66-69.24-24.28,53.5,50.88-9.78,67.6-11.22Zm65.28,2721.04l14.69-36-24-112-56,72v40l-13.05,36h78.36Zm-96.39,0l11.08-36-22-40,66-108-124-28h-96l-158.79-113.42-477.21,65.42-33.32,85.1-110.68,70.9,49,104h895.92Zm-114.64-2581.84l132.21,24.66-62.49,117.17-36-52-78.97,47.38,51.97-172.38h-138.92l14.46-15.77,72.46,1.45,18.82-30.66,113.68-24.72-8.4,55.57-78.81,49.3Z"/>
</svg>