<svg width="1440" height="3470" viewBox="0 0 1440 3470" fill="none" xmlns="http://www.w3.org/2000/svg">
<path fill-rule="evenodd" clip-rule="evenodd" d="M1141.03 204.956L1118.54 160.491L1184.82 117.902L1174.38 54.9589L1337.55 0.707079L1192.59 66.4759L1204.32 120.848L1145.55 164.57L1164.13 199.921L1256.52 153.703L1276.95 177.053L1438.75 150.999L1276.4 187.839L1255.78 168.533L1201.21 194.434L1238.82 219.477L1341.75 205.339L1238.28 230.263L1207.52 212.104L1105.88 234.207L1096.22 298.206L1026.59 340.062L1153.58 363.691L1306.02 382.272L1174.36 377.568L1136.79 370.56L1065 519L1029 473L935.638 529.128L838 853H719.291L718.554 885.122L768.267 914.709L856.26 1095.57L993.911 1134.4L979.466 1140.25L832.786 1105.08L815.428 1069.63L794.432 1103.81L821.687 1212.58L844.163 1304.38L791.489 1174.37L774.041 1074.23L795.601 1029.12L771.815 980.538L728.542 930.804L717.153 947.046L741.812 980.661L696.924 1116.03L718.698 1145.31L674.535 1238.82L699.835 1165.42L673.099 1123.07L688.254 1068.44L663.277 1070.27L653.529 1110.19L592.967 1157.02L582.193 1252.85L577.404 1186.26L526.556 1227.8L473.122 1269.45L540.609 1293.37L500.272 1398.24L567.24 1451L542.621 1659H1307V2171L1365 2274L1341 2346V2274L1270.5 2203H472.905L457.362 2221.95L470.538 2269.45L570.587 2323.95L573.912 2374.57L717.875 2475.24L740.257 2419.99L668.569 2300.94L937.608 2400.6L1120.91 2497.19L899.081 2400.78L708.348 2330.04L772.922 2433.23L747.508 2495.96L837.001 2558.53L889.001 2585.53L1125.8 2545.19L1248.96 2654.73L1118.67 2558.28L937.001 2596.48L1104.65 2631.29L1146.91 2624.6L1341.82 2793.81L1139.78 2637.7L1094.84 2649.29L859.144 2608.41L945 2682H1041L1197 2714L1257 2850L1227.37 2926H1286L1125 3367L1491.5 3470H1057.3H262L89 3000.5L-114.5 2926H165.906L117.532 2822L244.601 2732.14L261 2646L716.219 2538.67L681.919 2511.93L619.548 2460.98L613.675 2542.67L600.459 2425.11L526.172 2367.67L514.215 2318.71L483.579 2316.46L502.167 2383.47L469.372 2435.41L500.406 2525.46L446.234 2410.75L472.943 2374.83L417.882 2208.79L422.127 2203H312.99L332.699 2244.23L311.297 2367.06L220 2556L231.181 2520.25L274.255 2413.94L307.687 2280.51L281.933 2238.58L260.64 2282.08L80.7197 2325.21L63.0005 2318.04L231.846 2270.41L337.369 2053.52L482.904 1660.61L482.499 1660.5L535.953 1456.71L474.932 1413.7L505.523 1314.78L442.256 1293.52L438.142 1296.72L359.803 1403.41L323.163 1393.96L158.456 1521.23L317.349 1383.29L351.808 1388.74L397.172 1329.42L340.379 1329.22L234.156 1407.85L334.564 1318.55L379.629 1316.49L479.679 1231.05L452.367 1163.63L505.011 1079.51L349.516 1137.18L168.671 1215.78L318.107 1137.03L537.44 1055.79L478.997 1152.84L502.712 1211.38L614.609 1115.82L617.32 1074.55L698.885 1030.11L709.626 991.392L691.288 969.033L687.005 853H123V309H832.281L914.265 227.785L911.884 195.646L979.756 142.822L932.696 188.392L932.982 232.788L900.399 268.311L917.731 277.84L940.658 251.307L1000.17 241.7L1046.83 172.456L1022.55 225.953L1073.43 216.173L1141.03 204.956ZM1206.31 2926L1221 2890L1197 2778L1141 2850V2890L1127.95 2926H1206.31ZM1109.92 2926L1121 2890L1099 2850L1165 2742L1041 2714H945L786.207 2600.58L309 2666L275.683 2751.1L165 2822L214.004 2926H1109.92ZM995.281 344.163L1127.49 368.825L1065 486L1029 434L950.032 481.381L1002 309H863.077L877.541 293.232L949.998 294.679L968.813 264.016L1082.49 239.295L1074.09 294.864L995.281 344.163Z" fill="white"/>
</svg>
