<svg width="1440" height="918" viewBox="0 0 1440 918" fill="none" xmlns="http://www.w3.org/2000/svg">
<path d="M225.236 95.9496L204.617 334.227L402.09 192.498L260.311 386.499L506.919 360.323L281.97 458.065L511.635 554.457L263.791 529.75L414.973 722.881L210.644 582.346L242.835 820.466L136.77 601.758L41.3443 821.064L61.9635 582.787L-135.51 724.516L6.26906 530.515L-240.339 556.691L-15.3901 458.949L-245.054 362.557L2.78943 387.264L-148.393 194.134L55.9365 334.669L23.7454 96.5483L129.811 315.256L225.236 95.9496Z" fill="#FF0000"/>
<path d="M75 79C75 54.6995 94.6995 35 119 35H884.663C898.137 35 910.869 41.1741 919.212 51.7546L1253.46 475.616C1263.81 488.733 1254.46 508 1237.76 508H119C94.6995 508 75 488.301 75 464V79Z" fill="white"/>
<path d="M1634 464C1634 488.301 1614.3 508 1590 508H1379.34C1365.86 508 1353.13 501.826 1344.79 491.245L1010.54 67.3842C1000.19 54.267 1009.54 35 1026.24 35H1590C1614.3 35 1634 54.6994 1634 79V464Z" fill="url(#paint0_linear_26_181)"/>
<defs>
<linearGradient id="paint0_linear_26_181" x1="1309.5" y1="508" x2="1309.5" y2="35" gradientUnits="userSpaceOnUse">
<stop stop-color="#FF0000"/>
<stop offset="1" stop-color="#FF0000" stop-opacity="0"/>
</linearGradient>
</defs>
</svg>
