<svg width="799" height="414" viewBox="0 0 799 414" fill="none" xmlns="http://www.w3.org/2000/svg">
<path d="M11.912 405V382.6H29.928V405H26.344V385.88H15.496V405H11.912ZM46.1558 405.48C44.4704 405.48 42.9078 405.187 41.4678 404.6C40.0384 404.003 38.7904 403.176 37.7238 402.12C36.6678 401.064 35.8411 399.827 35.2438 398.408C34.6571 396.989 34.3638 395.453 34.3638 393.8C34.3638 392.136 34.6571 390.595 35.2438 389.176C35.8411 387.757 36.6678 386.52 37.7238 385.464C38.7904 384.408 40.0384 383.587 41.4678 383C42.9078 382.413 44.4704 382.12 46.1558 382.12C47.8304 382.12 49.3824 382.419 50.8118 383.016C52.2411 383.613 53.4891 384.445 54.5558 385.512C55.6224 386.579 56.4491 387.821 57.0358 389.24C57.6331 390.648 57.9318 392.168 57.9318 393.8C57.9318 395.453 57.6331 396.989 57.0358 398.408C56.4491 399.827 55.6224 401.064 54.5558 402.12C53.4891 403.176 52.2411 404.003 50.8118 404.6C49.3824 405.187 47.8304 405.48 46.1558 405.48ZM46.1558 402.088C47.2864 402.088 48.3371 401.896 49.3078 401.512C50.2891 401.117 51.1424 400.557 51.8678 399.832C52.5931 399.096 53.1584 398.221 53.5638 397.208C53.9798 396.184 54.1878 395.048 54.1878 393.8C54.1878 392.125 53.8304 390.669 53.1158 389.432C52.4118 388.184 51.4518 387.219 50.2358 386.536C49.0198 385.853 47.6598 385.512 46.1558 385.512C45.0251 385.512 43.9691 385.709 42.9878 386.104C42.0171 386.488 41.1638 387.043 40.4278 387.768C39.7024 388.493 39.1318 389.368 38.7158 390.392C38.3104 391.405 38.1078 392.541 38.1078 393.8C38.1078 395.475 38.4651 396.936 39.1798 398.184C39.8944 399.421 40.8544 400.381 42.0598 401.064C43.2758 401.747 44.6411 402.088 46.1558 402.088ZM76.5688 405V385.88H67.8008V389.32C67.8008 392.04 67.6728 394.328 67.4167 396.184C67.1608 398.04 66.7608 399.56 66.2168 400.744C65.6728 401.917 64.9581 402.829 64.0728 403.48C63.1981 404.131 62.1314 404.605 60.8728 404.904L59.5928 402.008C60.5528 401.784 61.3421 401.443 61.9608 400.984C62.5794 400.525 63.0594 399.843 63.4008 398.936C63.7528 398.019 63.9981 396.787 64.1368 395.24C64.2861 393.683 64.3608 391.709 64.3608 389.32V382.6H80.1528V405H76.5688ZM59.5928 410.696V402.008L62.0568 402.136L63.3848 401.704H83.7208V410.696H80.3448V405H62.9688V410.696H59.5928ZM93.6978 405.48C92.0124 405.48 90.4764 405.261 89.0898 404.824C87.7031 404.387 86.4924 403.763 85.4578 402.952L87.1538 400.072C87.9218 400.765 88.8498 401.309 89.9378 401.704C91.0258 402.088 92.1778 402.28 93.3938 402.28C94.4818 402.28 95.4204 402.125 96.2098 401.816C97.0098 401.507 97.6231 401.075 98.0498 400.52C98.4871 399.955 98.7111 399.293 98.7218 398.536C98.7218 397.352 98.3271 396.456 97.5378 395.848C96.7591 395.229 95.5431 394.92 93.8898 394.92H89.5218V392.04H93.6178C94.5244 392.04 95.3084 391.907 95.9698 391.64C96.6311 391.363 97.1431 390.973 97.5058 390.472C97.8684 389.96 98.0498 389.347 98.0498 388.632C98.0498 387.939 97.8684 387.357 97.5058 386.888C97.1538 386.408 96.6311 386.045 95.9378 385.8C95.2551 385.544 94.4231 385.416 93.4418 385.416C92.3858 385.416 91.3724 385.592 90.4018 385.944C89.4311 386.285 88.5938 386.765 87.8898 387.384L86.1938 384.744C87.1324 383.901 88.2631 383.256 89.5858 382.808C90.9191 382.349 92.3484 382.12 93.8738 382.12C95.4631 382.12 96.8391 382.36 98.0018 382.84C99.1644 383.309 100.055 383.992 100.674 384.888C101.303 385.773 101.618 386.829 101.618 388.056C101.618 388.76 101.452 389.448 101.122 390.12C100.791 390.781 100.359 391.368 99.8258 391.88C99.3031 392.381 98.7484 392.755 98.1618 393C99.4098 393.395 100.434 394.077 101.234 395.048C102.034 396.008 102.428 397.224 102.418 398.696C102.407 399.955 102.039 401.096 101.314 402.12C100.588 403.144 99.5698 403.96 98.2578 404.568C96.9564 405.176 95.4364 405.48 93.6978 405.48ZM104.461 405L113.165 382.6H117.053L125.981 405H121.933L119.869 399.656H110.381L108.397 405H104.461ZM111.309 396.568H118.909L115.037 386.808L111.309 396.568ZM129.225 405V382.6H141.913V385.88H132.809V405H129.225ZM155.062 405.48C153.377 405.48 151.814 405.187 150.374 404.6C148.945 404.003 147.697 403.176 146.63 402.12C145.574 401.064 144.747 399.827 144.15 398.408C143.563 396.989 143.27 395.453 143.27 393.8C143.27 392.136 143.563 390.595 144.15 389.176C144.747 387.757 145.574 386.52 146.63 385.464C147.697 384.408 148.945 383.587 150.374 383C151.814 382.413 153.377 382.12 155.062 382.12C156.737 382.12 158.289 382.419 159.718 383.016C161.147 383.613 162.395 384.445 163.462 385.512C164.529 386.579 165.355 387.821 165.942 389.24C166.539 390.648 166.838 392.168 166.838 393.8C166.838 395.453 166.539 396.989 165.942 398.408C165.355 399.827 164.529 401.064 163.462 402.12C162.395 403.176 161.147 404.003 159.718 404.6C158.289 405.187 156.737 405.48 155.062 405.48ZM155.062 402.088C156.193 402.088 157.243 401.896 158.214 401.512C159.195 401.117 160.049 400.557 160.774 399.832C161.499 399.096 162.065 398.221 162.47 397.208C162.886 396.184 163.094 395.048 163.094 393.8C163.094 392.125 162.737 390.669 162.022 389.432C161.318 388.184 160.358 387.219 159.142 386.536C157.926 385.853 156.566 385.512 155.062 385.512C153.931 385.512 152.875 385.709 151.894 386.104C150.923 386.488 150.07 387.043 149.334 387.768C148.609 388.493 148.038 389.368 147.622 390.392C147.217 391.405 147.014 392.541 147.014 393.8C147.014 395.475 147.371 396.936 148.086 398.184C148.801 399.421 149.761 400.381 150.966 401.064C152.182 401.747 153.547 402.088 155.062 402.088ZM170.019 405.384L168.675 402.088C169.39 401.864 170.003 401.592 170.515 401.272C171.027 400.952 171.454 400.52 171.795 399.976C172.147 399.421 172.419 398.701 172.611 397.816C172.814 396.92 172.958 395.795 173.043 394.44C173.128 393.075 173.171 391.411 173.171 389.448V382.6H188.835V405H185.251V385.88H176.611V389.32C176.611 391.645 176.542 393.651 176.403 395.336C176.264 397.011 176.035 398.429 175.715 399.592C175.406 400.744 174.995 401.699 174.483 402.456C173.982 403.203 173.358 403.805 172.611 404.264C171.875 404.723 171.011 405.096 170.019 405.384ZM205.062 405.48C203.377 405.48 201.814 405.187 200.374 404.6C198.945 404.003 197.697 403.176 196.63 402.12C195.574 401.064 194.747 399.827 194.15 398.408C193.563 396.989 193.27 395.453 193.27 393.8C193.27 392.136 193.563 390.595 194.15 389.176C194.747 387.757 195.574 386.52 196.63 385.464C197.697 384.408 198.945 383.587 200.374 383C201.814 382.413 203.377 382.12 205.062 382.12C206.737 382.12 208.289 382.419 209.718 383.016C211.147 383.613 212.395 384.445 213.462 385.512C214.529 386.579 215.355 387.821 215.942 389.24C216.539 390.648 216.838 392.168 216.838 393.8C216.838 395.453 216.539 396.989 215.942 398.408C215.355 399.827 214.529 401.064 213.462 402.12C212.395 403.176 211.147 404.003 209.718 404.6C208.289 405.187 206.737 405.48 205.062 405.48ZM205.062 402.088C206.193 402.088 207.243 401.896 208.214 401.512C209.195 401.117 210.049 400.557 210.774 399.832C211.499 399.096 212.065 398.221 212.47 397.208C212.886 396.184 213.094 395.048 213.094 393.8C213.094 392.125 212.737 390.669 212.022 389.432C211.318 388.184 210.358 387.219 209.142 386.536C207.926 385.853 206.566 385.512 205.062 385.512C203.931 385.512 202.875 385.709 201.894 386.104C200.923 386.488 200.07 387.043 199.334 387.768C198.609 388.493 198.038 389.368 197.622 390.392C197.217 391.405 197.014 392.541 197.014 393.8C197.014 395.475 197.371 396.936 198.086 398.184C198.801 399.421 199.761 400.381 200.966 401.064C202.182 401.747 203.547 402.088 205.062 402.088ZM221.256 405V382.6H228.952C231.096 382.6 232.829 383.08 234.152 384.04C235.474 384.989 236.136 386.392 236.136 388.248C236.136 388.963 235.965 389.64 235.624 390.28C235.293 390.909 234.861 391.464 234.328 391.944C233.794 392.424 233.24 392.776 232.664 393C233.88 393.373 234.893 394.056 235.704 395.048C236.525 396.04 236.936 397.261 236.936 398.712C236.936 399.939 236.626 401.027 236.008 401.976C235.389 402.915 234.509 403.656 233.368 404.2C232.226 404.733 230.872 405 229.304 405H221.256ZM224.84 402.184H228.696C230.232 402.184 231.373 401.885 232.12 401.288C232.866 400.68 233.24 399.768 233.24 398.552C233.24 397.347 232.861 396.429 232.104 395.8C231.357 395.171 230.2 394.856 228.632 394.856H224.84V402.184ZM224.84 392.168H228.392C229.256 392.168 230.002 392.029 230.632 391.752C231.261 391.475 231.752 391.075 232.104 390.552C232.456 390.029 232.632 389.4 232.632 388.664C232.632 387.619 232.258 386.819 231.512 386.264C230.776 385.699 229.72 385.416 228.344 385.416H224.84V392.168ZM255.409 405L246.241 393.176L254.385 382.6H258.801L250.609 393.16L260.033 405H255.409ZM241.537 405V382.6H245.121V391.496H249.281V394.792H245.121V405H241.537ZM263.787 405V382.6H267.355V399.144L278.555 382.6H282.011V405H278.459V388.344L267.211 405H263.787ZM287.242 409.832L286.01 408.2C286.81 407.816 287.514 407.352 288.122 406.808C288.74 406.275 289.162 405.747 289.386 405.224C288.895 405.256 288.452 405.181 288.058 405C287.663 404.829 287.348 404.579 287.114 404.248C286.879 403.907 286.762 403.507 286.762 403.048C286.762 402.365 286.986 401.811 287.434 401.384C287.892 400.947 288.468 400.728 289.161 400.728C289.962 400.728 290.602 400.995 291.082 401.528C291.572 402.051 291.818 402.771 291.818 403.688C291.818 404.392 291.647 405.101 291.306 405.816C290.964 406.541 290.452 407.24 289.77 407.912C289.098 408.595 288.255 409.235 287.242 409.832ZM303.823 405V389.16H307.343V395.272H315.279V389.16H318.799V405H315.279V398.184H307.343V405H303.823ZM328.098 405.48C326.999 405.48 326.034 405.277 325.202 404.872C324.37 404.456 323.719 403.875 323.25 403.128C322.791 402.371 322.562 401.48 322.562 400.456C322.562 399.592 322.781 398.813 323.218 398.12C323.655 397.416 324.333 396.835 325.25 396.376C326.178 395.917 327.367 395.613 328.818 395.464C330.269 395.304 332.013 395.325 334.05 395.528L334.114 397.96C332.663 397.757 331.415 397.672 330.37 397.704C329.325 397.736 328.466 397.869 327.794 398.104C327.133 398.328 326.642 398.632 326.322 399.016C326.013 399.389 325.858 399.821 325.858 400.312C325.858 401.08 326.13 401.672 326.674 402.088C327.229 402.504 327.986 402.712 328.946 402.712C329.767 402.712 330.503 402.563 331.154 402.264C331.805 401.965 332.317 401.544 332.69 401C333.074 400.456 333.266 399.816 333.266 399.08V394.872C333.266 394.168 333.117 393.56 332.818 393.048C332.519 392.525 332.066 392.12 331.458 391.832C330.85 391.544 330.093 391.4 329.186 391.4C328.354 391.4 327.533 391.528 326.722 391.784C325.911 392.029 325.138 392.419 324.402 392.952L323.41 390.36C324.402 389.688 325.437 389.213 326.514 388.936C327.591 388.659 328.626 388.52 329.618 388.52C331.09 388.52 332.349 388.755 333.394 389.224C334.45 389.683 335.261 390.381 335.826 391.32C336.391 392.248 336.674 393.421 336.674 394.84V405H333.506V403.128C332.973 403.885 332.231 404.467 331.282 404.872C330.333 405.277 329.271 405.48 328.098 405.48ZM348.942 405.48C347.609 405.48 346.403 405.251 345.326 404.792C344.249 404.333 343.331 403.672 342.574 402.808C341.817 401.933 341.235 400.872 340.83 399.624C340.435 398.365 340.238 396.936 340.238 395.336C340.238 393.576 340.371 391.997 340.638 390.6C340.915 389.203 341.347 387.992 341.934 386.968C342.531 385.944 343.315 385.101 344.286 384.44C345.267 383.779 346.457 383.304 347.854 383.016L355.438 381.48L356.014 384.536L348.638 385.96C347.401 386.216 346.43 386.627 345.726 387.192C345.022 387.757 344.505 388.477 344.174 389.352C343.843 390.227 343.625 391.256 343.518 392.44C344.19 391.533 345.027 390.808 346.03 390.264C347.033 389.72 348.201 389.448 349.534 389.448C351.038 389.448 352.366 389.805 353.518 390.52C354.681 391.224 355.587 392.168 356.238 393.352C356.889 394.536 357.214 395.848 357.214 397.288C357.214 398.408 357.017 399.464 356.622 400.456C356.238 401.448 355.678 402.323 354.942 403.08C354.206 403.827 353.331 404.413 352.318 404.84C351.305 405.267 350.179 405.48 348.942 405.48ZM348.862 402.36C349.79 402.36 350.617 402.157 351.342 401.752C352.078 401.336 352.654 400.755 353.07 400.008C353.486 399.251 353.694 398.355 353.694 397.32C353.694 396.285 353.486 395.395 353.07 394.648C352.654 393.891 352.078 393.309 351.342 392.904C350.617 392.488 349.79 392.28 348.862 392.28C347.934 392.28 347.102 392.488 346.366 392.904C345.641 393.309 345.07 393.891 344.654 394.648C344.238 395.395 344.03 396.285 344.03 397.32C344.03 398.355 344.238 399.251 344.654 400.008C345.07 400.755 345.641 401.336 346.366 401.752C347.102 402.157 347.934 402.36 348.862 402.36ZM368.289 405.48C366.636 405.48 365.158 405.101 363.857 404.344C362.566 403.576 361.553 402.557 360.817 401.288C360.081 400.008 359.713 398.605 359.713 397.08C359.713 395.949 359.921 394.883 360.337 393.88C360.764 392.867 361.361 391.971 362.129 391.192C362.908 390.413 363.82 389.8 364.865 389.352C365.91 388.904 367.057 388.68 368.305 388.68C369.958 388.68 371.43 389.064 372.721 389.832C374.022 390.589 375.041 391.608 375.777 392.888C376.513 394.157 376.881 395.555 376.881 397.08C376.881 398.2 376.668 399.267 376.241 400.28C375.825 401.293 375.233 402.189 374.465 402.968C373.697 403.747 372.79 404.36 371.745 404.808C370.7 405.256 369.548 405.48 368.289 405.48ZM368.289 402.36C369.27 402.36 370.14 402.147 370.897 401.72C371.665 401.283 372.268 400.669 372.705 399.88C373.142 399.091 373.361 398.157 373.361 397.08C373.361 396.003 373.142 395.069 372.705 394.28C372.268 393.48 371.665 392.867 370.897 392.44C370.14 392.013 369.27 391.8 368.289 391.8C367.308 391.8 366.433 392.013 365.665 392.44C364.908 392.867 364.31 393.48 363.873 394.28C363.446 395.069 363.233 396.003 363.233 397.08C363.233 398.157 363.452 399.091 363.889 399.88C364.326 400.669 364.924 401.283 365.681 401.72C366.449 402.147 367.318 402.36 368.289 402.36ZM380.417 411.72V389.16H383.585V391.384C384.214 390.584 385.019 389.933 386.001 389.432C386.982 388.931 388.193 388.68 389.633 388.68C391.179 388.68 392.55 389.048 393.745 389.784C394.95 390.509 395.889 391.507 396.561 392.776C397.233 394.035 397.569 395.469 397.569 397.08C397.569 398.243 397.377 399.336 396.993 400.36C396.609 401.373 396.059 402.264 395.345 403.032C394.641 403.8 393.798 404.403 392.817 404.84C391.846 405.267 390.769 405.48 389.585 405.48C388.347 405.48 387.259 405.256 386.321 404.808C385.382 404.36 384.582 403.757 383.921 403V411.72H380.417ZM388.993 402.36C389.974 402.36 390.843 402.147 391.601 401.72C392.369 401.283 392.966 400.669 393.393 399.88C393.83 399.091 394.049 398.157 394.049 397.08C394.049 396.003 393.83 395.069 393.393 394.28C392.955 393.48 392.353 392.867 391.585 392.44C390.827 392.013 389.963 391.8 388.993 391.8C388.011 391.8 387.137 392.013 386.369 392.44C385.611 392.867 385.014 393.48 384.577 394.28C384.139 395.069 383.921 396.003 383.921 397.08C383.921 398.157 384.139 399.091 384.577 399.88C385.014 400.669 385.611 401.283 386.369 401.72C387.137 402.147 388.011 402.36 388.993 402.36ZM401.104 405V389.16H404.624V395.272H412.56V389.16H416.08V405H412.56V398.184H404.624V405H401.104ZM420.979 405V389.16H424.499V402.328H427.363C428.515 402.328 429.385 402.104 429.971 401.656C430.558 401.208 430.851 400.541 430.851 399.656C430.851 398.781 430.579 398.109 430.035 397.64C429.491 397.171 428.691 396.936 427.635 396.936H424.019V394.296H427.907C429.955 394.296 431.566 394.755 432.739 395.672C433.913 396.589 434.499 397.917 434.499 399.656C434.499 400.776 434.217 401.736 433.651 402.536C433.086 403.325 432.291 403.933 431.267 404.36C430.254 404.787 429.065 405 427.699 405H420.979ZM437.043 405V389.16H440.563V405H437.043ZM445.448 405V389.16H448.856V399.848L457.448 389.16H460.52V405H457.128V394.184L448.456 405H445.448ZM452.984 386.44C451.8 386.44 450.76 386.195 449.864 385.704C448.968 385.213 448.275 384.536 447.784 383.672C447.293 382.808 447.064 381.816 447.096 380.696H450.04C449.997 381.677 450.243 382.472 450.776 383.08C451.32 383.677 452.056 383.976 452.984 383.976C453.912 383.976 454.643 383.677 455.176 383.08C455.709 382.472 455.949 381.677 455.896 380.696H458.856C458.877 381.805 458.637 382.792 458.136 383.656C457.645 384.52 456.952 385.203 456.056 385.704C455.171 386.195 454.147 386.44 452.984 386.44ZM476.797 405V392.072H471.597V389.16H485.533V392.072H480.317V405H476.797ZM495.993 405.48C494.286 405.48 492.787 405.133 491.497 404.44C490.206 403.736 489.198 402.755 488.473 401.496C487.758 400.237 487.401 398.776 487.401 397.112C487.401 395.896 487.609 394.776 488.025 393.752C488.441 392.717 489.027 391.821 489.785 391.064C490.542 390.307 491.427 389.72 492.441 389.304C493.465 388.888 494.579 388.68 495.785 388.68C497.097 388.68 498.265 388.915 499.289 389.384C500.313 389.843 501.161 390.488 501.833 391.32C502.515 392.152 502.995 393.128 503.273 394.248C503.561 395.357 503.609 396.563 503.417 397.864H490.777C490.755 398.813 490.963 399.645 491.401 400.36C491.838 401.064 492.462 401.613 493.273 402.008C494.094 402.403 495.059 402.6 496.169 402.6C497.065 402.6 497.929 402.467 498.761 402.2C499.603 401.923 500.366 401.517 501.049 400.984L502.409 403.512C501.897 403.928 501.278 404.285 500.553 404.584C499.827 404.872 499.07 405.091 498.281 405.24C497.491 405.4 496.729 405.48 495.993 405.48ZM490.985 395.272H499.961C499.929 394.077 499.545 393.139 498.809 392.456C498.083 391.773 497.049 391.432 495.705 391.432C494.403 391.432 493.321 391.773 492.457 392.456C491.603 393.139 491.113 394.077 490.985 395.272ZM517.601 405L512.353 396.584L517.233 389.16H520.993L516.145 396.424L521.809 405H517.601ZM507.073 405V389.16H510.593V395.272H515.361V398.184H510.593V405H507.073ZM531.868 405.48C530.204 405.48 528.722 405.117 527.42 404.392C526.119 403.656 525.095 402.659 524.348 401.4C523.612 400.131 523.244 398.691 523.244 397.08C523.244 395.864 523.463 394.749 523.9 393.736C524.338 392.712 524.956 391.821 525.756 391.064C526.556 390.307 527.495 389.72 528.572 389.304C529.66 388.888 530.839 388.68 532.108 388.68C533.175 388.68 534.162 388.824 535.068 389.112C535.986 389.389 536.828 389.821 537.596 390.408L535.9 393.096C535.41 392.659 534.844 392.333 534.204 392.12C533.575 391.907 532.903 391.8 532.188 391.8C531.079 391.8 530.124 392.008 529.324 392.424C528.524 392.84 527.9 393.443 527.452 394.232C527.015 395.011 526.796 395.955 526.796 397.064C526.796 398.717 527.276 400.013 528.236 400.952C529.207 401.891 530.524 402.36 532.188 402.36C532.978 402.36 533.724 402.216 534.428 401.928C535.132 401.629 535.719 401.24 536.188 400.76L537.868 403.432C537.026 404.072 536.087 404.573 535.052 404.936C534.018 405.299 532.956 405.48 531.868 405.48ZM544.64 405V392.072H539.44V389.16H553.376V392.072H548.16V405H544.64ZM565.696 397.384V394.568H590.304V397.384H565.696ZM610.26 405.48C609.332 405.48 608.414 405.384 607.508 405.192C606.612 405 605.785 404.739 605.028 404.408C604.281 404.067 603.668 403.677 603.188 403.24L604.388 400.296C605.06 400.925 605.913 401.427 606.948 401.8C607.982 402.173 609.012 402.36 610.036 402.36C611.049 402.36 611.929 402.189 612.676 401.848C613.422 401.507 613.998 401.027 614.404 400.408C614.82 399.789 615.028 399.059 615.028 398.216C615.028 396.936 614.558 395.939 613.62 395.224C612.692 394.509 611.454 394.152 609.908 394.152C609.492 394.152 609.06 394.184 608.612 394.248C608.164 394.301 607.71 394.381 607.252 394.488L606.212 392.136L613.22 385.608H603.364V382.6H617.476V385.368L610.804 391.848C612.137 391.827 613.39 392.056 614.564 392.536C615.737 393.016 616.681 393.747 617.396 394.728C618.121 395.699 618.484 396.925 618.484 398.408C618.484 399.816 618.132 401.053 617.428 402.12C616.724 403.176 615.753 404.003 614.516 404.6C613.278 405.187 611.86 405.48 610.26 405.48ZM631.333 405.48C629.903 405.48 628.618 405.176 627.477 404.568C626.346 403.96 625.381 403.117 624.581 402.04C623.791 400.963 623.189 399.72 622.773 398.312C622.357 396.904 622.149 395.4 622.149 393.8C622.149 392.189 622.357 390.68 622.773 389.272C623.189 387.864 623.791 386.627 624.581 385.56C625.381 384.483 626.346 383.64 627.477 383.032C628.618 382.424 629.903 382.12 631.333 382.12C632.762 382.12 634.042 382.424 635.173 383.032C636.314 383.64 637.279 384.483 638.069 385.56C638.869 386.627 639.477 387.864 639.893 389.272C640.319 390.68 640.533 392.189 640.533 393.8C640.533 395.4 640.319 396.904 639.893 398.312C639.477 399.72 638.869 400.963 638.069 402.04C637.279 403.117 636.314 403.96 635.173 404.568C634.042 405.176 632.762 405.48 631.333 405.48ZM631.333 402.312C632.186 402.312 632.959 402.12 633.653 401.736C634.346 401.341 634.943 400.776 635.445 400.04C635.957 399.304 636.346 398.413 636.613 397.368C636.879 396.312 637.013 395.123 637.013 393.8C637.013 392.029 636.773 390.509 636.293 389.24C635.823 387.96 635.162 386.984 634.309 386.312C633.466 385.629 632.474 385.288 631.333 385.288C630.49 385.288 629.717 385.485 629.013 385.88C628.319 386.264 627.722 386.824 627.221 387.56C626.719 388.296 626.33 389.187 626.053 390.232C625.786 391.277 625.653 392.467 625.653 393.8C625.653 395.571 625.887 397.091 626.357 398.36C626.837 399.629 627.503 400.605 628.357 401.288C629.21 401.971 630.202 402.312 631.333 402.312ZM644.667 411.72V389.16H647.835V391.384C648.464 390.584 649.269 389.933 650.251 389.432C651.232 388.931 652.443 388.68 653.883 388.68C655.429 388.68 656.8 389.048 657.995 389.784C659.2 390.509 660.139 391.507 660.811 392.776C661.483 394.035 661.819 395.469 661.819 397.08C661.819 398.243 661.627 399.336 661.243 400.36C660.859 401.373 660.309 402.264 659.595 403.032C658.891 403.8 658.048 404.403 657.067 404.84C656.096 405.267 655.019 405.48 653.835 405.48C652.597 405.48 651.509 405.256 650.571 404.808C649.632 404.36 648.832 403.757 648.171 403V411.72H644.667ZM653.243 402.36C654.224 402.36 655.093 402.147 655.851 401.72C656.619 401.283 657.216 400.669 657.643 399.88C658.08 399.091 658.299 398.157 658.299 397.08C658.299 396.003 658.08 395.069 657.643 394.28C657.205 393.48 656.603 392.867 655.835 392.44C655.077 392.013 654.213 391.8 653.243 391.8C652.261 391.8 651.387 392.013 650.619 392.44C649.861 392.867 649.264 393.48 648.827 394.28C648.389 395.069 648.171 396.003 648.171 397.08C648.171 398.157 648.389 399.091 648.827 399.88C649.264 400.669 649.861 401.283 650.619 401.72C651.387 402.147 652.261 402.36 653.243 402.36ZM663.386 405.016L669.114 397.048L663.722 389.16H668.154L671.53 394.52L674.794 389.16H679.114L673.882 396.952L679.562 405H675.05L671.402 399.432L667.706 404.968L663.386 405.016ZM682.367 409.832L681.135 408.2C681.935 407.816 682.639 407.352 683.247 406.808C683.865 406.275 684.287 405.747 684.511 405.224C684.02 405.256 683.577 405.181 683.183 405C682.788 404.829 682.473 404.579 682.239 404.248C682.004 403.907 681.887 403.507 681.887 403.048C681.887 402.365 682.111 401.811 682.559 401.384C683.017 400.947 683.593 400.728 684.286 400.728C685.087 400.728 685.727 400.995 686.207 401.528C686.697 402.051 686.943 402.771 686.943 403.688C686.943 404.392 686.772 405.101 686.431 405.816C686.089 406.541 685.577 407.24 684.895 407.912C684.223 408.595 683.38 409.235 682.367 409.832ZM698.404 405V402.44L703.252 398.008C704.788 396.6 706.025 395.389 706.964 394.376C707.903 393.352 708.585 392.429 709.012 391.608C709.439 390.787 709.652 389.955 709.652 389.112C709.652 387.885 709.231 386.931 708.388 386.248C707.556 385.555 706.393 385.208 704.9 385.208C703.908 385.208 702.959 385.379 702.052 385.72C701.145 386.061 700.372 386.557 699.732 387.208L698.42 384.6C699.327 383.789 700.372 383.176 701.556 382.76C702.74 382.333 703.983 382.12 705.284 382.12C706.831 382.12 708.18 382.397 709.332 382.952C710.495 383.496 711.396 384.269 712.036 385.272C712.687 386.264 713.012 387.427 713.012 388.76C713.012 389.688 712.825 390.616 712.452 391.544C712.089 392.461 711.433 393.496 710.484 394.648C709.545 395.8 708.212 397.181 706.484 398.792L703.044 401.96H713.572V405H698.404ZM727.118 405V400.408H715.966V397.704L723.998 382.6H727.646L719.726 397.416H727.118V392.44H730.206V397.416H733.662V400.408H730.206V405H727.118ZM744.917 411.72V389.16H748.085V391.384C748.714 390.584 749.519 389.933 750.501 389.432C751.482 388.931 752.693 388.68 754.133 388.68C755.679 388.68 757.05 389.048 758.245 389.784C759.45 390.509 760.389 391.507 761.061 392.776C761.733 394.035 762.069 395.469 762.069 397.08C762.069 398.243 761.877 399.336 761.493 400.36C761.109 401.373 760.559 402.264 759.845 403.032C759.141 403.8 758.298 404.403 757.317 404.84C756.346 405.267 755.269 405.48 754.085 405.48C752.847 405.48 751.759 405.256 750.821 404.808C749.882 404.36 749.082 403.757 748.421 403V411.72H744.917ZM753.493 402.36C754.474 402.36 755.343 402.147 756.101 401.72C756.869 401.283 757.466 400.669 757.893 399.88C758.33 399.091 758.549 398.157 758.549 397.08C758.549 396.003 758.33 395.069 757.893 394.28C757.455 393.48 756.853 392.867 756.085 392.44C755.327 392.013 754.463 391.8 753.493 391.8C752.511 391.8 751.637 392.013 750.869 392.44C750.111 392.867 749.514 393.48 749.077 394.28C748.639 395.069 748.421 396.003 748.421 397.08C748.421 398.157 748.639 399.091 749.077 399.88C749.514 400.669 750.111 401.283 750.869 401.72C751.637 402.147 752.511 402.36 753.493 402.36ZM763.636 405.016L769.364 397.048L763.972 389.16H768.404L771.78 394.52L775.044 389.16H779.364L774.132 396.952L779.812 405H775.3L771.652 399.432L767.956 404.968L763.636 405.016ZM784.617 405.48C783.934 405.48 783.342 405.261 782.841 404.824C782.35 404.387 782.105 403.816 782.105 403.112C782.105 402.632 782.217 402.216 782.441 401.864C782.665 401.501 782.969 401.224 783.353 401.032C783.737 400.829 784.158 400.728 784.617 400.728C785.31 400.728 785.897 400.947 786.377 401.384C786.867 401.811 787.113 402.387 787.113 403.112C787.113 403.581 787.001 403.997 786.777 404.36C786.553 404.712 786.249 404.984 785.865 405.176C785.491 405.379 785.075 405.48 784.617 405.48Z" fill="white"/>
<path d="M18.104 167.48C16.4187 167.48 14.8827 167.261 13.496 166.824C12.1093 166.387 10.8987 165.763 9.864 164.952L11.56 162.072C12.328 162.765 13.256 163.309 14.344 163.704C15.432 164.088 16.584 164.28 17.8 164.28C18.888 164.28 19.8267 164.125 20.616 163.816C21.416 163.507 22.0293 163.075 22.456 162.52C22.8933 161.955 23.1173 161.293 23.128 160.536C23.128 159.352 22.7333 158.456 21.944 157.848C21.1653 157.229 19.9493 156.92 18.296 156.92H13.928V154.04H18.024C18.9307 154.04 19.7147 153.907 20.376 153.64C21.0373 153.363 21.5493 152.973 21.912 152.472C22.2747 151.96 22.456 151.347 22.456 150.632C22.456 149.939 22.2747 149.357 21.912 148.888C21.56 148.408 21.0373 148.045 20.344 147.8C19.6613 147.544 18.8293 147.416 17.848 147.416C16.792 147.416 15.7787 147.592 14.808 147.944C13.8373 148.285 13 148.765 12.296 149.384L10.6 146.744C11.5387 145.901 12.6693 145.256 13.992 144.808C15.3253 144.349 16.7547 144.12 18.28 144.12C19.8693 144.12 21.2453 144.36 22.408 144.84C23.5707 145.309 24.4613 145.992 25.08 146.888C25.7093 147.773 26.024 148.829 26.024 150.056C26.024 150.76 25.8587 151.448 25.528 152.12C25.1973 152.781 24.7653 153.368 24.232 153.88C23.7093 154.381 23.1547 154.755 22.568 155C23.816 155.395 24.84 156.077 25.64 157.048C26.44 158.008 26.8347 159.224 26.824 160.696C26.8133 161.955 26.4453 163.096 25.72 164.12C24.9947 165.144 23.976 165.96 22.664 166.568C21.3627 167.176 19.8427 167.48 18.104 167.48ZM28.8673 167L37.5712 144.6H41.4593L50.3873 167H46.3393L44.2753 161.656H34.7873L32.8033 167H28.8673ZM35.7153 158.568H43.3153L39.4433 148.808L35.7153 158.568ZM53.6308 167V144.6H66.3188V147.88H57.2148V167H53.6308ZM79.4683 167.48C77.7829 167.48 76.2203 167.187 74.7803 166.6C73.3509 166.003 72.1029 165.176 71.0363 164.12C69.9803 163.064 69.1536 161.827 68.5563 160.408C67.9696 158.989 67.6763 157.453 67.6763 155.8C67.6763 154.136 67.9696 152.595 68.5563 151.176C69.1536 149.757 69.9803 148.52 71.0363 147.464C72.1029 146.408 73.3509 145.587 74.7803 145C76.2203 144.413 77.7829 144.12 79.4683 144.12C81.1429 144.12 82.6949 144.419 84.1243 145.016C85.5536 145.613 86.8016 146.445 87.8683 147.512C88.9349 148.579 89.7616 149.821 90.3483 151.24C90.9456 152.648 91.2443 154.168 91.2443 155.8C91.2443 157.453 90.9456 158.989 90.3483 160.408C89.7616 161.827 88.9349 163.064 87.8683 164.12C86.8016 165.176 85.5536 166.003 84.1243 166.6C82.6949 167.187 81.1429 167.48 79.4683 167.48ZM79.4683 164.088C80.5989 164.088 81.6496 163.896 82.6203 163.512C83.6016 163.117 84.4549 162.557 85.1803 161.832C85.9056 161.096 86.4709 160.221 86.8763 159.208C87.2923 158.184 87.5003 157.048 87.5003 155.8C87.5003 154.125 87.1429 152.669 86.4283 151.432C85.7243 150.184 84.7643 149.219 83.5483 148.536C82.3323 147.853 80.9723 147.512 79.4683 147.512C78.3376 147.512 77.2816 147.709 76.3003 148.104C75.3296 148.488 74.4763 149.043 73.7403 149.768C73.0149 150.493 72.4443 151.368 72.0283 152.392C71.6229 153.405 71.4203 154.541 71.4203 155.8C71.4203 157.475 71.7776 158.936 72.4923 160.184C73.2069 161.421 74.1669 162.381 75.3723 163.064C76.5883 163.747 77.9536 164.088 79.4683 164.088ZM94.4253 167.384L93.0813 164.088C93.7959 163.864 94.4093 163.592 94.9213 163.272C95.4333 162.952 95.8599 162.52 96.2013 161.976C96.5533 161.421 96.8253 160.701 97.0173 159.816C97.2199 158.92 97.3639 157.795 97.4493 156.44C97.5346 155.075 97.5773 153.411 97.5773 151.448V144.6H113.241V167H109.657V147.88H101.017V151.32C101.017 153.645 100.948 155.651 100.809 157.336C100.671 159.011 100.441 160.429 100.121 161.592C99.8119 162.744 99.4013 163.699 98.8893 164.456C98.3879 165.203 97.7639 165.805 97.0173 166.264C96.2813 166.723 95.4173 167.096 94.4253 167.384ZM129.468 167.48C127.783 167.48 126.22 167.187 124.78 166.6C123.351 166.003 122.103 165.176 121.036 164.12C119.98 163.064 119.154 161.827 118.556 160.408C117.97 158.989 117.676 157.453 117.676 155.8C117.676 154.136 117.97 152.595 118.556 151.176C119.154 149.757 119.98 148.52 121.036 147.464C122.103 146.408 123.351 145.587 124.78 145C126.22 144.413 127.783 144.12 129.468 144.12C131.143 144.12 132.695 144.419 134.124 145.016C135.554 145.613 136.802 146.445 137.868 147.512C138.935 148.579 139.762 149.821 140.348 151.24C140.946 152.648 141.244 154.168 141.244 155.8C141.244 157.453 140.946 158.989 140.348 160.408C139.762 161.827 138.935 163.064 137.868 164.12C136.802 165.176 135.554 166.003 134.124 166.6C132.695 167.187 131.143 167.48 129.468 167.48ZM129.468 164.088C130.599 164.088 131.65 163.896 132.62 163.512C133.602 163.117 134.455 162.557 135.18 161.832C135.906 161.096 136.471 160.221 136.876 159.208C137.292 158.184 137.5 157.048 137.5 155.8C137.5 154.125 137.143 152.669 136.428 151.432C135.724 150.184 134.764 149.219 133.548 148.536C132.332 147.853 130.972 147.512 129.468 147.512C128.338 147.512 127.282 147.709 126.3 148.104C125.33 148.488 124.476 149.043 123.74 149.768C123.015 150.493 122.444 151.368 122.028 152.392C121.623 153.405 121.42 154.541 121.42 155.8C121.42 157.475 121.778 158.936 122.492 160.184C123.207 161.421 124.167 162.381 125.372 163.064C126.588 163.747 127.954 164.088 129.468 164.088ZM145.662 167V144.6H153.358C155.502 144.6 157.235 145.08 158.558 146.04C159.881 146.989 160.542 148.392 160.542 150.248C160.542 150.963 160.371 151.64 160.03 152.28C159.699 152.909 159.267 153.464 158.734 153.944C158.201 154.424 157.646 154.776 157.07 155C158.286 155.373 159.299 156.056 160.11 157.048C160.931 158.04 161.342 159.261 161.342 160.712C161.342 161.939 161.033 163.027 160.414 163.976C159.795 164.915 158.915 165.656 157.774 166.2C156.633 166.733 155.278 167 153.71 167H145.662ZM149.246 164.184H153.102C154.638 164.184 155.779 163.885 156.526 163.288C157.273 162.68 157.646 161.768 157.646 160.552C157.646 159.347 157.267 158.429 156.51 157.8C155.763 157.171 154.606 156.856 153.038 156.856H149.246V164.184ZM149.246 154.168H152.798C153.662 154.168 154.409 154.029 155.038 153.752C155.667 153.475 156.158 153.075 156.51 152.552C156.862 152.029 157.038 151.4 157.038 150.664C157.038 149.619 156.665 148.819 155.918 148.264C155.182 147.699 154.126 147.416 152.75 147.416H149.246V154.168ZM179.815 167L170.647 155.176L178.791 144.6H183.207L175.015 155.16L184.439 167H179.815ZM165.943 167V144.6H169.527V153.496H173.687V156.792H169.527V167H165.943ZM188.193 167V144.6H191.761V161.144L202.961 144.6H206.417V167H202.865V150.344L191.617 167H188.193ZM211.648 171.832L210.416 170.2C211.216 169.816 211.92 169.352 212.528 168.808C213.146 168.275 213.568 167.747 213.792 167.224C213.301 167.256 212.858 167.181 212.464 167C212.069 166.829 211.754 166.579 211.52 166.248C211.285 165.907 211.168 165.507 211.168 165.048C211.168 164.365 211.392 163.811 211.84 163.384C212.298 162.947 212.874 162.728 213.568 162.728C214.368 162.728 215.008 162.995 215.488 163.528C215.978 164.051 216.224 164.771 216.224 165.688C216.224 166.392 216.053 167.101 215.712 167.816C215.37 168.541 214.858 169.24 214.176 169.912C213.504 170.595 212.661 171.235 211.648 171.832ZM232.629 167.48C231.531 167.48 230.565 167.277 229.733 166.872C228.901 166.456 228.251 165.875 227.781 165.128C227.323 164.371 227.093 163.48 227.093 162.456C227.093 161.592 227.312 160.813 227.749 160.12C228.187 159.416 228.864 158.835 229.781 158.376C230.709 157.917 231.899 157.613 233.349 157.464C234.8 157.304 236.544 157.325 238.581 157.528L238.645 159.96C237.195 159.757 235.947 159.672 234.901 159.704C233.856 159.736 232.997 159.869 232.325 160.104C231.664 160.328 231.173 160.632 230.853 161.016C230.544 161.389 230.389 161.821 230.389 162.312C230.389 163.08 230.661 163.672 231.205 164.088C231.76 164.504 232.517 164.712 233.477 164.712C234.299 164.712 235.035 164.563 235.685 164.264C236.336 163.965 236.848 163.544 237.221 163C237.605 162.456 237.797 161.816 237.797 161.08V156.872C237.797 156.168 237.648 155.56 237.349 155.048C237.051 154.525 236.597 154.12 235.989 153.832C235.381 153.544 234.624 153.4 233.717 153.4C232.885 153.4 232.064 153.528 231.253 153.784C230.443 154.029 229.669 154.419 228.933 154.952L227.941 152.36C228.933 151.688 229.968 151.213 231.045 150.936C232.123 150.659 233.157 150.52 234.149 150.52C235.621 150.52 236.88 150.755 237.925 151.224C238.981 151.683 239.792 152.381 240.357 153.32C240.923 154.248 241.205 155.421 241.205 156.84V167H238.037V165.128C237.504 165.885 236.763 166.467 235.813 166.872C234.864 167.277 233.803 167.48 232.629 167.48ZM256.414 167L251.166 158.584L256.046 151.16H259.806L254.958 158.424L260.622 167H256.414ZM245.886 167V151.16H249.406V157.272H254.174V160.184H249.406V167H245.886ZM263.729 167V151.16H267.249V164.088H274.817V151.16H278.337V167H263.729ZM279.169 171.8V167H276.577V164.088H282.401V171.8H279.169ZM292.493 167.48C290.786 167.48 289.287 167.133 287.997 166.44C286.706 165.736 285.698 164.755 284.973 163.496C284.258 162.237 283.901 160.776 283.901 159.112C283.901 157.896 284.109 156.776 284.525 155.752C284.941 154.717 285.527 153.821 286.285 153.064C287.042 152.307 287.927 151.72 288.941 151.304C289.965 150.888 291.079 150.68 292.285 150.68C293.597 150.68 294.765 150.915 295.789 151.384C296.813 151.843 297.661 152.488 298.333 153.32C299.015 154.152 299.495 155.128 299.773 156.248C300.061 157.357 300.109 158.563 299.917 159.864H287.277C287.255 160.813 287.463 161.645 287.901 162.36C288.338 163.064 288.962 163.613 289.773 164.008C290.594 164.403 291.559 164.6 292.669 164.6C293.565 164.6 294.429 164.467 295.261 164.2C296.103 163.923 296.866 163.517 297.549 162.984L298.909 165.512C298.397 165.928 297.778 166.285 297.053 166.584C296.327 166.872 295.57 167.091 294.781 167.24C293.991 167.4 293.229 167.48 292.493 167.48ZM287.485 157.272H296.461C296.429 156.077 296.045 155.139 295.309 154.456C294.583 153.773 293.549 153.432 292.205 153.432C290.903 153.432 289.821 153.773 288.957 154.456C288.103 155.139 287.613 156.077 287.485 157.272ZM303.573 167V151.16H307.093V157.272H315.029V151.16H318.549V167H315.029V160.184H307.093V167H303.573ZM326.984 167V154.072H321.784V151.16H335.72V154.072H330.504V167H326.984ZM348.04 159.384V156.568H372.648V159.384H348.04ZM394.748 167.48C393.062 167.48 391.569 167.117 390.268 166.392C388.966 165.667 387.942 164.621 387.196 163.256C386.449 161.88 386.076 160.221 386.076 158.28C386.076 156.392 386.428 154.653 387.132 153.064C387.836 151.464 388.822 150.051 390.092 148.824C391.361 147.587 392.844 146.568 394.54 145.768C396.246 144.968 398.097 144.419 400.092 144.12L401.34 146.872C399.708 147.043 398.257 147.384 396.988 147.896C395.718 148.397 394.625 149.021 393.708 149.768C392.801 150.515 392.06 151.347 391.484 152.264C390.908 153.171 390.481 154.12 390.204 155.112C390.801 154.344 391.558 153.736 392.476 153.288C393.393 152.829 394.39 152.6 395.468 152.6C396.908 152.6 398.204 152.904 399.356 153.512C400.518 154.12 401.43 154.963 402.092 156.04C402.764 157.117 403.1 158.36 403.1 159.768C403.1 160.845 402.897 161.853 402.492 162.792C402.086 163.731 401.51 164.552 400.764 165.256C400.017 165.949 399.132 166.493 398.108 166.888C397.094 167.283 395.974 167.48 394.748 167.48ZM394.748 164.44C395.697 164.44 396.54 164.248 397.276 163.864C398.012 163.48 398.588 162.957 399.004 162.296C399.43 161.624 399.644 160.856 399.644 159.992C399.644 159.139 399.425 158.376 398.988 157.704C398.561 157.032 397.974 156.499 397.228 156.104C396.492 155.709 395.665 155.512 394.748 155.512C393.82 155.512 392.982 155.709 392.236 156.104C391.5 156.499 390.913 157.032 390.476 157.704C390.049 158.376 389.836 159.139 389.836 159.992C389.836 160.856 390.044 161.624 390.46 162.296C390.886 162.957 391.468 163.48 392.204 163.864C392.94 164.248 393.788 164.44 394.748 164.44ZM417.025 167V162.408H405.873V159.704L413.905 144.6H417.553L409.633 159.416H417.025V154.44H420.113V159.416H423.569V162.408H420.113V167H417.025ZM426.979 173.72V151.16H430.147V153.384C430.777 152.584 431.582 151.933 432.563 151.432C433.545 150.931 434.755 150.68 436.195 150.68C437.742 150.68 439.113 151.048 440.307 151.784C441.513 152.509 442.451 153.507 443.123 154.776C443.795 156.035 444.131 157.469 444.131 159.08C444.131 160.243 443.939 161.336 443.555 162.36C443.171 163.373 442.622 164.264 441.907 165.032C441.203 165.8 440.361 166.403 439.379 166.84C438.409 167.267 437.331 167.48 436.147 167.48C434.91 167.48 433.822 167.256 432.883 166.808C431.945 166.36 431.145 165.757 430.483 165V173.72H426.979ZM435.555 164.36C436.537 164.36 437.406 164.147 438.163 163.72C438.931 163.283 439.529 162.669 439.955 161.88C440.393 161.091 440.611 160.157 440.611 159.08C440.611 158.003 440.393 157.069 439.955 156.28C439.518 155.48 438.915 154.867 438.147 154.44C437.39 154.013 436.526 153.8 435.555 153.8C434.574 153.8 433.699 154.013 432.931 154.44C432.174 154.867 431.577 155.48 431.139 156.28C430.702 157.069 430.483 158.003 430.483 159.08C430.483 160.157 430.702 161.091 431.139 161.88C431.577 162.669 432.174 163.283 432.931 163.72C433.699 164.147 434.574 164.36 435.555 164.36ZM445.699 167.016L451.427 159.048L446.035 151.16H450.467L453.843 156.52L457.107 151.16H461.427L456.195 158.952L461.875 167H457.363L453.715 161.432L450.019 166.968L445.699 167.016ZM464.679 171.832L463.447 170.2C464.247 169.816 464.951 169.352 465.559 168.808C466.178 168.275 466.599 167.747 466.823 167.224C466.332 167.256 465.89 167.181 465.495 167C465.1 166.829 464.786 166.579 464.551 166.248C464.316 165.907 464.199 165.507 464.199 165.048C464.199 164.365 464.423 163.811 464.871 163.384C465.33 162.947 465.906 162.728 466.599 162.728C467.399 162.728 468.039 162.995 468.519 163.528C469.01 164.051 469.255 164.771 469.255 165.688C469.255 166.392 469.084 167.101 468.743 167.816C468.402 168.541 467.89 169.24 467.207 169.912C466.535 170.595 465.692 171.235 464.679 171.832ZM487.229 167.48C486.301 167.48 485.383 167.384 484.477 167.192C483.581 167 482.754 166.739 481.997 166.408C481.25 166.067 480.637 165.677 480.157 165.24L481.357 162.296C482.029 162.925 482.882 163.427 483.917 163.8C484.951 164.173 485.981 164.36 487.005 164.36C488.018 164.36 488.898 164.189 489.645 163.848C490.391 163.507 490.967 163.027 491.373 162.408C491.789 161.789 491.997 161.059 491.997 160.216C491.997 158.936 491.527 157.939 490.589 157.224C489.661 156.509 488.423 156.152 486.877 156.152C486.461 156.152 486.029 156.184 485.581 156.248C485.133 156.301 484.679 156.381 484.221 156.488L483.181 154.136L490.189 147.608H480.333V144.6H494.445V147.368L487.773 153.848C489.106 153.827 490.359 154.056 491.533 154.536C492.706 155.016 493.65 155.747 494.365 156.728C495.09 157.699 495.453 158.925 495.453 160.408C495.453 161.816 495.101 163.053 494.397 164.12C493.693 165.176 492.722 166.003 491.485 166.6C490.247 167.187 488.829 167.48 487.229 167.48ZM499.613 167L509.053 147.832H498.381V144.6H513.053V147.272L503.453 167H499.613ZM524.823 173.72V151.16H527.991V153.384C528.62 152.584 529.426 151.933 530.407 151.432C531.388 150.931 532.599 150.68 534.039 150.68C535.586 150.68 536.956 151.048 538.151 151.784C539.356 152.509 540.295 153.507 540.967 154.776C541.639 156.035 541.975 157.469 541.975 159.08C541.975 160.243 541.783 161.336 541.399 162.36C541.015 163.373 540.466 164.264 539.751 165.032C539.047 165.8 538.204 166.403 537.223 166.84C536.252 167.267 535.175 167.48 533.991 167.48C532.754 167.48 531.666 167.256 530.727 166.808C529.788 166.36 528.988 165.757 528.327 165V173.72H524.823ZM533.399 164.36C534.38 164.36 535.25 164.147 536.007 163.72C536.775 163.283 537.372 162.669 537.799 161.88C538.236 161.091 538.455 160.157 538.455 159.08C538.455 158.003 538.236 157.069 537.799 156.28C537.362 155.48 536.759 154.867 535.991 154.44C535.234 154.013 534.37 153.8 533.399 153.8C532.418 153.8 531.543 154.013 530.775 154.44C530.018 154.867 529.42 155.48 528.983 156.28C528.546 157.069 528.327 158.003 528.327 159.08C528.327 160.157 528.546 161.091 528.983 161.88C529.42 162.669 530.018 163.283 530.775 163.72C531.543 164.147 532.418 164.36 533.399 164.36ZM543.543 167.016L549.271 159.048L543.879 151.16H548.311L551.687 156.52L554.951 151.16H559.271L554.039 158.952L559.719 167H555.207L551.559 161.432L547.863 166.968L543.543 167.016ZM564.523 167.48C563.84 167.48 563.248 167.261 562.747 166.824C562.256 166.387 562.011 165.816 562.011 165.112C562.011 164.632 562.123 164.216 562.347 163.864C562.571 163.501 562.875 163.224 563.259 163.032C563.643 162.829 564.064 162.728 564.523 162.728C565.216 162.728 565.803 162.947 566.283 163.384C566.773 163.811 567.019 164.387 567.019 165.112C567.019 165.581 566.907 165.997 566.683 166.36C566.459 166.712 566.155 166.984 565.771 167.176C565.397 167.379 564.981 167.48 564.523 167.48Z" fill="white"/>
<path d="M10.28 103L41 13.4H79.4L110.12 103H92.84L83.24 74.84L34.6 83.16L27.56 103H10.28ZM39.72 67.16L78.12 60.76L67.24 28.76H53.16L39.72 67.16ZM119.055 103V13.4H132.495L184.335 74.2V13.4H200.975V103H187.535L135.695 42.2V103H119.055ZM261.745 105.56C229.745 105.56 212.465 83.16 212.465 58.2C212.465 33.24 229.745 10.84 261.745 10.84C287.985 10.84 303.985 26.2 307.185 39.64L290.545 41.56C287.985 33.24 275.825 26.2 261.745 26.2C242.545 26.2 229.105 40.28 229.105 58.2C229.105 76.12 242.545 90.2 261.745 90.2C280.945 90.2 291.825 79.32 291.825 79.32V69.08H269.425V54.36H307.185V103H291.825V96.6C291.825 96.6 280.305 105.56 261.745 105.56ZM319.93 103V13.4H403.13V42.84C403.13 54.744 395.578 64.728 382.522 68.952L403.13 103H383.93L364.858 71.64L336.57 74.2V103H319.93ZM336.57 58.84L371.77 55.64C378.81 55 386.49 51.8 386.49 42.2V28.76H336.57V58.84ZM449.82 103V70.36L410.78 13.4H429.98L458.14 54.36L486.3 13.4H505.5L466.46 70.36V103H449.82Z" fill="white"/>
<path d="M56.128 340.92C49.0027 340.92 42.4107 339.832 36.352 337.656C30.2933 335.48 24.9813 332.365 20.416 328.312C15.8933 324.216 12.3733 319.309 9.856 313.592C7.33867 307.875 6.08 301.453 6.08 294.328C6.08 287.245 7.296 280.845 9.728 275.128C12.16 269.368 15.552 264.44 19.904 260.344C24.2987 256.205 29.44 253.027 35.328 250.808C41.2587 248.589 47.7227 247.48 54.72 247.48C57.9627 247.48 61.248 247.736 64.576 248.248C67.904 248.76 71.168 249.613 74.368 250.808C77.6107 251.96 80.6827 253.539 83.584 255.544L77.312 266.808C74.0693 264.76 70.5493 263.224 66.752 262.2C62.9973 261.176 59.1147 260.664 55.104 260.664C49.8987 260.664 45.184 261.453 40.96 263.032C36.736 264.568 33.1307 266.808 30.144 269.752C27.1573 272.653 24.8533 276.173 23.232 280.312C21.6533 284.451 20.864 289.101 20.864 294.264C20.864 301.517 22.4 307.683 25.472 312.76C28.544 317.837 32.768 321.699 38.144 324.344C43.5627 326.947 49.792 328.248 56.832 328.248C60.288 328.248 63.4027 327.928 66.176 327.288C68.9493 326.605 71.1893 325.837 72.896 324.984V303.352H52.544V291.448H85.76V333.304C83.4133 334.883 80.4693 336.248 76.928 337.4C73.4293 338.552 69.8027 339.427 66.048 340.024C62.336 340.621 59.0293 340.92 56.128 340.92ZM107.773 339V249.4H165.693V262.072H122.109V286.264H159.741V298.232H122.109V326.2H166.077V339H107.773ZM227.748 340.92C221.007 340.92 214.756 339.747 208.996 337.4C203.279 335.011 198.287 331.704 194.02 327.48C189.796 323.256 186.489 318.307 184.1 312.632C181.753 306.957 180.58 300.813 180.58 294.2C180.58 287.544 181.753 281.379 184.1 275.704C186.489 270.029 189.796 265.08 194.02 260.856C198.287 256.632 203.279 253.347 208.996 251C214.756 248.653 221.007 247.48 227.748 247.48C234.447 247.48 240.655 248.675 246.372 251.064C252.089 253.453 257.081 256.781 261.348 261.048C265.615 265.315 268.921 270.285 271.268 275.96C273.657 281.592 274.852 287.672 274.852 294.2C274.852 300.813 273.657 306.957 271.268 312.632C268.921 318.307 265.615 323.256 261.348 327.48C257.081 331.704 252.089 335.011 246.372 337.4C240.655 339.747 234.447 340.92 227.748 340.92ZM227.748 327.352C232.271 327.352 236.473 326.584 240.356 325.048C244.281 323.469 247.695 321.229 250.596 318.328C253.497 315.384 255.759 311.885 257.38 307.832C259.044 303.736 259.876 299.192 259.876 294.2C259.876 287.501 258.447 281.677 255.588 276.728C252.772 271.736 248.932 267.875 244.068 265.144C239.204 262.413 233.764 261.048 227.748 261.048C223.225 261.048 219.001 261.837 215.076 263.416C211.193 264.952 207.78 267.171 204.836 270.072C201.935 272.973 199.652 276.472 197.988 280.568C196.367 284.621 195.556 289.165 195.556 294.2C195.556 300.899 196.985 306.744 199.844 311.736C202.703 316.685 206.543 320.525 211.364 323.256C216.228 325.987 221.689 327.352 227.748 327.352ZM292.523 339V249.4H306.859V325.816H345.899V339H292.523ZM399.873 340.92C393.132 340.92 386.881 339.747 381.121 337.4C375.404 335.011 370.412 331.704 366.145 327.48C361.921 323.256 358.614 318.307 356.225 312.632C353.878 306.957 352.705 300.813 352.705 294.2C352.705 287.544 353.878 281.379 356.225 275.704C358.614 270.029 361.921 265.08 366.145 260.856C370.412 256.632 375.404 253.347 381.121 251C386.881 248.653 393.132 247.48 399.873 247.48C406.572 247.48 412.78 248.675 418.497 251.064C424.214 253.453 429.206 256.781 433.473 261.048C437.74 265.315 441.046 270.285 443.393 275.96C445.782 281.592 446.977 287.672 446.977 294.2C446.977 300.813 445.782 306.957 443.393 312.632C441.046 318.307 437.74 323.256 433.473 327.48C429.206 331.704 424.214 335.011 418.497 337.4C412.78 339.747 406.572 340.92 399.873 340.92ZM399.873 327.352C404.396 327.352 408.598 326.584 412.481 325.048C416.406 323.469 419.82 321.229 422.721 318.328C425.622 315.384 427.884 311.885 429.505 307.832C431.169 303.736 432.001 299.192 432.001 294.2C432.001 287.501 430.572 281.677 427.713 276.728C424.897 271.736 421.057 267.875 416.193 265.144C411.329 262.413 405.889 261.048 399.873 261.048C395.35 261.048 391.126 261.837 387.201 263.416C383.318 264.952 379.905 267.171 376.961 270.072C374.06 272.973 371.777 276.472 370.113 280.568C368.492 284.621 367.681 289.165 367.681 294.2C367.681 300.899 369.11 306.744 371.969 311.736C374.828 316.685 378.668 320.525 383.489 323.256C388.353 325.987 393.814 327.352 399.873 327.352ZM510.378 340.92C503.253 340.92 496.661 339.832 490.602 337.656C484.543 335.48 479.231 332.365 474.666 328.312C470.143 324.216 466.623 319.309 464.106 313.592C461.589 307.875 460.33 301.453 460.33 294.328C460.33 287.245 461.546 280.845 463.978 275.128C466.41 269.368 469.802 264.44 474.154 260.344C478.549 256.205 483.69 253.027 489.578 250.808C495.509 248.589 501.973 247.48 508.97 247.48C512.213 247.48 515.498 247.736 518.826 248.248C522.154 248.76 525.418 249.613 528.618 250.808C531.861 251.96 534.933 253.539 537.834 255.544L531.562 266.808C528.319 264.76 524.799 263.224 521.002 262.2C517.247 261.176 513.365 260.664 509.354 260.664C504.149 260.664 499.434 261.453 495.21 263.032C490.986 264.568 487.381 266.808 484.394 269.752C481.407 272.653 479.103 276.173 477.482 280.312C475.903 284.451 475.114 289.101 475.114 294.264C475.114 301.517 476.65 307.683 479.722 312.76C482.794 317.837 487.018 321.699 492.394 324.344C497.813 326.947 504.042 328.248 511.082 328.248C514.538 328.248 517.653 327.928 520.426 327.288C523.199 326.605 525.439 325.837 527.146 324.984V303.352H506.794V291.448H540.01V333.304C537.663 334.883 534.719 336.248 531.178 337.4C527.679 338.552 524.053 339.427 520.298 340.024C516.586 340.621 513.279 340.92 510.378 340.92ZM562.023 339V249.4H576.359V339H562.023ZM640.605 340.92C631.304 340.92 623.176 339 616.221 335.16C609.266 331.32 603.848 325.901 599.965 318.904C596.125 311.864 594.205 303.651 594.205 294.264C594.205 287.437 595.336 281.187 597.597 275.512C599.901 269.795 603.122 264.845 607.261 260.664C611.442 256.483 616.37 253.24 622.045 250.936C627.72 248.632 633.949 247.48 640.733 247.48C647.56 247.48 653.448 248.333 658.397 250.04C663.389 251.747 667.741 254.179 671.453 257.336L664.029 269.048C661.213 266.445 657.928 264.504 654.173 263.224C650.418 261.944 646.28 261.304 641.757 261.304C636.765 261.304 632.264 262.072 628.253 263.608C624.242 265.144 620.808 267.341 617.949 270.2C615.133 273.016 612.957 276.451 611.421 280.504C609.928 284.515 609.181 289.059 609.181 294.136C609.181 301.048 610.525 306.957 613.213 311.864C615.944 316.771 619.784 320.525 624.733 323.128C629.725 325.688 635.613 326.968 642.397 326.968C646.92 326.968 651.272 326.307 655.453 324.984C659.677 323.619 663.624 321.421 667.293 318.392L673.949 330.488C669.64 333.859 664.712 336.44 659.165 338.232C653.661 340.024 647.474 340.92 640.605 340.92ZM678.719 339L713.535 249.4H729.087L764.799 339H748.607L740.351 317.624H702.399L694.463 339H678.719ZM706.111 305.272H736.511L721.023 266.232L706.111 305.272Z" fill="white"/>
</svg>
