<svg width="213" height="88" viewBox="0 0 213 88" fill="none" xmlns="http://www.w3.org/2000/svg">
<g clip-path="url(#clip0_26_128)">
<path d="M10.5417 1.07249V18.1147H6.28169V1.07249H0V43.5664H6.28169V24.887H10.5417V43.5664H16.7512V1.07249H10.5417Z" fill="white"/>
<path d="M27.4381 44.0125H26.2107C21.2287 44.0125 18.5571 41.1846 18.5571 35.9752V27.4913H24.7666V34.9333C24.7666 36.8682 25.3442 37.9101 26.7883 37.9101C28.3046 37.9101 28.81 36.8682 28.81 34.2635V33.296C28.81 30.2448 28.5212 29.2029 26.2829 26.1517L22.3839 20.8679C19.7124 17.2957 18.9181 14.6166 18.9181 10.3746V9.03506C18.9181 3.3047 21.7341 0.699997 26.6439 0.699997H27.7992C32.9256 0.699997 34.9473 3.00702 34.9473 8.06759V15.0631H28.8822V8.88622C28.8822 7.47223 28.5934 6.35593 27.0771 6.35593C25.5609 6.35593 25.272 7.32339 25.272 9.33274V10.1514C25.272 12.5328 25.7053 13.8724 27.7992 16.6259L31.7704 21.9097C34.5863 25.7052 35.4527 27.8634 35.4527 32.6263V33.9658C35.5249 40.2915 32.9256 44.0125 27.4381 44.0125Z" fill="white"/>
<path d="M51.5541 1.07536V7.25224H43.6118V18.4153H49.8213V24.8154H43.6118V37.0947H51.9152V43.5693H37.3301V1.07536H51.5541Z" fill="white"/>
<path d="M68.8104 35.6063H64.2615L63.3951 43.5693H57.8354L62.8897 1.07536H70.3266L75.6697 43.5693H69.6046L68.8104 35.6063ZM68.0883 29.2806L66.4276 13.578L64.8392 29.2806H68.0883V29.2806Z" fill="white"/>
<path d="M82.8891 43.5693H76.6074V1.07536H86.7159C90.9037 1.07536 92.9976 2.93587 92.9976 7.62434V15.1408C92.9976 18.7129 91.4091 20.0525 90.2539 20.5735C91.6257 21.1688 92.9976 22.3595 92.9976 25.1875V40.0715C92.9976 41.7832 93.3586 42.6018 93.5752 43.1972V43.4949H87.3657C87.0769 43.0483 86.7881 42.3041 86.7881 39.9971V27.2713C86.7881 25.4108 86.4271 24.5921 84.4776 24.5921H82.8891V43.5693ZM82.8891 18.5641H84.5498C86.2827 18.5641 86.7881 17.4478 86.7881 15.5129V9.55926C86.7881 7.69876 86.4271 6.80572 84.5498 6.80572H82.8891V18.5641Z" fill="white"/>
<path d="M105.705 7.25224V43.5693H99.496V7.25224H94.2251V1.07536H110.904V7.25224H105.705Z" fill="white"/>
<path d="M127.801 35.6063H123.252L122.385 43.5693H116.826L121.88 1.07536H129.245L134.588 43.5693H128.523L127.801 35.6063ZM127.079 29.2806L125.418 13.578L123.829 29.2806H127.079Z" fill="white"/>
<path d="M141.301 1.07281L146.644 23.8454V1.07281H152.348V43.5667H147.294L141.301 19.1569V43.5667H135.597V1.07281H141.301Z" fill="white"/>
<path d="M154.659 1.07536H164.262C169.605 1.07536 171.265 4.20101 171.265 9.26158V35.0854C171.265 40.2948 169.388 43.5693 164.262 43.5693H154.659V1.07536ZM160.94 37.3924H162.457C164.334 37.3924 164.912 36.3505 164.912 34.1179V10.1546C164.912 7.69876 164.334 6.88014 162.745 6.88014H160.94V37.3924Z" fill="white"/>
<path d="M0 44.4594H9.60305C14.9461 44.4594 16.6068 47.5851 16.6068 52.6456V78.4694C16.6068 83.6789 14.7295 86.9533 9.60305 86.9533H0V44.4594ZM6.2817 80.702H7.79797C9.67526 80.702 10.2529 79.6602 10.2529 77.4276V53.5387C10.2529 51.0828 9.67526 50.2642 8.08678 50.2642H6.2817V80.702Z" fill="white"/>
<path d="M33.0698 44.4594V50.5619H25.0552V61.7249H31.3369V68.1995H25.0552V80.4788H33.4308V86.8789H18.8457V44.4594H33.0698Z" fill="white"/>
<path d="M43.3942 87.3273H42.1667C37.1847 87.3273 34.5132 84.4993 34.5132 79.2899V70.806H40.7227V78.248C40.7227 80.1829 41.3003 81.2248 42.7444 81.2248C44.2606 81.2248 44.7661 80.1829 44.7661 77.5782V76.6108C44.7661 73.5595 44.4772 72.5177 42.2389 69.4664L38.2678 64.1826C35.5962 60.6104 34.802 57.9313 34.802 53.6893V52.3498C34.802 46.6939 37.5457 44.0891 42.5278 44.0891H43.683C48.8095 44.0891 50.8311 46.3962 50.8311 51.4567V58.4522H44.7661V52.3498C44.7661 50.9358 44.4772 49.8195 42.961 49.8195C41.4447 49.8195 41.1559 50.787 41.1559 52.7963V53.5405C41.1559 55.922 41.5891 57.2615 43.683 60.0151L47.6542 65.2989C50.4701 69.0943 51.3366 71.2525 51.3366 76.0154V77.355C51.481 83.6807 48.8817 87.3273 43.3942 87.3273Z" fill="white"/>
<path d="M59.4931 44.4594H53.2114V86.9533H59.4931V44.4594Z" fill="white"/>
<path d="M67.653 87.4748C63.9707 87.4748 61.6602 84.1259 61.6602 79.7351V53.1671C61.6602 48.4042 63.4652 44.0134 69.3859 44.0134H70.6134C77.3283 44.0134 78.1225 48.5531 78.1225 53.5392V57.8556H72.0574V53.0927C72.0574 51.2322 71.6242 50.1903 70.0357 50.1903C68.7361 50.1903 68.0862 51.2322 68.0862 53.0927V77.949C68.0862 79.9584 68.8805 81.0003 70.1079 81.0003C71.6964 81.0003 72.4184 79.884 72.4184 78.2467V67.6046H69.6025V61.1301H78.3391V86.9539H74.8012C74.7289 86.7306 74.2235 84.6469 73.7181 82.7863C73.2849 84.2003 71.191 87.5492 68.014 87.5492H67.653V87.4748Z" fill="white"/>
<path d="M86.1377 44.4594L91.4808 67.232V44.4594H97.1848V86.8789H92.1306L86.1377 62.4691V86.8789H80.5059V44.4594H86.1377Z" fill="white"/>
<path d="M113.501 87.3273H112.273C107.291 87.3273 104.62 84.4993 104.62 79.2899V70.806H110.829V78.248C110.829 80.1829 111.407 81.2248 112.851 81.2248C114.367 81.2248 114.873 80.1829 114.873 77.5782V76.6108C114.873 73.5595 114.584 72.5177 112.345 69.4664L108.374 64.1826C105.703 60.6104 104.908 57.9313 104.908 53.6893V52.3498C104.908 46.6939 107.652 44.0891 112.634 44.0891H113.789C118.916 44.0891 120.938 46.3962 120.938 51.4567V58.4522H114.873V52.3498C114.873 50.9358 114.584 49.8195 113.067 49.8195C111.551 49.8195 111.262 50.787 111.262 52.7963V53.5405C111.262 55.922 111.696 57.2615 113.789 60.0151L117.761 65.2989C120.577 69.0943 121.443 71.2525 121.443 76.0154V77.355C121.587 83.6807 118.988 87.3273 113.501 87.3273Z" fill="white"/>
<path d="M133.649 78.248V68.4245H139.786V78.248C139.786 82.7876 138.342 87.4017 132.277 87.4017H130.905C124.623 87.4017 123.179 82.7132 123.179 78.4713V52.573C123.179 48.2567 124.984 44.0891 130.688 44.0891H132.132C138.992 44.0891 139.786 48.7776 139.786 52.9451V60.536H133.649V53.094C133.649 51.2335 133.071 50.266 131.555 50.266C130.039 50.266 129.605 51.1591 129.605 53.094V78.3224C129.605 80.1829 130.183 81.2248 131.627 81.2248C133.071 81.1504 133.649 79.9597 133.649 78.248Z" fill="white"/>
<path d="M152.277 68.1995H148.017V86.8789H141.807V44.4594H148.017V61.4272H152.277V44.4594H158.558V86.8789H152.277V68.1995Z" fill="white"/>
<path d="M177.835 77.4281C177.835 83.3817 175.886 87.4004 169.893 87.4004H168.81C162.817 87.4004 160.723 83.3817 160.723 77.4281V53.7625C160.723 47.8833 162.889 44.0134 168.738 44.0134H169.821C175.886 44.0134 177.835 47.8833 177.835 53.688V77.4281ZM171.481 53.4648C171.481 51.2322 170.759 50.1903 169.315 50.1903C167.727 50.1903 167.077 51.3066 167.077 53.4648V77.8746C167.077 79.7351 167.582 81.1491 169.315 81.1491C170.976 81.1491 171.409 79.7351 171.409 77.8746V53.4648H171.481Z" fill="white"/>
<path d="M196.971 77.4281C196.971 83.3817 195.022 87.4004 189.029 87.4004H187.946C181.953 87.4004 179.859 83.3817 179.859 77.4281V53.7625C179.859 47.8833 182.025 44.0134 187.873 44.0134H188.957C195.022 44.0134 196.971 47.8833 196.971 53.688V77.4281V77.4281ZM190.545 53.4648C190.545 51.2322 189.823 50.1903 188.379 50.1903C186.79 50.1903 186.141 51.3066 186.141 53.4648V77.8746C186.141 79.7351 186.646 81.1491 188.379 81.1491C190.04 81.1491 190.473 79.7351 190.473 77.8746V53.4648H190.545Z" fill="white"/>
<path d="M205.347 44.4594V80.3299H213V86.8789H199.065V44.4594H205.347Z" fill="white"/>
</g>
<defs>
<clipPath id="clip0_26_128">
<rect width="213" height="86.7739" fill="white" transform="translate(0 0.699005)"/>
</clipPath>
</defs>
</svg>
