<svg width="120" height="35" viewBox="0 0 120 35" fill="none" xmlns="http://www.w3.org/2000/svg">
<path d="M25.1117 0.461914H0V33.087H6.04538V6.05496H25.1117V0.461914Z" fill="white"/>
<path d="M33.0419 0.461914L21.8809 33.087H28.1589L30.7167 25.8626L48.3881 22.8332L51.8761 33.087H58.1541L46.993 0.461914H33.0424H33.0419ZM32.5771 20.0369L37.4596 6.05496H42.5753L46.5282 17.7069L32.5776 20.0373L32.5771 20.0369Z" fill="white"/>
<path d="M107.209 12.5798L119.255 4.00429L116.743 0.461914H90.0034V5.82178H107.907L96.0493 14.2111L97.6769 17.0074H105.583C112.558 17.0074 113.953 20.7359 113.953 22.8332C113.953 26.329 110.233 28.4262 103.723 28.4262C100.046 28.4262 97.3003 27.1211 95.4254 25.7493L98.7595 23.4128L86.5215 18.9311V31.9897L90.2999 29.3415C92.7029 31.4933 96.8476 34.0192 103.723 34.0192C115.116 34.0192 120 28.6594 120 23.0663C120 19.8037 118.139 12.6263 107.21 12.5798H107.209Z" fill="white"/>
<path d="M61.3984 33.087H67.4438V6.05496H86.5101V0.461914H61.3984V33.087Z" fill="white"/>
</svg>
