<svg width="66" height="66" viewBox="0 0 66 66" fill="none" xmlns="http://www.w3.org/2000/svg">
<path d="M32.9635 8.00037C33.0628 8.00058 33.1621 8.00079 33.2644 8.00101C34.6893 8.00585 36.0872 8.03032 37.4867 8.32343C37.5818 8.3428 37.6769 8.36218 37.7749 8.38214C42.4939 9.36918 46.7843 11.5066 50.264 14.8577C50.3604 14.9502 50.3604 14.9502 50.4589 15.0445C51.3843 15.9364 52.2368 16.8431 52.995 17.8811C53.0787 17.9933 53.1624 18.1056 53.2461 18.2178C53.835 19.0167 54.3577 19.847 54.8482 20.7094C54.8837 20.771 54.9193 20.8326 54.9559 20.8961C57.0632 24.5775 58.0158 28.7484 57.9998 32.9612C57.9996 33.0604 57.9994 33.1597 57.9992 33.262C57.9943 34.6868 57.9698 36.0845 57.6767 37.484C57.6476 37.6266 57.6476 37.6266 57.618 37.7721C56.6309 42.4906 54.4932 46.7807 51.1418 50.26C51.0801 50.3243 51.0185 50.3886 50.955 50.4549C50.063 51.3802 49.1562 52.2326 48.1182 52.9908C48.0059 53.0745 47.8936 53.1581 47.7814 53.2418C46.9826 53.8306 46.1533 54.3556 45.2896 54.8438C45.2206 54.883 45.1517 54.9222 45.0806 54.9626C42.8241 56.233 40.369 57.0862 37.8342 57.605C37.7641 57.6194 37.694 57.6338 37.6217 57.6486C36.1903 57.9206 34.7736 57.9987 33.3193 57.9954C33.0326 57.9951 32.746 57.9974 32.4593 57.9999C31.1549 58.0042 29.8971 57.8867 28.611 57.6721C28.4446 57.6445 28.4446 57.6445 28.2749 57.6165C24.0548 56.8585 20.0509 54.9092 16.8091 52.113C16.7364 52.0512 16.6638 51.9893 16.5889 51.9256C15.2717 50.7737 14.0357 49.5302 13.0052 48.1144C12.9217 48.0023 12.8381 47.8901 12.7545 47.778C12.1654 46.9793 11.6403 46.1499 11.152 45.2861C11.1128 45.2172 11.0735 45.1482 11.0331 45.0771C9.76268 42.8208 8.90936 40.3659 8.39051 37.8314C8.37614 37.7613 8.36177 37.6912 8.34696 37.619C8.0569 36.093 7.99447 34.584 8.00037 33.0343C8.00058 32.935 8.00079 32.8358 8.00101 32.7335C8.00585 31.3087 8.03032 29.9109 8.32346 28.5115C8.34284 28.4164 8.36221 28.3214 8.38218 28.2234C9.36931 23.5049 11.507 19.2148 14.8584 15.7355C14.92 15.6712 14.9817 15.6069 15.0452 15.5406C15.9371 14.6153 16.844 13.7629 17.882 13.0047C17.9943 12.921 18.1065 12.8374 18.2188 12.7537C19.0176 12.1648 19.8469 11.6399 20.7105 11.1517C20.7795 11.1125 20.8485 11.0733 20.9196 11.0328C23.1761 9.76252 25.6312 8.90927 28.166 8.39048C28.2361 8.37611 28.3062 8.36174 28.3784 8.34693C29.9045 8.0569 31.4137 7.99447 32.9635 8.00037ZM39.5106 24.6226C39.3284 24.695 39.1461 24.7673 38.9638 24.8395C36.8262 25.6865 34.6964 26.5525 32.5717 27.4312C32.3147 27.5373 32.0577 27.6432 31.8006 27.7491C28.6506 29.0462 25.5108 30.365 22.4089 31.7738C22.1875 31.8743 21.966 31.9746 21.7443 32.0746C20.5753 32.6022 19.4173 33.1455 18.2782 33.7353C18.1361 33.8086 18.1361 33.8086 17.991 33.8833C17.9039 33.9291 17.8167 33.975 17.7269 34.0222C17.6506 34.0622 17.5743 34.1023 17.4957 34.1435C17.1788 34.338 17.028 34.469 16.931 34.8325C17.034 35.27 17.2645 35.349 17.6315 35.5821C18.0142 35.8058 18.4066 35.9891 18.8147 36.1613C18.9452 36.2167 18.9452 36.2167 19.0783 36.2733C21.1733 37.1364 23.4829 37.9315 25.6849 37.0939C26.1026 36.8854 26.4966 36.647 26.8919 36.399C27.0518 36.3007 27.0518 36.3007 27.2149 36.2005C27.9502 35.7463 28.6769 35.2809 29.389 34.7911C29.6197 34.6328 29.8514 34.4758 30.0831 34.3189C31.4625 33.3836 32.8287 32.4302 34.1903 31.4693C37.2668 29.3016 37.2668 29.3016 38.1695 29.1942C38.0822 29.9077 37.8591 30.2848 37.3427 30.7737C37.2799 30.8358 37.2171 30.8978 37.1524 30.9618C36.9524 31.1585 36.7503 31.3528 36.548 31.547C36.4143 31.6781 36.2809 31.8092 36.1475 31.9406C35.5925 32.4846 35.033 33.0179 34.445 33.5264C34.1733 33.7629 33.9099 34.008 33.6463 34.2534C33.275 34.5977 32.9023 34.9401 32.5246 35.2774C32.1037 35.6549 31.6886 36.0381 31.2749 36.4234C31.2146 36.4794 31.1544 36.5354 31.0923 36.5931C29.9499 37.6336 29.9499 37.6336 29.2937 39.0078C29.2937 39.4884 29.4319 39.8454 29.7517 40.2064C30.0263 40.4549 30.3221 40.6609 30.6287 40.867C30.6968 40.9132 30.7649 40.9595 30.8351 41.0071C30.9872 41.1105 31.1395 41.2136 31.2918 41.3166C31.5433 41.4868 31.7941 41.6577 32.0449 41.8289C33.2724 42.6661 34.503 43.4986 35.734 44.3307C35.9046 44.446 36.0751 44.5614 36.2457 44.6768C37.0425 45.2161 37.8398 45.7549 38.6454 46.2812C38.7492 46.3493 38.853 46.4173 38.9599 46.4874C39.5533 46.8321 40.0594 46.9129 40.7237 46.749C41.3323 46.5293 41.789 46.2044 42.0711 45.6108C42.3599 44.9292 42.4498 44.1944 42.5685 43.4686C42.5958 43.3071 42.6232 43.1456 42.6507 42.9841C42.7241 42.5513 42.796 42.1183 42.8675 41.6852C42.9275 41.3233 42.9883 40.9615 43.049 40.5997C43.2171 39.5996 43.383 38.5991 43.5482 37.5985C43.6248 37.1341 43.7019 36.6699 43.7792 36.2057C44.2168 33.5741 44.6343 30.9403 45.0031 28.2982C45.0174 28.1971 45.0317 28.096 45.0465 27.9919C45.1844 27.0119 45.3078 26.0321 45.3746 25.0443C45.3806 24.9694 45.3866 24.8945 45.3928 24.8172C45.4189 24.3418 45.3492 24.0373 45.0946 23.6352C43.7289 22.4351 40.867 24.0801 39.5106 24.6226Z" fill="url(#paint0_linear_195_21580)"/>
<defs>
<linearGradient id="paint0_linear_195_21580" x1="7.26587" y1="36.4722" x2="36.5715" y2="36.4836" gradientUnits="userSpaceOnUse">
<stop offset="0.0938744" stop-color="#FF5501"/>
<stop offset="1" stop-color="#F58229"/>
</linearGradient>
</defs>
</svg>
