<svg width="24" height="24" viewBox="0 0 24 24" fill="none" xmlns="http://www.w3.org/2000/svg">
<path d="M10.8225 0.0309213C4.85465 0.0309213 0 4.88557 0 10.8534C0 16.8212 4.85465 21.6759 10.8225 21.6759C12.6468 21.6759 14.4403 21.243 15.9554 20.4081C17.2807 19.6808 17.1347 19.5594 17.2807 19.6808L20.4096 22.9422C20.6951 23.2634 21.0433 23.523 21.4327 23.7048C21.8221 23.8866 22.2447 23.987 22.6743 23.9996C23.1039 24.0123 23.7048 23.7048 23.7048 23.7048C23.7048 23.7048 24.0123 23.1039 23.9996 22.6743C23.987 22.2447 23.8866 21.8222 23.7048 21.4327C23.523 21.0433 23.2634 20.6951 22.9422 20.4096L19.4495 17.2807C19.2989 17.13 19.4495 17.2807 20.3153 15.9554C21.1502 14.4403 21.6759 12.6777 21.6759 10.8225C21.6759 4.85465 16.8212 0 10.8534 0L10.8225 0.0309213ZM10.8225 3.12306C15.1205 3.12306 18.5528 6.55532 18.5528 10.8534C18.5528 12.8942 17.8107 14.7804 16.512 16.1719C16.4811 16.2028 16.4502 16.2337 16.4192 16.2646C16.2732 16.386 16.1386 16.5206 16.0173 16.6666C14.6567 17.9035 12.8014 18.6146 10.7915 18.6146C6.49348 18.6146 3.06121 15.1824 3.06121 10.8843C3.06121 6.58625 6.49348 3.15398 10.7915 3.15398L10.8225 3.12306Z" fill="url(#paint0_linear_195_21594)"/>
<defs>
<linearGradient id="paint0_linear_195_21594" x1="-0.352382" y1="13.6667" x2="13.7144" y2="13.6721" gradientUnits="userSpaceOnUse">
<stop offset="0.0938744" stop-color="#FF5501"/>
<stop offset="1" stop-color="#F58229"/>
</linearGradient>
</defs>
</svg>
