<svg width="136" height="50" viewBox="0 0 136 50" fill="none" xmlns="http://www.w3.org/2000/svg">
<path fill-rule="evenodd" clip-rule="evenodd" d="M8 8H33.1117V13.6668H14.0454V41.0554H8V8ZM29.8789 41.0554L41.04 8H41.0404H54.9911L66.1522 41.0554H59.8741L56.3861 30.6663L38.7148 33.7358L36.1569 41.0554H29.8789ZM45.4577 13.6668L40.5751 27.8332L40.5756 27.8336L54.5262 25.4725L50.5734 13.6668H45.4577ZM115.211 20.2777L127.257 11.5891L124.745 8H98.0053V13.4306H115.909L104.051 21.9306L105.679 24.7637H113.585C120.56 24.7637 121.955 28.5415 121.955 30.6663C121.955 34.2083 118.235 36.3332 111.725 36.3332C108.048 36.3332 105.302 35.0109 103.427 33.621L106.761 31.2537L94.5234 26.7129V39.9437L98.3018 37.2606C100.705 39.4407 104.85 42 111.725 42C123.118 42 128.001 36.5694 128.001 30.9026C128.001 27.5969 126.141 20.3249 115.212 20.2777H115.211ZM75.4438 41.0554H69.3984V8H94.5101V13.6668H75.4438V41.0554Z" fill="url(#paint0_linear_195_21592)"/>
<defs>
<linearGradient id="paint0_linear_195_21592" x1="6.23807" y1="27.3611" x2="76.5723" y2="27.4571" gradientUnits="userSpaceOnUse">
<stop offset="0.0938744" stop-color="#FF5501"/>
<stop offset="1" stop-color="#F58229"/>
</linearGradient>
</defs>
</svg>
